<svg width="252" height="207" viewBox="0 0 252 207" fill="none" xmlns="http://www.w3.org/2000/svg">
<path fill-rule="evenodd" clip-rule="evenodd" d="M182.612 78.6674C182.612 78.6674 208.635 79.5443 209.131 79.4681C209.626 79.3919 217.386 77.1047 227.088 80.1538C236.79 83.2029 244.081 88.0507 246.416 91.0162C248.751 93.9816 250.668 120.745 249.117 131.95C247.566 143.154 244.703 145.21 244.703 145.21C244.703 145.21 210.96 198.383 211.527 198.259C212.094 198.135 125.997 197.855 125.997 197.855C125.997 197.855 39.896 198.134 40.4664 198.259C41.0367 198.385 7.28985 145.21 7.28985 145.21C7.28985 145.21 4.42759 143.147 2.87627 131.947C1.32494 120.747 3.24207 93.9816 5.57727 91.0132C7.91247 88.0447 15.2032 83.1999 24.9053 80.1508C34.6075 77.1017 42.3745 79.3889 42.8643 79.4651C43.354 79.5413 69.3831 78.6644 69.3831 78.6644L125.997 94.2386L182.612 78.6674Z" fill="#3FB66B"/>
<path fill-rule="evenodd" clip-rule="evenodd" d="M44.2051 79.4547C43.4122 79.4726 42.927 79.4786 42.8613 79.4681C42.3656 79.3919 34.6045 77.1047 24.9024 80.1538C15.2002 83.2029 7.91247 88.0507 5.57727 91.0162C3.24207 93.9816 1.32494 120.745 2.87627 131.95C3.86171 139.061 5.37421 142.488 6.34771 144.043C7.29283 144.216 8.08417 144.172 8.40519 144.273C9.0726 144.481 11.9573 140.411 11.9573 140.411C11.9573 140.411 8.70978 138.378 7.28985 132.231C5.86992 126.083 6.3268 104.536 7.6452 98.184C8.9636 91.8319 15.3048 86.751 26.4582 83.5002C37.6116 80.2494 44.7709 84.7193 44.7709 84.7193C44.835 82.9474 44.6419 81.1756 44.1976 79.4591" fill="#78C697"/>
<path fill-rule="evenodd" clip-rule="evenodd" d="M211.245 198.244C205.97 198.114 125.997 197.855 125.997 197.855C125.997 197.855 57.1431 198.079 42.9961 198.215L43.6635 146.386C43.6635 146.386 45.0834 162.744 57.5328 168.972C69.9822 175.201 166.784 174.554 188.238 168.972C209.692 163.391 207.838 145.788 207.838 145.788C207.091 164.446 210.058 189.261 211.245 198.243" fill="#18884C"/>
<path fill-rule="evenodd" clip-rule="evenodd" d="M207.79 79.4547C208.583 79.4726 209.067 79.4786 209.134 79.4681C209.628 79.3919 217.389 77.1047 227.091 80.1538C236.794 83.2029 244.084 88.0507 246.42 91.0162C248.755 93.9816 250.672 120.745 249.121 131.95C248.135 139.061 246.623 142.488 245.649 144.043C244.705 144.216 243.914 144.172 243.592 144.273C242.924 144.481 240.041 140.411 240.041 140.411C240.041 140.411 243.287 138.378 244.707 132.231C246.127 126.083 245.672 104.536 244.352 98.184C243.032 91.8319 236.692 86.751 225.539 83.5002C214.385 80.2494 207.226 84.7193 207.226 84.7193C207.162 82.9473 207.355 81.1754 207.801 79.4591" fill="#78C697"/>
<path fill-rule="evenodd" clip-rule="evenodd" d="M238.569 154.891C242.2 149.155 244.704 145.208 244.704 145.208C244.704 145.208 247.566 143.145 249.117 131.945C249.543 128.872 249.715 124.625 249.674 120.022C246.389 122.229 240.602 123.933 231.806 119.15C222.175 113.911 221.473 93.0973 222.185 79.0005C214.884 77.8413 209.538 79.4054 209.131 79.4681C209.046 79.4816 208.204 79.4681 206.869 79.4323C200.329 100.377 203.342 137.604 205.592 144.076C208.074 151.216 224.893 156.818 238.569 154.891Z" fill="#18884C"/>
<path fill-rule="evenodd" clip-rule="evenodd" d="M222.041 82.6935C222.076 81.4252 222.126 80.1882 222.19 79.0005C214.889 77.8413 209.543 79.4054 209.136 79.4681C209.072 79.4786 208.589 79.4681 207.792 79.4547C207.346 81.1709 207.153 82.9428 207.217 84.7148C207.217 84.7148 212.901 81.1608 222.042 82.6935M245.648 144.039C246.621 142.484 248.134 139.057 249.119 131.945C249.545 128.872 249.716 124.625 249.676 120.022C248.418 120.87 247.018 121.485 245.543 121.839C245.454 126.277 245.188 130.139 244.706 132.226C243.286 138.374 240.04 140.407 240.04 140.407C240.04 140.407 242.923 144.476 243.59 144.269C243.911 144.164 244.703 144.212 245.646 144.039H245.648Z" fill="#5FBE86"/>
<path fill-rule="evenodd" clip-rule="evenodd" d="M156.806 197.961L134.559 197.881C131.093 190.476 131.413 178.903 129.649 178.226C127.013 177.211 113.549 175.201 113.549 175.201C113.549 175.201 113.549 181.429 110.171 190.61C109.149 193.386 106.778 195.92 103.625 197.931C94.5349 197.964 83.8444 198.004 73.8631 198.046C65.3405 186.442 75.068 140.664 75.068 140.664C82.7783 134.98 164.752 158.53 168 172.132C170.105 180.955 164.528 191.483 156.801 197.961" fill="#18884C"/>
<path fill-rule="evenodd" clip-rule="evenodd" d="M13.4249 154.891C9.79524 149.155 7.28983 145.21 7.28983 145.21C7.28983 145.21 4.42757 143.147 2.87625 131.947C2.45072 128.874 2.28648 124.627 2.32082 120.024C5.59667 122.23 11.3914 123.935 20.1872 119.151C29.8191 113.912 30.5209 93.0987 29.8087 79.002C37.1099 77.8427 42.4566 79.4069 42.8643 79.4696C42.9494 79.4831 43.79 79.4696 45.1248 79.4338C51.6645 100.379 48.6515 137.606 46.4029 144.078C43.9214 151.217 27.1017 156.819 13.4249 154.892" fill="#18884C"/>
<path fill-rule="evenodd" clip-rule="evenodd" d="M29.9535 82.6935C29.9191 81.4252 29.8699 80.1882 29.8042 79.0005C37.1054 77.8413 42.4522 79.4054 42.8598 79.4681C42.9225 79.4786 43.4062 79.4681 44.2036 79.4547C44.6478 81.1711 44.8409 82.9429 44.7769 84.7148C44.7769 84.7148 39.0927 81.1608 29.952 82.6935M6.34769 144.039C5.37419 142.484 3.86169 139.057 2.87625 131.945C2.45072 128.872 2.28648 124.625 2.32082 120.022C3.57843 120.87 4.97767 121.485 6.45221 121.839C6.54179 126.277 6.80756 130.139 7.28983 132.226C8.70976 138.374 11.9572 140.407 11.9572 140.407C11.9572 140.407 9.07258 144.476 8.40517 144.269C8.08416 144.164 7.29282 144.212 6.34769 144.039Z" fill="#5FBE86"/>
<path fill-rule="evenodd" clip-rule="evenodd" d="M182.612 78.6673C182.612 78.6673 207.397 79.5025 209.04 79.4711C207.099 89.7792 204.72 104.197 204.925 111.646C205.267 124.045 208.728 143.915 208.728 143.915C208.728 143.915 206.966 144.69 206.04 144.677C205.114 144.663 48.7786 144.975 48.7786 144.975L44.0111 143.169C44.0111 143.169 46.5494 109.914 45.7356 96.8036C45.3575 90.9385 44.3839 85.1271 42.8301 79.4591H42.857C43.3512 79.5353 69.3758 78.6584 69.3758 78.6584L125.997 94.2386L182.612 78.6673Z" fill="#18884C"/>
<path d="M43.2886 143.166L84.8115 143.599L84.7846 147.101L43.2617 146.667L43.2886 143.166Z" fill="#12512D"/>
<path d="M208.734 146.667L170.369 147.025L170.341 143.523L208.706 143.166L208.734 146.667Z" fill="#12512D"/>
<path d="M40.8549 77.7859C44.3756 77.9189 70.7809 77.148 70.8571 77.145L70.9526 80.6468C70.8765 80.6468 44.3457 81.4236 40.7324 81.2877L40.8549 77.7859Z" fill="#12512D"/>
<path d="M211.263 81.2877C207.648 81.4236 181.117 80.6498 181.041 80.6468L181.137 77.145C181.213 77.145 207.618 77.9189 211.139 77.7859L211.263 81.2877Z" fill="#12512D"/>
<path fill-rule="evenodd" clip-rule="evenodd" d="M84.3444 98.3753C84.3444 98.3753 74.9379 111.9 74.0257 122.726C73.1134 133.553 85.7435 141.699 85.7435 141.699C85.7435 141.699 82.0107 172.054 84.755 184.078C87.4993 196.101 99.0215 195.162 104.762 193.528C110.503 191.894 114.887 178.674 116.334 175.387C117.781 172.101 118.687 169.241 118.687 169.241L135.814 171.424C135.814 171.424 139.386 192.39 148.749 193.755C158.112 195.121 167.925 189.563 170.665 178.283C173.404 167.002 169.878 147.793 170.347 144.288C170.815 140.783 171.198 136.742 171.35 130.95C171.502 125.158 170.512 119.597 170.512 119.597C170.512 119.597 159.041 112.479 143.405 106.517C123.469 98.9176 97.2238 92.5654 84.3444 98.3738" fill="#EEEDED"/>
<path fill-rule="evenodd" clip-rule="evenodd" d="M83.8653 165.336C83.61 172.45 83.725 179.561 84.7612 184.081C86.6619 192.426 92.7955 194.526 98.2931 194.484C96.9821 191.888 94.635 186.085 93.6376 176.382C92.2177 162.56 104.388 156.87 104.388 156.87C104.388 156.87 91.94 156.295 83.8668 165.336" fill="#B7C8DB"/>
<path fill-rule="evenodd" clip-rule="evenodd" d="M131.124 170.831L135.814 171.428C135.814 171.428 139.385 192.394 148.748 193.76C150.569 194.025 152.418 194.03 154.24 193.775C152.308 191.703 149.674 187.379 148.014 178.517C145.134 163.152 150.894 150.282 151.366 149.493C138.388 154.423 132.611 162.182 131.124 170.831Z" fill="#B7C8DB"/>
<path fill-rule="evenodd" clip-rule="evenodd" d="M85.1548 147.124C84.6412 152.267 83.9603 160.33 83.7871 168.009C88.6695 165.548 97.8043 162.009 105.604 165C112.135 167.505 115.526 170.813 117.223 173.269C118.142 170.968 118.687 169.246 118.687 169.246L129.771 170.657C134.464 167.931 138.879 165.305 138.879 165.305C138.879 165.305 143.3 156.281 156.432 159.513C169.564 162.744 170.724 169.586 170.724 169.586C170.724 169.586 171.117 168.654 171.714 167.099C171.696 157.221 170.01 146.781 170.343 144.293C170.813 140.788 171.194 136.747 171.347 130.955C171.392 128.768 171.314 126.579 171.112 124.401C170.128 123.98 168.941 123.72 167.491 123.638C159.323 123.174 156.127 123.231 156.127 123.231C156.127 123.231 102.787 150.107 101.101 150.289C99.8319 150.424 91.7543 146.886 85.1548 147.125" fill="#B7C8DB"/>
<path fill-rule="evenodd" clip-rule="evenodd" d="M74.7067 118.673C74.3766 120.004 74.149 121.358 74.0258 122.723C73.112 133.547 85.7436 141.696 85.7436 141.696C85.7436 141.696 85.2867 145.419 84.8104 150.77C95.3128 157.853 109.46 163.863 121.939 161.228C145.576 156.265 110.88 119.877 112.543 126.581C114.206 133.284 109.866 137.459 107.019 140.813C104.171 144.167 101.096 144.06 88.6536 137.825C79.8593 133.426 76.1355 123.887 74.7067 118.666" fill="#B7C8DB"/>
<path fill-rule="evenodd" clip-rule="evenodd" d="M84.3445 98.3753C84.3445 98.3753 79.3949 105.492 76.3281 113.539C81.0896 111.879 87.1545 110.878 90.9948 114.396C98.0959 120.899 100.973 123.509 101.457 124.068C101.941 124.627 134.023 131.687 147.461 129.643C160.898 127.6 164.134 121.946 164.134 121.946C164.134 121.946 152.883 118.104 144.979 107.128C144.459 106.92 143.935 106.716 143.405 106.517C123.47 98.9176 97.224 92.5654 84.3445 98.3738" fill="#B7C8DB"/>
<path fill-rule="evenodd" clip-rule="evenodd" d="M140.767 186.522C142.742 190.218 145.368 193.267 148.749 193.76C152.482 194.312 156.294 193.754 159.714 192.157C163.133 190.559 166.008 187.992 167.981 184.774C159.712 190.232 140.792 186.526 140.767 186.522ZM85.9805 187.638C89.9969 195.883 99.6632 194.982 104.767 193.53C106.987 192.899 109.001 190.542 110.723 187.687C107.793 188.087 104.063 188.434 99.3138 188.677C93.7505 188.958 89.3922 188.483 85.9805 187.638Z" fill="#64748E"/>
<path fill-rule="evenodd" clip-rule="evenodd" d="M85.9805 187.638C86.8032 189.382 88.0476 190.895 89.6012 192.037C89.8849 192.245 90.1776 192.435 90.4747 192.611C90.5717 192.669 90.6703 192.724 90.7733 192.778H90.7823C91.0809 192.941 91.3795 193.092 91.6886 193.226L91.7229 193.241C91.8224 193.285 91.9195 193.327 92.0141 193.367H92.023C92.2306 193.452 92.4396 193.533 92.6516 193.606H92.674C92.7666 193.639 92.8591 193.67 92.9532 193.7L93.007 193.718C93.1025 193.749 93.1966 193.778 93.2921 193.806H93.3116C93.4161 193.837 93.5221 193.867 93.6266 193.896L93.6654 193.905L93.9312 193.973L94.0073 193.993L94.2447 194.047L94.3239 194.064L94.6225 194.126H94.6329C94.7315 194.145 94.8315 194.165 94.9316 194.181L95.0301 194.199L95.2361 194.232L95.3496 194.25L95.5437 194.278L95.6632 194.295L95.9424 194.329L96.0663 194.342L96.2395 194.36L96.3978 194.375L96.5262 194.386L96.7024 194.399H96.8069C96.9338 194.408 97.0622 194.416 97.1891 194.421H97.2488H97.4414H97.5415H97.7266H97.8311H98.0238H98.2821C97.3772 192.579 96.628 190.664 96.0424 188.697C92.0111 188.685 88.6934 188.249 85.982 187.576" fill="#48596C"/>
<path fill-rule="evenodd" clip-rule="evenodd" d="M140.834 186.647L141.01 186.968L141.103 187.133C141.162 187.239 141.223 187.345 141.285 187.449L141.361 187.579C141.428 187.693 141.497 187.805 141.564 187.917L141.631 188.025C141.706 188.144 141.78 188.262 141.855 188.379L141.915 188.47C141.991 188.586 142.064 188.703 142.145 188.816L142.209 188.909C142.285 189.019 142.358 189.13 142.442 189.239L142.496 189.315C142.579 189.43 142.663 189.544 142.748 189.654L142.8 189.723C142.889 189.838 142.978 189.951 143.069 190.064L143.115 190.121C143.206 190.233 143.299 190.343 143.393 190.451L143.441 190.506C143.535 190.613 143.63 190.721 143.726 190.824L143.757 190.859C143.856 190.963 143.956 191.068 144.056 191.169L144.093 191.207C144.195 191.308 144.299 191.408 144.404 191.505L144.443 191.541C144.547 191.638 144.653 191.734 144.761 191.825L144.796 191.856C144.907 191.949 145.017 192.04 145.129 192.128L145.15 192.145C145.262 192.231 145.376 192.315 145.489 192.397L145.515 192.415C145.63 192.496 145.746 192.575 145.864 192.65L145.895 192.671C146.013 192.745 146.132 192.817 146.254 192.886L146.282 192.901C146.405 192.969 146.527 193.035 146.652 193.096L146.672 193.107C146.797 193.168 146.924 193.226 147.053 193.28H147.066C147.193 193.334 147.323 193.385 147.454 193.43L147.483 193.44C147.612 193.485 147.744 193.527 147.877 193.564H147.901C148.035 193.601 148.169 193.636 148.305 193.664H148.329C148.468 193.694 148.608 193.719 148.749 193.739C148.864 193.757 148.977 193.772 149.091 193.787H149.098C149.209 193.802 149.319 193.814 149.43 193.827H149.45C149.555 193.839 149.659 193.849 149.765 193.858H149.806L150.095 193.882H150.17L150.416 193.899H150.531L150.761 193.911H150.881H151.079H151.245H151.76C152.59 193.902 153.418 193.839 154.24 193.724C153.144 192.55 151.824 190.651 150.584 187.612C147.291 187.44 144.012 187.058 140.767 186.471L140.834 186.647Z" fill="#48596C"/>
<path fill-rule="evenodd" clip-rule="evenodd" d="M87.5675 143.047C87.5675 143.047 93.3264 143.963 92.8202 150.162C92.3141 156.362 88.4574 156.265 89.2682 161.344C90.0789 166.424 91.9378 168.963 87.8482 171C83.7586 173.036 82.7911 170.103 82.4283 168.974C82.0655 167.844 83.784 144.354 87.5675 143.05" fill="#545454"/>
<path fill-rule="evenodd" clip-rule="evenodd" d="M171.671 169.993C172.052 159.354 169.981 147.031 170.347 144.297C170.747 141.309 171.083 137.943 171.267 133.435C168.51 133.762 165.294 134.696 164.958 137.261C164.349 141.834 165.87 142.951 161.509 145.899C157.148 148.846 159.58 151.997 162.625 154.435C165.669 156.873 159.393 159.066 163.343 162.747C165.508 164.765 168.652 169.008 171.671 169.997" fill="#767474"/>
<path fill-rule="evenodd" clip-rule="evenodd" d="M170.386 147.095V147.027L170.37 146.776V146.768C170.358 146.584 170.347 146.408 170.338 146.238L170.328 146.014V145.924V145.766V145.682V145.561V145.461V144.887V144.79V144.723V144.626V144.569C170.328 144.535 170.328 144.502 170.328 144.47V144.424C170.328 144.379 170.338 144.336 170.343 144.296L170.362 144.155V144.131L170.377 144.015V143.965L170.389 143.873L170.398 143.798L170.407 143.731L170.421 143.631V143.589L170.437 143.464V143.446L170.455 143.296V143.289L170.473 143.151V143.118L170.488 143.006V142.948L170.5 142.86L170.509 142.775V142.714L170.522 142.603V142.566L170.539 142.428V142.418L170.555 142.268V142.253L170.571 142.119V142.077L170.583 141.968V141.899L170.594 141.816L170.604 141.722V141.663L170.618 141.541V141.511L170.634 141.362L170.65 141.212V141.188L170.664 141.055V141.005L170.676 140.898L170.683 140.819V140.742L170.695 140.634V140.582L170.709 140.446V140.422L170.725 140.262L170.74 140.104V140.071L170.752 139.941V139.88L170.761 139.777L170.776 139.612L170.788 139.491V139.445L170.801 139.295V139.278L170.816 139.11V139.085L170.83 138.935V138.894L170.84 138.765V138.692V138.593L170.849 138.489V138.42L170.86 138.284V138.245L170.871 138.078V138.069L170.885 137.893V137.87L170.895 137.721V137.667L170.904 137.542L170.918 137.361V137.241V137.179L170.928 137.029V136.998L170.942 136.813L170.954 136.627V136.594L170.963 136.445L170.974 136.257V136.157V136.066L170.997 135.68L171.007 135.486V135.475L171.016 135.29L171.027 135.092V135.012V134.893V134.876L171.036 134.691V134.542V134.491L171.045 134.301V134.286L171.054 134.082V134.061V133.874V133.816V133.666V133.572V133.456C168.297 133.783 165.081 134.717 164.745 137.282C164.136 141.855 165.658 142.972 161.296 145.92C156.935 148.867 159.367 152.018 162.412 154.456C165.099 156.61 160.52 158.573 162.135 161.537C169.711 164.973 170.512 169.592 170.515 169.612C170.515 169.592 170.912 168.663 171.503 167.124C171.49 159.475 170.476 151.492 170.173 147.121" fill="#545454"/>
<path fill-rule="evenodd" clip-rule="evenodd" d="M78.9409 107.641C76.6669 112.185 74.4452 117.74 74.0256 122.729C73.7599 125.883 74.6438 128.808 76.0294 131.373C76.8777 131.317 77.7142 131.144 78.5154 130.859C82.6751 129.335 80.1384 126.896 80.1384 124.05C80.1384 121.204 84.5087 121.905 87.4426 120.487C90.3765 119.069 85.6165 117.133 83.7905 111.951C82.9573 109.587 80.985 108.301 78.9409 107.641Z" fill="#767474"/>
<path fill-rule="evenodd" clip-rule="evenodd" d="M83.8175 112.022L83.7906 111.951C82.9575 109.587 80.9851 108.301 78.941 107.641C78.0228 109.475 77.1135 111.473 76.3281 113.533C78.6514 112.723 81.2837 112.07 83.8175 112.022Z" fill="#545454"/>
<path fill-rule="evenodd" clip-rule="evenodd" d="M74.3751 120.209L74.3631 120.272L74.3273 120.463L74.3168 120.527L74.2944 120.651L74.2825 120.714L74.272 120.777L74.2541 120.886L74.2347 121.008L74.2213 121.092L74.2019 121.22L74.1929 121.283V121.304V121.346L74.169 121.519V121.534V121.558L74.1466 121.724L74.1391 121.779V121.796L74.1168 121.973V122.015V122.036L74.0958 122.223V122.251L74.0749 122.466V122.502C74.0749 122.578 74.0615 122.652 74.0555 122.731C74.0406 122.897 74.0302 123.061 74.0227 123.225V123.248C74.0227 123.409 74.0122 123.57 74.0107 123.73V123.742C74.0107 123.904 74.0107 124.065 74.0107 124.225V124.249C74.0107 124.398 74.0227 124.555 74.0316 124.707V124.745C74.0421 124.894 74.054 125.043 74.069 125.202V125.236C74.0839 125.386 74.1003 125.535 74.1197 125.671V125.725C74.1391 125.874 74.1615 126.007 74.1839 126.146L74.1959 126.216C74.2198 126.349 74.2452 126.484 74.272 126.617L74.287 126.694C74.3138 126.821 74.3422 126.947 74.3721 127.072L74.3945 127.171C74.4243 127.292 74.4542 127.411 74.487 127.531L74.5184 127.646C74.5497 127.758 74.5811 127.868 74.614 127.979L74.6587 128.128C74.6886 128.227 74.7215 128.326 74.7543 128.427L74.8081 128.59C74.8394 128.681 74.8723 128.771 74.9036 128.862C74.935 128.953 74.9559 129.001 74.9813 129.071L75.0664 129.294L75.1559 129.516L75.2306 129.694C75.2724 129.793 75.3142 129.891 75.3575 129.993L75.4292 130.154L75.5456 130.405L75.6143 130.555C75.6696 130.668 75.7248 130.782 75.7815 130.894L75.798 130.927C75.8577 131.042 75.9159 131.157 75.9771 131.27L76.0413 131.391C76.8897 131.335 77.7262 131.162 78.5273 130.877C79.0368 130.703 79.5186 130.457 79.9577 130.145C77.1089 126.098 75.5367 121.688 74.7185 118.697C74.5945 119.211 74.4826 119.724 74.387 120.233" fill="#545454"/>
<path fill-rule="evenodd" clip-rule="evenodd" d="M115.124 119.054C115.124 119.054 116.79 113.005 119.187 112.243C121.583 111.481 124.247 106.405 125.997 106.695C127.747 106.985 129.536 112.091 129.536 112.091C129.536 112.091 136.65 108.28 138.439 110.298C140.228 112.317 140.265 116.471 140.493 116.776C140.722 117.081 146.048 121.007 146.764 125.085C147.481 129.164 147.792 131.373 147.145 131.791C146.499 132.21 129.65 127.335 127.211 126.306C124.771 125.276 115.035 121.961 115.117 119.054" fill="#EBF5EF"/>
<path fill-rule="evenodd" clip-rule="evenodd" d="M102.37 123.18C102.37 123.18 106.479 114.605 109.295 114.035C112.111 113.464 116.371 114.224 116.371 114.224C116.371 114.224 113.86 120.051 114.773 120.969C115.687 121.888 139.047 132.783 144.564 133.09C150.081 133.396 150.866 132.592 150.879 132.098C150.893 131.603 148.522 127.029 148.749 126.271C148.976 125.514 151.869 125.586 152.516 126.271C153.162 126.957 156.32 131.074 155.826 135.384C155.332 139.694 146.378 167.066 137.716 169.76C129.055 172.453 121.66 169.988 115.953 167.359C110.246 164.73 100.201 160.919 99.0212 157.798C97.8417 154.677 98.0328 148.535 98.1463 148.347C98.2598 148.159 103.853 151.891 107.354 149.299C110.855 146.707 117.059 135.694 116.638 131.769C116.217 127.844 110.397 124.337 109.294 124.032C108.19 123.727 102.599 124.261 102.599 124.261L102.37 123.18Z" fill="#18884C"/>
<path fill-rule="evenodd" clip-rule="evenodd" d="M98.0615 150.02C98.0615 149.051 98.1108 148.394 98.1466 148.334C98.1825 148.274 98.7797 148.612 99.6875 149.018L98.0615 150.02ZM126.614 126.675C128.415 127.467 130.282 128.264 132.117 129.017L113.861 140.28C115.293 137.527 116.386 134.752 116.613 132.846L126.614 126.675Z" fill="#EBF5EF"/>
<path fill-rule="evenodd" clip-rule="evenodd" d="M135.246 130.271C137.44 131.119 139.481 131.848 141.169 132.353L99.239 158.219C99.1533 158.081 99.0804 157.936 99.021 157.784C98.5477 156.529 98.2953 154.789 98.1699 153.143L103.097 150.101C104.55 150.333 106.083 150.222 107.351 149.285C108.354 148.538 109.58 147.107 110.809 145.344L135.246 130.271Z" fill="#EBF5EF"/>
<path fill-rule="evenodd" clip-rule="evenodd" d="M145.648 133.137C150.185 133.287 150.873 132.558 150.873 132.092C150.873 132.064 150.87 132.036 150.863 132.01L152.487 134.645L106.43 163.067C104.579 162.171 102.863 161.252 101.537 160.348L145.648 133.137Z" fill="#EBF5EF"/>
<path fill-rule="evenodd" clip-rule="evenodd" d="M155.681 136.231C155.383 137.704 154.675 140.208 153.667 143.21L115.136 166.979C113.512 166.247 111.62 165.439 109.715 164.589L155.681 136.231Z" fill="#EBF5EF"/>
<path fill-rule="evenodd" clip-rule="evenodd" d="M152.038 147.76C151.08 150.285 149.976 152.946 148.768 155.514L124.707 170.357C122.585 169.911 120.507 169.273 118.499 168.451L152.038 147.76Z" fill="#EBF5EF"/>
<path fill-rule="evenodd" clip-rule="evenodd" d="M103.208 121.548C104.552 119.03 107.262 114.447 109.295 114.035C112.11 113.462 116.371 114.224 116.371 114.224C116.371 114.224 113.86 120.051 114.774 120.969C115.687 121.888 139.047 132.783 144.564 133.09C150.081 133.396 150.866 132.592 150.879 132.098C150.893 131.603 148.522 127.029 148.749 126.271C148.976 125.514 151.869 125.586 152.516 126.271C153.162 126.957 156.32 131.074 155.826 135.384C155.816 135.477 155.799 135.583 155.781 135.697C154.635 137.102 152.682 138.182 149.424 138.526C143.086 139.194 127.374 134.418 115.302 128.712C113.403 126.173 110.099 124.25 109.294 124.028C108.867 123.91 107.76 123.917 106.569 123.972C105.403 123.233 104.28 122.427 103.208 121.557" fill="#18884C"/>
<path d="M248.377 123.697C248.886 113.483 247.711 101.728 244.89 93.4139C244.52 92.3248 243.752 91.1894 242.686 90.0585C239.594 86.7839 234.2 83.7527 228.502 81.8838C222.863 80.0373 217.005 79.3441 212.939 80.7334C211.874 81.0702 210.892 81.6304 210.059 82.3768C208.968 83.4703 207.839 97.2653 207.594 111.716C207.349 126.167 208.084 140.997 210.795 143.874C210.852 143.936 210.755 143.83 210.819 143.894C213.456 146.532 219.318 147.666 225.504 147.594C232.308 147.518 239.349 145.964 242.933 143.329C246.101 141 247.914 133.073 248.381 123.688M248.215 92.28C251.173 100.997 252.409 113.249 251.881 123.853C251.364 134.207 249.092 143.154 245.013 146.157C240.856 149.214 233.005 151.011 225.538 151.096C218.51 151.177 211.691 149.729 208.342 146.38C208.318 146.354 208.342 146.38 208.25 146.278C204.816 142.646 203.844 126.857 204.102 111.662C204.36 96.4675 205.95 81.5252 207.584 79.8924L207.603 79.8789L207.615 79.867L207.636 79.846C208.837 78.7387 210.263 77.9049 211.817 77.402C216.65 75.7586 223.305 76.4802 229.584 78.5388C235.805 80.5766 241.755 83.9514 245.243 87.6518C246.642 89.1383 247.673 90.6994 248.211 92.2845L248.215 92.28Z" fill="#12512D"/>
<path fill-rule="evenodd" clip-rule="evenodd" d="M126.03 18.2141C126.03 18.2141 146.653 16.0045 155.478 26.0662C164.304 36.1278 166.975 41.4626 168.149 42.0333C169.322 42.604 175.949 40.5095 181.694 43.9007C187.439 47.2919 199.611 65.0144 201.44 67.0715C203.269 69.1287 204.255 71.0349 202.809 71.6459C201.364 72.257 183.281 72.5632 181.694 72.5214C180.107 72.4795 183.239 91.067 167.045 98.704C150.851 106.341 126.03 106.024 126.03 106.024C126.03 106.024 101.21 106.342 85.0162 98.704C68.8221 91.0655 71.9546 72.481 70.3675 72.5214C68.7803 72.5617 50.6975 72.2555 49.2507 71.6459C47.8038 71.0364 48.7938 69.1302 50.6153 67.0775C52.4369 65.0248 64.6161 47.2994 70.3615 43.9067C76.1069 40.5139 82.7273 42.6114 83.9068 42.0392C85.0864 41.4671 87.7485 36.1323 96.5757 26.0721C105.403 16.012 126.024 18.22 126.024 18.22" fill="#EEEDED"/>
<path fill-rule="evenodd" clip-rule="evenodd" d="M89.3807 34.8878C86.0735 39.2755 84.679 41.6628 83.913 42.0333C82.7335 42.6055 76.1131 40.5095 70.3677 43.9007C64.6223 47.2919 52.4476 65.0144 50.6156 67.0775C48.7835 69.1406 47.7996 71.0409 49.2449 71.6519C50.6902 72.2629 68.7731 72.5692 70.3617 72.5274C71.9504 72.4855 68.8208 91.067 85.0164 98.704C101.212 106.341 126.03 106.024 126.03 106.024V100.913C126.03 100.913 113.018 101.752 98.1795 97.9406C83.3412 94.1296 75.8085 88.7948 75.1232 81.4775C74.4378 74.1602 78.5483 67.0775 81.657 61.9175C84.7656 56.7574 85.6241 52.6656 87.907 44.5879C90.19 36.5102 92.9134 36.2563 92.9134 36.2563C92.9134 36.2563 91.5696 35.7677 89.3807 34.8893" fill="#B7C8DB"/>
<path fill-rule="evenodd" clip-rule="evenodd" d="M162.681 34.8878C165.987 39.2755 167.381 41.6628 168.149 42.0333C169.328 42.6055 175.949 40.5095 181.694 43.9007C187.44 47.2919 199.611 65.0144 201.44 67.0715C203.269 69.1287 204.255 71.0349 202.81 71.6459C201.364 72.257 183.281 72.5632 181.694 72.5214C180.107 72.4795 183.24 91.067 167.046 98.704C150.851 106.341 126.03 106.024 126.03 106.024V100.913C126.03 100.913 139.043 101.752 153.881 97.9406C168.719 94.1296 176.252 88.7948 176.937 81.4775C177.623 74.1602 173.514 67.0715 170.403 61.9175C167.293 56.7634 166.436 52.6656 164.153 44.5879C161.87 36.5102 159.147 36.2563 159.147 36.2563C159.147 36.2563 160.491 35.7677 162.681 34.8893" fill="#B7C8DB"/>
<path fill-rule="evenodd" clip-rule="evenodd" d="M147.233 33.3729C147.233 33.3729 150.388 37.9623 154.564 39.9313C158.058 41.5746 166.146 40.3048 163.186 34.9266C163.186 34.9266 154.871 37.0405 147.233 33.3729Z" fill="#B7C8DB"/>
<path fill-rule="evenodd" clip-rule="evenodd" d="M85.3308 40.4661C87.0374 38.1475 90.1967 33.343 96.5812 26.0661C101.605 20.3384 110.451 18.5965 117.14 18.1483C119.596 21.6411 121.456 25.2848 121.089 27.9709C120.791 30.2587 120.062 32.4693 118.942 34.4859C112.768 45.5813 128.436 50.1109 123.751 59.1447C120.708 65.0143 111.424 68.673 110.055 69.2063C108.686 69.7396 75.6943 64.6498 75.6943 64.6498C75.6943 64.6498 84.6529 43.7901 85.3308 40.8739C85.3564 40.7392 85.3564 40.6008 85.3308 40.4661Z" fill="#767474"/>
<path fill-rule="evenodd" clip-rule="evenodd" d="M104.827 33.3729C104.827 33.3729 101.679 37.9623 97.4988 39.9313C94.0049 41.5746 85.9168 40.3048 88.8776 34.9266C88.8776 34.9266 97.1942 37.0405 104.83 33.3729" fill="#545454"/>
<path fill-rule="evenodd" clip-rule="evenodd" d="M79.6994 65.2609C77.2492 64.8904 75.6904 64.6499 75.6904 64.6499C75.6904 64.6499 84.649 43.7901 85.3268 40.874C85.3525 40.7393 85.3525 40.6009 85.3268 40.4661C86.2078 39.271 87.4769 37.4096 89.3761 34.8878C91.5695 35.7662 92.9088 36.2548 92.9088 36.2548C92.9088 36.2548 90.1854 36.5072 87.9024 44.5864C85.6195 52.6656 84.7669 56.7649 81.6523 61.916C81.0252 62.9617 80.3563 64.0762 79.6949 65.2594" fill="#545454"/>
<path fill-rule="evenodd" clip-rule="evenodd" d="M81.8204 51.6377C81.8204 51.6377 76.7603 47.7878 70.9775 53.5798C65.1948 59.3718 55.957 67.808 52.3318 69.5111C48.7065 71.2141 49.365 70.388 50.4296 70.8451C51.4942 71.3023 50.6968 73.5133 59.9421 73.086C69.1873 72.6588 72.9544 69.5798 73.5292 68.5131C74.1041 67.4464 81.8233 51.6317 81.8233 51.6317" fill="#E94844"/>
<path fill-rule="evenodd" clip-rule="evenodd" d="M170.242 51.6377C170.242 51.6377 175.302 47.7878 181.085 53.5798C186.867 59.3718 196.104 67.8065 199.727 69.5096C203.351 71.2126 202.696 70.3865 201.63 70.8436C200.564 71.3008 201.364 73.5118 192.119 73.0845C182.873 72.6573 179.106 69.5783 178.531 68.5116C177.957 67.4449 170.237 51.6302 170.237 51.6302" fill="#E94844"/>
<path fill-rule="evenodd" clip-rule="evenodd" d="M181.347 72.9919C180.526 75.92 181.698 91.793 167.045 98.704C150.851 106.339 126.029 106.024 126.029 106.024C126.029 106.024 101.21 106.342 85.0157 98.704C70.3625 91.793 71.5331 75.92 70.7119 72.9919C72.0452 67.7019 75.0016 63.0215 81.286 62.9557C95.8212 62.8063 111.343 71.4159 117.278 71.873C123.214 72.3301 126.029 72.3316 126.029 72.3316C126.029 72.3316 128.845 72.3316 134.781 71.873C140.716 71.4144 156.239 62.8034 170.773 62.9557C177.059 63.0215 180.015 67.7019 181.347 72.9919Z" fill="#ED7F77"/>
<path fill-rule="evenodd" clip-rule="evenodd" d="M181.347 72.9919C181.198 73.5163 181.117 74.4575 180.995 75.681C179.961 73.8475 178.728 72.134 177.317 70.5718C173.779 66.6084 168.262 66.4948 160.69 67.7901C153.119 69.0853 149.125 72.1732 133.906 75.4883C118.687 78.8033 103.811 71.6773 90.3418 68.168C76.8726 64.6588 71.8887 72.1314 71.8887 72.1314C71.9955 70.8299 72.2087 69.5393 72.5262 68.2726C74.2567 65.2011 76.9965 63.005 81.2862 62.9602C95.8214 62.8108 111.344 71.4203 117.279 71.8775C123.214 72.3346 126.03 72.3361 126.03 72.3361C126.03 72.3361 128.846 72.3361 134.781 71.8775C140.716 71.4188 156.239 62.8078 170.773 62.9602C177.059 63.0259 180.015 67.7064 181.347 72.9964" fill="#F5BBB8"/>
<path fill-rule="evenodd" clip-rule="evenodd" d="M70.7119 72.9919C71.5331 75.92 70.3625 91.793 85.0157 98.7039C101.21 106.339 126.029 106.024 126.029 106.024C126.029 106.024 150.851 106.342 167.045 98.7039C181.698 91.793 180.526 75.92 181.347 72.9919C180.033 67.7736 177.14 63.1499 171.028 62.9617C174.034 68.0067 177.577 74.6427 176.936 81.4774C176.251 88.7977 168.724 94.1295 153.88 97.9405C136.962 102.286 115.099 102.286 98.1788 97.9405C83.342 94.1295 75.8078 88.7947 75.1225 81.4774C74.4835 74.6427 78.0266 68.0067 81.0307 62.9617C74.9209 63.1499 72.0258 67.7736 70.7119 72.9919Z" fill="#D64D4C"/>
<path fill-rule="evenodd" clip-rule="evenodd" d="M78.2658 67.9843C79.1482 66.1915 80.1142 64.5004 81.031 62.9617C76.8862 63.0901 74.2225 65.2593 72.5204 68.2681C72.2021 69.5392 71.9889 70.8343 71.8828 72.1404C71.8828 72.1404 73.7432 69.3542 78.2598 67.9843M180.985 75.687C181.107 74.4575 181.191 73.5163 181.337 72.9979C180.023 67.7796 177.129 63.1559 171.018 62.9676C171.953 64.5363 172.938 66.2543 173.836 68.0918C175.164 68.6525 176.351 69.504 177.307 70.5837C178.721 72.1435 179.958 73.855 180.995 75.687H180.985Z" fill="#ED7F77"/>
<path fill-rule="evenodd" clip-rule="evenodd" d="M139.363 52.0216C139.363 52.0216 139.983 48.3047 143.075 47.2037C147.194 45.7367 150.961 48.1374 151.021 52.3802C151.021 52.9852 150.909 53.3288 150.749 53.4439C150.428 53.6739 149.555 54.1789 148.595 52.9389C147.635 51.6989 147.724 50.3694 145.137 50.3694C142.549 50.3694 141.974 53.2078 141.311 53.4902C140.649 53.7725 139.249 53.6052 139.363 52.0216Z" fill="#2A3335"/>
<path fill-rule="evenodd" clip-rule="evenodd" d="M102.365 53.9309C102.365 53.9309 102.985 50.2125 106.077 49.1115C110.197 47.6444 113.964 50.0452 114.024 54.2894C114.031 54.8945 113.912 55.2381 113.75 55.3531C113.431 55.5817 112.556 56.0866 111.597 54.8482C110.639 53.6097 110.727 52.2786 108.139 52.2786C105.552 52.2786 104.977 55.1171 104.312 55.3994C103.648 55.6818 102.252 55.513 102.371 53.9309" fill="#2A3335"/>
<path d="M91.7542 103.231C84.7949 100.99 78.5896 97.7807 74.3701 93.3855C69.9924 88.8261 67.7483 83.061 68.9457 75.8797C69.637 71.74 71.484 67.1462 74.7688 62.0668C78.721 55.9417 79.0704 54.7241 80.5411 49.6254C80.9248 48.2928 81.3802 46.7137 81.9401 44.8792C83.3645 40.2151 86.167 35.69 89.5131 31.7161C93.4951 26.9879 98.2596 23.0155 102.379 20.5221C111.597 14.9438 140.478 14.9438 149.695 20.5221C153.815 23.0155 158.581 26.9879 162.561 31.7161C165.909 35.69 168.71 40.2151 170.134 44.8792C170.694 46.7137 171.149 48.2928 171.535 49.6254C173.004 54.7241 173.355 55.9357 177.305 62.0668C180.58 67.1462 182.43 71.74 183.128 75.8797C184.323 83.061 182.083 88.8261 177.704 93.3855C173.486 97.7807 167.281 100.991 160.32 103.231C140.229 109.693 111.832 109.693 91.7542 103.231ZM104.184 23.5294C100.338 25.8569 95.8916 29.5604 92.1827 33.9675C89.1129 37.6112 86.5567 41.721 85.2816 45.895C84.6844 47.858 84.2559 49.3385 83.8961 50.5875C82.3014 56.115 81.9207 57.4311 77.7132 63.9626C74.7076 68.6252 73.0189 72.7768 72.4052 76.4563C71.4123 82.4052 73.2712 87.1798 76.8949 90.9549C80.6799 94.8974 86.3776 97.8195 92.8247 99.8946C111.19 105.803 140.877 105.803 159.234 99.8946C165.682 97.8195 171.381 94.8974 175.164 90.9549C178.79 87.1798 180.648 82.4052 179.656 76.4563C179.042 72.7738 177.353 68.6252 174.348 63.9626C170.139 57.4311 169.759 56.1165 168.165 50.5875C167.805 49.3385 167.378 47.858 166.778 45.895C165.504 41.721 162.946 37.6112 159.878 33.9675C156.168 29.5604 151.723 25.8569 147.877 23.5294C140.386 18.9968 111.674 18.9968 104.184 23.5294Z" fill="#2A3335"/>
<path fill-rule="evenodd" clip-rule="evenodd" d="M154.153 87.2813C154.153 87.2813 174.469 95.1319 178.574 106.032C182.678 116.931 172.258 122.419 165.561 122.114C158.865 121.809 145.494 113.129 141.902 101.991C138.309 90.8518 139.753 85.3571 144.67 81.7837C149.587 78.2102 149.994 80.8604 150.895 81.7837C151.795 82.7069 154.153 87.2813 154.153 87.2813Z" fill="#EEEDED"/>
<path fill-rule="evenodd" clip-rule="evenodd" d="M177.595 103.978C177.979 104.636 178.307 105.325 178.578 106.038C180.626 111.468 179.065 115.555 176.155 118.252C174.762 119.355 173.244 120.289 171.632 121.035C169.583 121.84 167.43 122.205 165.565 122.12C158.87 121.821 145.494 113.135 141.901 101.997C140.08 96.3495 139.553 92.1531 140.119 88.9217C140.365 89.3791 140.563 89.8613 140.708 90.3603C142.028 95.0363 151.819 113.888 165.364 113.068C178.909 112.248 173.836 100.619 173.836 100.619C175.166 101.65 176.422 102.772 177.595 103.978Z" fill="#B7C8DB"/>
<path fill-rule="evenodd" clip-rule="evenodd" d="M168.762 96.4526C168.66 96.7514 166.783 99.4509 169.06 101.635C171.337 103.819 173.474 103.77 173.474 106.514C173.474 109.259 178.749 109.257 179.206 106.565C179.663 103.873 168.754 96.4526 168.754 96.4526" fill="#767474"/>
<path fill-rule="evenodd" clip-rule="evenodd" d="M174.305 108.053C175.628 108.966 178.155 108.686 178.978 107.228C178.865 106.837 178.731 106.438 178.578 106.033C178.307 105.321 177.979 104.632 177.596 103.973C176.422 102.769 175.166 101.649 173.836 100.621C173.836 100.621 175.565 104.59 174.305 108.054" fill="#545454"/>
<path fill-rule="evenodd" clip-rule="evenodd" d="M144.665 106.108C144.665 106.108 146.846 101.889 149.592 103.516C152.338 105.143 153.08 105.495 154.938 104.76C156.795 104.025 158.775 103.922 158.115 106.362C157.455 108.801 155.781 110.376 156.898 112.052C158.015 113.728 161.21 116.168 159.839 118.811C158.469 121.454 146.402 110.935 144.671 106.112" fill="#767474"/>
<path fill-rule="evenodd" clip-rule="evenodd" d="M144.665 106.108C144.665 106.108 146.034 103.462 147.963 103.169C150.352 106.157 153.235 108.97 156.517 110.835C156.513 111.27 156.644 111.695 156.892 112.052C158.007 113.73 161.204 116.168 159.833 118.811C158.463 121.454 146.396 110.935 144.665 106.112" fill="#545454"/>
<path fill-rule="evenodd" clip-rule="evenodd" d="M146.538 27.3613C147.528 36.4489 160.677 39.5996 166.132 32.3152C172.981 23.1694 172.6 6.40003 167.655 2.81759C163.344 -0.303233 157.379 4.16212 154.191 7.78938C148.698 14.0519 146.109 23.4189 146.538 27.3599" fill="#F3902C"/>
<path fill-rule="evenodd" clip-rule="evenodd" d="M146.538 27.3613C146.597 27.9037 146.702 28.44 146.853 28.9643C147.099 29.671 147.262 30.0937 147.283 30.1445V30.152C147.293 30.1132 147.683 28.6058 150.925 19.4211C154.209 10.1095 163.008 1.90031 166.814 5.94288C170.62 9.98546 167.667 29.8457 167.649 29.9578C172.885 20.546 172.197 6.1102 167.649 2.81759C163.338 -0.303232 157.373 4.16212 154.186 7.78938C148.693 14.0519 146.103 23.4189 146.532 27.3599" fill="#F1CB68"/>
<path fill-rule="evenodd" clip-rule="evenodd" d="M146.538 27.3613C147.528 36.4489 160.677 39.5996 166.132 32.3152C172.981 23.1694 172.6 6.40003 167.655 2.81759C167.36 2.6048 167.046 2.4207 166.717 2.26782C166.332 11.0432 164.585 27.9036 156.849 29.4185C151.886 30.391 148.607 28.0739 146.527 25.5208C146.477 26.1335 146.481 26.7493 146.538 27.3613Z" fill="#EE3B28"/>
<path fill-rule="evenodd" clip-rule="evenodd" d="M167.651 29.9578C172.888 20.546 172.199 6.11021 167.651 2.81759C167.357 2.6048 167.043 2.4207 166.714 2.26782C166.667 3.30013 166.603 4.44448 166.514 5.66053C166.619 5.74876 166.718 5.84304 166.812 5.94289C170.606 9.9765 167.665 29.8458 167.647 29.9578M146.538 27.3613C146.596 27.9037 146.702 28.44 146.853 28.9643C147.099 29.671 147.262 30.0937 147.283 30.1445V30.152C147.283 30.1281 147.432 29.5918 148.211 27.2568C147.596 26.7316 147.032 26.1504 146.524 25.5208C146.475 26.1335 146.479 26.7494 146.538 27.3613Z" fill="#F3902C"/>
<path d="M156.354 6.98419C156.354 7.00959 157.847 15.8238 171.036 13.665L171.599 17.125C154.982 19.8439 152.917 7.65198 152.911 7.61911L156.354 6.98419Z" fill="#8D2C30"/>
<path d="M149.137 18.9281C149.157 18.9595 156.016 29.786 168.184 26.2035L169.171 29.5679C154.472 33.9003 146.224 20.8747 146.2 20.8373L149.137 18.9281Z" fill="#8D2C30"/>
<path d="M149.332 35.3748C146.905 33.5567 145.159 30.893 144.795 27.5466C144.531 25.1279 145.243 20.9733 146.931 16.6753C148.275 13.2258 150.264 9.61199 152.874 6.63609C154.855 4.37727 157.852 1.81518 160.977 0.660372C163.588 -0.303213 166.291 -0.336079 168.683 1.39688V1.40435L168.738 1.44468L168.752 1.45962C171.632 3.61835 173.196 9.1922 173.061 15.4219C172.928 21.4379 171.269 28.2069 167.73 33.0921C167.669 33.1772 167.6 33.2699 167.527 33.367C165.419 36.183 162.352 37.671 159.146 38.0206C157.417 38.2045 155.668 38.0683 153.988 37.6187C152.306 37.1749 150.725 36.4144 149.328 35.3778M148.283 27.1791C148.534 29.4738 149.746 31.3113 151.435 32.5767C152.47 33.3423 153.642 33.9026 154.888 34.2275C156.157 34.5686 157.477 34.673 158.784 34.5352C161.079 34.2842 163.263 33.2385 164.735 31.268C164.786 31.2008 164.841 31.1261 164.901 31.0424C167.995 26.7638 169.453 20.7477 169.571 15.3562C169.685 10.1976 168.635 5.76065 166.678 4.27419L166.63 4.23833C165.346 3.30761 163.771 3.37036 162.191 3.95449C159.678 4.88222 157.189 7.03198 155.515 8.94122C153.201 11.5795 151.426 14.8288 150.204 17.9511C148.711 21.7397 148.071 25.2475 148.28 27.1761L148.283 27.1791Z" fill="#2A3335"/>
<path d="M166.553 40.3989C166.59 40.3839 179.21 35.3494 189.678 49.5118C193.661 54.9004 197.415 58.8175 200.219 61.7426C204.928 66.6562 207.429 69.2645 204.585 72.1135C202.699 74.0018 196.806 75.4838 190.848 75.2507C186.296 75.0715 181.591 73.9346 178.411 71.2873L180.651 68.5983C183.162 70.6898 187.105 71.5966 190.989 71.7505C196.047 71.9491 200.795 70.9512 202.099 69.6455C202.526 69.2182 200.849 67.4688 197.693 64.1762C194.824 61.1884 190.983 57.1772 186.863 51.6018C177.997 39.6026 167.829 43.6676 167.801 43.684L166.553 40.3989Z" fill="#2A3335"/>
<path d="M169.207 49.4192C169.226 49.4073 176.11 45.2885 182.467 52.9121C185.467 56.5094 190.388 61.3572 194.985 64.6887C198.2 67.0162 201.126 68.5729 202.784 68.2457L203.442 71.6922C200.705 72.2241 196.859 70.3791 192.928 67.5301C188.092 64.0284 182.924 58.9386 179.777 55.1649C175.33 49.8316 170.976 52.4459 170.967 52.4534L169.207 49.4192Z" fill="#2A3335"/>
<path d="M84.2586 43.6796C84.2288 43.6691 74.0623 39.6041 65.1948 51.5974C61.0754 57.1727 57.2351 61.178 54.3654 64.1718C51.209 67.4584 49.5338 69.2138 49.9608 69.6411C51.2643 70.9468 56.0123 71.9447 61.0709 71.746C64.9529 71.5966 68.8977 70.6868 71.4076 68.5938L73.6472 71.2829C70.4729 73.9301 65.7622 75.067 61.2097 75.2463C55.2583 75.4808 49.3636 73.9989 47.4733 72.109C44.629 69.2601 47.1284 66.6517 51.8376 61.7382C54.6431 58.8131 58.3968 54.896 62.3788 49.5074C72.8484 35.3405 85.468 40.375 85.5039 40.3944L84.2586 43.6796Z" fill="#2A3335"/>
<path d="M81.0964 52.4534C81.083 52.4459 76.7291 49.8315 72.2872 55.1649C69.1293 58.9385 63.9677 64.0283 59.133 67.5256C55.2002 70.3746 51.3555 72.2196 48.6172 71.6877L49.2712 68.2457C50.9285 68.5669 53.855 67.0162 57.0696 64.6887C61.6683 61.3572 66.588 56.5094 69.5892 52.912C75.9467 45.293 82.8284 49.4073 82.8478 49.4192L81.0964 52.4534Z" fill="#2A3335"/>
<path d="M133.379 76.6252C134.363 76.4863 135.363 76.7208 136.183 77.2825C138.981 79.1469 137.61 84.8627 135.248 83.8931C134.502 83.5944 135.18 81.1772 134.608 80.6423C134.532 80.4652 134.407 80.3137 134.248 80.2061C134.186 80.1559 134.113 80.1213 134.035 80.1052C133.957 80.0891 133.877 80.0919 133.8 80.1135C133.8 80.1135 132.844 80.3585 132.492 81.2071C132.14 82.0556 131.245 82.093 130.808 81.1682C130.37 80.2435 130.36 77.4752 133.371 76.6252" fill="#2A3335"/>
<path d="M73.4268 64.4736C73.4477 64.4571 80.7429 58.1602 100.85 65.0248C122.841 72.5333 129.219 72.5333 151.211 65.0248C171.312 58.1602 178.614 64.4571 178.635 64.4736L176.395 67.1791C176.377 67.1656 170.563 62.1221 152.332 68.3473C130.67 75.7423 121.388 75.7423 99.7246 68.3473C81.4939 62.1221 75.6858 67.1656 75.6634 67.1791L73.4268 64.4736Z" fill="#2A3335"/>
<path fill-rule="evenodd" clip-rule="evenodd" d="M105.523 27.3613C104.534 36.4519 91.3771 39.5996 85.9288 32.3152C79.08 23.1694 79.4607 6.40003 84.4073 2.81759C88.7179 -0.303232 94.6813 4.16212 97.869 7.78938C103.362 14.0519 105.953 23.4189 105.523 27.3599" fill="#F3902C"/>
<path fill-rule="evenodd" clip-rule="evenodd" d="M105.522 27.3613C105.464 27.9038 105.359 28.4402 105.207 28.9643C104.962 29.671 104.798 30.0937 104.779 30.1445V30.152C104.768 30.1132 104.379 28.6058 101.138 19.4211C97.8537 10.1095 89.0534 1.90031 85.2475 5.94288C81.4416 9.98546 84.3964 29.8457 84.4129 29.9578C79.1766 20.546 79.8649 6.1102 84.4129 2.81759C88.7234 -0.303232 94.6868 4.16212 97.8746 7.78938C103.368 14.0519 105.958 23.4189 105.528 27.3599" fill="#F1CB68"/>
<path fill-rule="evenodd" clip-rule="evenodd" d="M105.523 27.3613C104.534 36.4519 91.3771 39.5996 85.9288 32.3152C79.08 23.1694 79.4607 6.40003 84.4073 2.81759C84.7016 2.6048 85.0156 2.4207 85.345 2.26782C85.7287 11.0432 87.4771 27.9036 95.2128 29.4185C100.174 30.391 103.455 28.074 105.535 25.5208C105.585 26.1335 105.581 26.7494 105.523 27.3613Z" fill="#EE3B28"/>
<path d="M105.859 20.8373C105.834 20.8747 97.5862 33.8958 82.8867 29.5679L83.8751 26.2035C96.0424 29.789 102.902 18.9595 102.923 18.9281L105.859 20.8373Z" fill="#8D2C30"/>
<path fill-rule="evenodd" clip-rule="evenodd" d="M84.408 29.9578C79.1717 20.546 79.86 6.11021 84.408 2.81759C84.7023 2.6048 85.0163 2.4207 85.3456 2.26782C85.3904 3.30013 85.4546 4.44448 85.5457 5.66053C85.4408 5.74879 85.3411 5.84307 85.2471 5.94289C81.4532 9.9765 84.396 29.8458 84.4125 29.9578M105.526 27.3613C105.468 27.9038 105.363 28.4402 105.211 28.9643C104.966 29.671 104.802 30.0937 104.783 30.1445V30.152C104.783 30.1281 104.633 29.5918 103.856 27.2568C104.47 26.7312 105.035 26.1501 105.543 25.5208C105.59 26.1337 105.583 26.7497 105.522 27.3613H105.526Z" fill="#F3902C"/>
<path d="M99.15 7.61911C99.15 7.65497 97.0731 19.8469 80.4609 17.128L81.0238 13.668C94.2138 15.8238 95.7069 7.00959 95.7069 6.98419L99.15 7.61911Z" fill="#8D2C30"/>
<path d="M100.634 32.5677C102.321 31.3023 103.535 29.4648 103.785 27.1701C103.995 25.237 103.349 21.7337 101.867 17.9466C100.646 14.8243 98.8708 11.575 96.5565 8.93673C94.8767 7.03346 92.3893 4.8837 89.8838 3.95597C88.3027 3.37184 86.7275 3.3091 85.4434 4.23982L85.3941 4.27567C83.4367 5.7696 82.3885 10.1991 82.502 15.3576C82.62 20.7433 84.0772 26.7593 87.1724 31.0439C87.2321 31.1276 87.2874 31.2022 87.3381 31.2695C88.8133 33.24 90.9947 34.2857 93.2881 34.5367C94.595 34.6745 95.916 34.5701 97.1851 34.229C98.4301 33.9004 99.6008 33.3365 100.634 32.5677ZM107.271 27.5406C106.905 30.8945 105.155 33.5567 102.724 35.3748C101.327 36.4114 99.7451 37.172 98.063 37.6157C96.3827 38.0653 94.634 38.2016 92.9044 38.0176C89.7002 37.668 86.6334 36.18 84.5251 33.364L84.3206 33.0891C80.7864 28.2039 79.1231 21.4364 78.9917 15.4189C78.8544 9.1892 80.4191 3.61685 83.2993 1.45663L83.3127 1.44169L83.3695 1.40135V1.39388C85.7704 -0.336088 88.4729 -0.29874 91.0783 0.660363C94.2034 1.81517 97.2 4.37726 99.1813 6.63608C101.793 9.61199 103.776 13.2258 105.124 16.6753C106.813 20.9793 107.529 25.1279 107.266 27.5466L107.271 27.5406Z" fill="#2A3335"/>
<path d="M119.236 76.6251C118.252 76.4863 117.251 76.7208 116.431 77.2825C113.634 79.1469 115.003 84.8627 117.365 83.8931C118.112 83.5943 117.436 81.1771 118.006 80.6423C118.082 80.4658 118.207 80.3146 118.366 80.2061C118.428 80.1561 118.501 80.1217 118.579 80.1056C118.656 80.0894 118.737 80.0922 118.814 80.1135C118.814 80.1135 119.769 80.3585 120.122 81.207C120.474 82.0556 121.367 82.0929 121.804 81.1682C122.242 80.2434 122.252 77.4752 119.242 76.6251" fill="#2A3335"/>
<path d="M86.2434 99.9529C86.2165 99.9798 76.7443 109.166 75.723 124.928C74.9526 136.91 86.4494 140.543 92.3979 142.419C93.9731 142.917 95.2064 143.307 96.0022 143.78C96.6084 144.142 97.2549 144.614 97.9432 145.125C100.507 146.994 103.862 149.441 107.968 146.33C108.699 145.771 109.374 145.144 109.987 144.457C112.059 142.11 113.572 139.324 114.412 136.308C115.109 133.734 115.133 131.423 114.203 130.192C114.124 130.088 114.036 129.991 113.939 129.905C112.189 128.326 110.355 126.917 108.607 126.343C107.136 125.862 105.639 126.017 104.174 127.319C103.592 127.841 103.074 128.431 102.632 129.076C101.713 129.823 99.8977 135.414 98.1105 134.881C96.3232 134.348 99.2407 127.948 99.3169 127.776C100.008 126.629 100.863 125.589 101.855 124.689C104.423 122.408 107.073 122.15 109.692 122.998C112.026 123.76 114.234 125.436 116.287 127.287C116.55 127.525 116.79 127.787 117.004 128.07C118.638 130.23 118.77 133.651 117.803 137.22C116.813 140.766 115.032 144.04 112.595 146.798C111.833 147.651 110.993 148.429 110.085 149.124C103.913 153.799 99.3632 150.481 95.8873 147.945C95.29 147.508 94.7241 147.098 94.2045 146.788C93.7984 146.546 92.7114 146.205 91.3408 145.77C84.5054 143.611 71.2692 139.431 72.2292 124.706C73.3386 107.594 83.7633 97.4804 83.7932 97.4506L86.2434 99.9529Z" fill="#2A3335"/>
<path d="M100.196 119.774C100.381 120.06 100.578 120.338 100.785 120.606V120.614C101.83 121.981 103.142 123.071 104.676 123.191L104.405 126.685C101.216 126.436 98.8166 123.969 97.1697 121.428C97.0204 121.176 94.3 116.722 95.502 115.685C96.4531 114.883 99.0242 118.17 100.196 119.774Z" fill="#2A3335"/>
<path fill-rule="evenodd" clip-rule="evenodd" d="M208.734 143.913C208.734 143.913 207.759 197.562 211.72 201.671C215.681 205.781 240.624 209.44 244.577 194.061C248.531 178.683 247.987 144.19 241.231 141.551C234.475 138.913 211.123 137.132 208.734 143.913Z" fill="#3FB66B"/>
<path fill-rule="evenodd" clip-rule="evenodd" d="M208.734 143.913C208.734 143.913 207.759 197.562 211.72 201.672C215.643 205.747 240.205 209.37 244.471 194.436C240.574 195.738 235.846 196.477 230.606 195.59C216.199 193.152 213.137 168.971 215.078 150.67C215.825 143.616 219.081 140.444 222.796 139.209C216.028 139.34 209.894 140.61 208.736 143.913" fill="#18884C"/>
<path d="M210.454 202.886C205.991 198.255 206.984 144.042 206.986 143.885V143.597L207.077 143.337C207.111 143.238 207.131 143.187 207.138 143.163C208.724 139.097 215.583 137.567 223.01 137.453C229.987 137.346 237.611 138.419 241.375 139.741C241.582 139.814 241.745 139.872 241.86 139.918C245.733 141.43 247.87 150.141 248.539 160.641C249.273 172.162 248.425 186.096 246.265 194.495C245.601 197.19 244.189 199.642 242.191 201.568C238.914 204.727 234.323 206.282 229.637 206.797C225.337 207.245 220.992 206.939 216.797 205.892C213.884 205.145 211.571 204.051 210.454 202.883M210.48 144.279C210.405 148.807 209.688 197.036 212.979 200.451C213.666 201.165 215.368 201.908 217.661 202.498C221.451 203.44 225.375 203.713 229.258 203.306C233.254 202.858 237.116 201.591 239.768 199.036C241.295 197.561 242.373 195.684 242.878 193.622C244.952 185.562 245.758 172.072 245.045 160.854C244.447 151.619 242.995 144.122 240.589 143.18C240.44 143.12 240.313 143.074 240.226 143.044C236.773 141.831 229.654 140.848 223.056 140.952C217.046 141.046 211.608 141.952 210.48 144.282V144.279Z" fill="#12512D"/>
<path d="M116.361 115.242C112.155 115.242 109.036 115.721 108.259 116.234C104.933 118.454 104.934 124.634 104.934 124.652L101.436 124.639C101.436 124.616 101.425 116.571 106.311 113.309H106.318C107.587 112.462 112.014 111.644 117.437 111.747C117.848 111.756 118.266 111.768 118.689 111.786C117.896 112.657 116.91 113.905 116.359 115.239M99.5247 147.636C99.5247 147.656 97.733 154.263 101.339 158.197C103.616 160.681 111.57 164.718 119.916 167.129C126.038 168.896 132.258 169.748 136.368 168.376C136.619 168.292 136.863 168.192 137.101 168.078C141.687 165.893 146.43 158.276 149.784 150.351C153.137 142.425 155.057 134.4 154.021 131.293C153.993 131.214 153.96 131.138 153.923 131.064C153.276 129.704 150.665 127.464 146.905 125.064C146.557 123.935 145.929 121.927 145.273 120.001C145.554 120.151 145.829 120.317 146.102 120.474C151.796 123.771 156.028 127.325 157.089 129.554C157.183 129.76 157.265 129.972 157.336 130.187C158.629 134.071 156.644 143.11 153.006 151.716C149.367 160.323 144.032 168.671 138.608 171.255C138.24 171.428 137.862 171.577 137.476 171.703C132.612 173.327 125.651 172.437 118.938 170.498C110.041 167.918 101.37 163.422 98.7588 160.572C93.8435 155.209 96.128 146.768 96.1339 146.744L99.5247 147.636Z" fill="#2A3335"/>
<path d="M172.784 121.282C172.784 121.327 175.272 137.226 172.471 143.493C171.712 145.189 171.957 150.948 172.245 157.722C172.368 160.577 172.496 163.609 172.557 166.715C172.633 170.686 172.478 175.186 171.43 179.482C170.347 183.924 168.32 188.128 164.65 191.313C163.861 191.995 163.02 192.614 162.135 193.167C146.294 203.073 134.812 186.093 134.743 170.791L138.243 170.777C138.243 183.127 146.855 198.585 160.284 190.186C161.014 189.733 161.707 189.223 162.358 188.662C165.401 186.023 167.1 182.457 168.032 178.653C168.993 174.709 169.134 170.499 169.062 166.764C169.005 163.809 168.874 160.742 168.751 157.852C168.444 150.64 168.182 144.508 169.277 142.059C171.648 136.757 169.323 121.84 169.317 121.797L172.784 121.282Z" fill="#2A3335"/>
<path d="M87.5683 143.047C87.4876 143.561 87.4443 143.809 87.3846 144.146C86.1513 151.168 80.0237 186.021 90.5007 191.263C93.2525 192.639 96.6926 193.037 99.9759 192.623C103.316 192.2 106.439 190.947 108.448 189.037C110.127 187.44 111.479 184.603 112.545 181.333C114.054 176.702 114.952 171.279 115.41 167.118L118.896 167.502C118.417 171.845 117.475 177.522 115.88 182.418C114.65 186.188 113.014 189.533 110.862 191.577C108.309 194.005 104.461 195.584 100.41 196.095C96.488 196.591 92.3253 196.095 88.9315 194.392C81.0181 190.433 80.4656 174.821 81.5108 161.709C82.1588 153.571 83.4205 146.392 83.9221 143.54C84.0371 142.885 84.0894 142.609 84.1058 142.51L87.5683 143.047Z" fill="#2A3335"/>
<path d="M0.118874 123.857C-0.40968 113.25 0.8266 101 3.78292 92.2845C4.32044 90.6994 5.35366 89.1383 6.75567 87.6533C10.245 83.9573 16.1935 80.5825 22.4137 78.5403C28.6982 76.4817 35.3529 75.7616 40.1815 77.4035C41.7353 77.9061 43.1617 78.7399 44.3622 79.8475L44.3831 79.8684L44.395 79.8804L44.4159 79.8938C46.0479 81.5267 47.6395 96.451 47.8963 111.664C48.1532 126.876 47.1811 142.651 43.756 146.283C43.6604 146.384 43.6888 146.359 43.6634 146.384C40.3159 149.734 33.4955 151.181 26.4675 151.1C19.002 151.015 11.1498 149.218 6.99457 146.162C2.90648 143.159 0.633991 134.21 0.118874 123.857ZM7.10505 93.4094C4.2846 101.723 3.10954 113.479 3.61719 123.697C4.08453 133.082 5.89714 141.009 9.06549 143.338C12.6489 145.973 19.6903 147.521 26.4958 147.603C32.6802 147.675 38.5436 146.541 41.1789 143.903C41.2431 143.838 41.1476 143.945 41.2028 143.883C43.9158 141.01 44.6504 126.191 44.4055 111.725C44.1606 97.2593 43.0318 83.4793 41.9389 82.3857C41.1062 81.6397 40.1244 81.0795 39.0587 80.7424C34.9856 79.359 29.1341 80.0462 23.4947 81.8927C17.7926 83.7616 12.3981 86.7928 9.31035 90.0675C8.2413 91.185 7.47385 92.3248 7.10505 93.4094Z" fill="#12512D"/>
<path fill-rule="evenodd" clip-rule="evenodd" d="M43.2591 143.913C43.2591 143.913 44.2341 197.562 40.273 201.671C36.3118 205.781 11.3771 209.434 7.42194 194.061C3.46674 178.689 4.01171 144.19 10.768 141.551C17.5242 138.913 40.8806 137.132 43.2591 143.913Z" fill="#3FB66B"/>
<path fill-rule="evenodd" clip-rule="evenodd" d="M43.2585 143.913C43.2585 143.913 44.2335 197.562 40.2724 201.672C36.356 205.747 11.7946 209.37 7.52734 194.436C11.4258 195.738 16.1529 196.477 21.3922 195.59C35.8005 193.152 38.8614 168.971 36.9204 150.67C36.1738 143.616 32.9174 140.444 29.2026 139.209C35.9708 139.34 42.1044 140.61 43.263 143.913" fill="#18884C"/>
<path d="M39.0168 200.457C42.3016 197.039 41.5894 148.81 41.5147 144.285C40.3874 141.955 34.9451 141.049 28.9369 140.958C22.3404 140.857 15.2214 141.84 11.7664 143.05C11.6798 143.08 11.5588 143.126 11.405 143.186C8.99816 144.125 7.53792 151.625 6.94964 160.86C6.23445 172.078 7.04071 185.568 9.11462 193.628C9.62063 195.69 10.6994 197.567 12.2262 199.042C14.8765 201.597 18.7391 202.87 22.7361 203.312C26.6193 203.719 30.5437 203.446 34.3329 202.504C36.6233 201.906 38.327 201.171 39.0153 200.457M45.0071 143.885C45.0071 144.034 46.003 198.25 41.5401 202.886C40.4158 204.054 38.106 205.145 35.1974 205.895C31.0025 206.942 26.6571 207.248 22.3569 206.8C17.67 206.282 13.0788 204.727 9.80144 201.571C7.80505 199.645 6.39358 197.192 5.72978 194.498C3.56928 186.099 2.71971 172.165 3.45431 160.644C4.12023 150.14 6.25684 141.43 10.1299 139.918C10.2449 139.872 10.4076 139.814 10.6152 139.741C14.3778 138.418 22.0015 137.35 28.9802 137.453C36.4083 137.567 43.2661 139.097 44.8518 143.163C44.8592 143.181 44.8802 143.238 44.9145 143.337L45.0056 143.596L45.0071 143.885Z" fill="#12512D"/>
<path d="M149.258 127.925C151.797 129.737 153.039 131.496 152.509 132.925C151.843 134.718 148.731 135.089 144.24 134.231C140.555 133.529 135.674 132.129 130.465 130.197L130.395 130.171H130.383C125.157 128.228 120.528 126.1 117.255 124.217C113.29 121.934 111.168 119.626 111.832 117.834C112.21 116.815 113.378 116.256 115.14 116.12L115.232 118.494L116.848 118.968C114.556 118.509 115.146 119.003 115.126 119.056C115.107 119.108 116.619 119.818 118.998 121.182C122.054 122.94 126.475 124.969 131.54 126.858L131.61 126.884C136.695 128.771 141.394 130.126 144.881 130.79C147.568 131.304 149.19 131.766 149.21 131.709C149.231 131.652 148.504 131.322 147.269 130.664C147.269 130.664 148.751 129.637 149.248 127.934" fill="#2A3335"/>
<path d="M112.911 118.585C112.922 118.558 116.471 109.26 120.775 109.82C123.463 110.168 123.896 111.48 123.693 113.052C123.653 113.339 123.589 113.623 123.502 113.9H123.523C125.199 114.114 126.807 114.317 126.807 117.232C126.807 118.772 126.337 119.939 125.596 120.887C124.916 121.761 124.062 122.366 123.164 122.897C122.689 123.177 122.716 123.331 122.716 123.331L119.245 123.78C119.245 123.772 118.891 121.341 121.381 119.87C121.968 119.523 122.504 119.157 122.84 118.726C123.248 118.203 123.542 117.426 123.09 117.369C122.268 117.264 121.425 117.157 120.623 116.414C119.508 115.379 119.708 114.362 120.015 113.335C118.449 113.961 116.19 119.822 116.184 119.84L112.911 118.585Z" fill="#2A3335"/>
<path d="M123.253 114.599C123.01 114.586 122.874 114.522 122.975 114.387C123.395 113.826 123.85 113.293 124.339 112.792C126.144 110.962 128.99 109.096 131.716 111.789C134.148 114.193 133.681 115.823 133.06 117.075L133.163 117.127C134.822 117.982 136.852 119.027 136.415 122.057C136.137 123.977 134.547 125.442 133.146 126.732C132.561 127.271 131.217 126.625 131.637 127.18L128.837 129.295C127.344 127.313 128.928 125.849 130.778 124.15C131.749 123.254 132.851 122.241 132.948 121.563C133.03 121.005 132.222 120.59 131.564 120.249C130.831 119.873 130.175 119.535 129.694 118.876C128.788 117.634 129.217 116.84 129.739 115.871C129.908 115.56 130.132 115.145 129.27 114.295C128.642 113.673 127.579 114.514 126.849 115.255C126.464 115.653 126.105 116.074 125.773 116.518C125.227 117.235 124.921 117.648 123.78 117.288M123.78 117.288C122.657 116.975 122.18 116.208 122.583 115.033L124.245 115.603M124.486 114.752C124.455 114.659 124.429 114.564 124.409 114.468C124.03 114.565 123.64 114.611 123.249 114.605L124.294 115.409L124.239 115.603M124.5 114.811L124.48 114.752L124.294 115.409H124.301L124.239 115.599L124.8 115.792M125.046 115.875C124.819 115.544 124.635 115.185 124.5 114.807L124.301 115.405L124.8 115.787L125.046 115.875Z" fill="#2A3335"/>
<path d="M137.716 128.971C137.716 128.971 138.839 127.849 138.329 125.584C137.836 123.402 134.833 122.54 134.824 122.538L135.813 119.174C135.828 119.174 140.792 120.597 141.745 124.816C142.679 128.955 140.234 131.408 140.226 131.415L137.716 128.971Z" fill="#2A3335"/>
<path d="M138.147 122.919C138.162 122.898 143.587 115.457 147.514 120.938L147.633 121.104C149.057 123.195 149.562 125.902 149.45 128.257C149.331 130.797 148.436 133.07 147.143 133.997H147.122L147.093 134.017L145.084 131.167L145.098 131.157C145.546 130.834 145.877 129.621 145.949 128.107C146.029 126.412 145.695 124.504 144.735 123.097C144.669 123 144.699 123.039 144.668 122.995C143.572 121.465 140.977 125.008 140.969 125.018L138.147 122.919Z" fill="#2A3335"/>
<path d="M130.475 111.473C130.496 111.456 137.768 105.71 141.132 110.201C142.74 112.351 142.457 113.849 142.043 114.967C143.134 115.601 144.132 116.381 145.011 117.285C146.255 118.563 147.058 120.048 146.803 121.17L143.387 120.4C143.417 120.266 142.982 120.231 142.491 119.735C141.744 118.965 140.769 118.212 139.968 117.858C137.519 116.773 137.959 115.699 138.603 114.123C138.763 113.731 138.985 113.188 138.324 112.303C137.12 110.696 132.634 114.223 132.62 114.232L130.475 111.473Z" fill="#2A3335"/>
<path d="M119.917 110.57L119.935 110.51C120.243 109.502 120.664 108.532 121.191 107.62C122.385 105.639 124.247 104.034 126.908 105.633C130.472 107.784 130.718 111.734 130.72 111.744L127.211 111.979C127.134 111.298 126.903 110.643 126.535 110.064C126.167 109.485 125.672 108.998 125.088 108.64C124.838 108.491 124.48 108.939 124.192 109.432C123.809 110.102 123.503 110.814 123.279 111.553L123.259 111.62L119.917 110.57Z" fill="#2A3335"/>
<path d="M125.997 199.626L41.5762 199.58V196.078L125.997 196.126L210.418 196.078V199.58L125.997 199.626Z" fill="#12512D"/>
<path d="M169.721 120.112C169.748 120.101 178.966 116.643 178.58 109.393C178.43 106.671 175.032 102.981 170.727 99.4449C163.583 93.5752 154.29 88.4331 152.362 88.227L152.733 84.7386C155.024 84.9851 165.351 90.4992 172.946 96.7394C177.921 100.828 181.867 105.341 182.073 109.215C182.599 119.038 170.999 123.381 170.966 123.393L169.721 120.112Z" fill="#2A3335"/>
<path d="M151.452 86.4985C151.199 83.7915 150.548 80.9277 148.933 80.5228C148.412 80.3929 147.071 80.9426 145.624 81.8674C144.28 82.7279 142.993 83.8931 142.306 85.154C141.172 87.2455 140.704 89.7464 140.682 92.1142C140.654 95.005 141.255 97.6179 142.103 99.0177C142.533 99.7273 142.611 99.8588 142.701 100.023C146.347 106.178 157.956 125.789 170.302 119.963L171.795 123.134C156.565 130.327 143.714 108.625 139.693 101.823C139.338 101.226 139.213 101.005 139.116 100.845C137.969 98.9504 137.152 95.6265 137.187 92.1023C137.215 89.2041 137.8 86.1161 139.223 83.4943C140.212 81.6717 141.951 80.0582 143.734 78.9243C145.941 77.5111 148.388 76.7731 149.788 77.1316C154.129 78.2177 154.95 85.4095 155.075 89.2743C155.075 89.2997 154.817 90.7264 154.197 91.6795C152.582 94.5045 151.553 87.3815 151.456 86.515L151.452 86.4985Z" fill="#2A3335"/>
<path fill-rule="evenodd" clip-rule="evenodd" d="M131.028 94.7719C130.036 97.809 127.117 98.0585 126.975 97.3549C126.833 96.6512 128.51 94.9004 128.737 93.1719C128.964 91.4434 127.344 88.3913 127.768 88.0208C127.955 87.8595 128.276 87.9088 128.579 88.0208C130.799 88.8096 131.652 92.8671 131.028 94.7794" fill="#2A3335"/>
<path fill-rule="evenodd" clip-rule="evenodd" d="M130.411 92.0828C130.411 92.0828 133.176 92.2651 135.553 91.6107C137.93 90.9564 138.287 90.444 138.287 90.444C138.287 90.444 139.39 92.159 136.461 93.3407C133.531 94.5224 130.297 94.5224 129.954 93.6395C129.61 92.7566 130.411 92.0768 130.411 92.0768" fill="#2A3335"/>
</svg>
