<svg width="332" height="148" viewBox="0 0 332 148" fill="none" xmlns="http://www.w3.org/2000/svg">
<g clip-path="url(#clip0_483_297)">
<path d="M198.64 147.16V68.9C198.64 53.04 189.02 44.2 174.46 44.2C159.9 44.2 150.28 53.04 150.28 68.9V147.16H99.32V68.9C99.32 53.04 89.96 44.2 75.4 44.2C60.84 44.2 50.96 53.04 50.96 68.9V147.16H0V0H50.96V20.54C59.28 8.84 73.58 0 93.34 0C115.18 0 132.34 9.88 141.96 26.78C151.84 11.96 169 0 190.58 0C227.5 0 249.6 23.92 249.6 62.14V147.16H198.64Z" fill="#0E0E0E"/>
<path d="M331.86 117.54C331.86 134.26 320.16 147.16 302.22 147.16C284.28 147.16 272.32 134.26 272.32 117.54C272.32 100.82 284.02 87.62 302.22 87.62C320.42 87.62 331.86 100.82 331.86 117.54Z" fill="#23C06B"/>
</g>
<defs>
<clipPath id="clip0_483_297">
<rect width="331.86" height="147.16" fill="white"/>
</clipPath>
</defs>
</svg>
