<svg xmlns="http://www.w3.org/2000/svg" viewBox="0 0 85.63 86.78">
  <g style="isolation: isolate">
    <g id="Layer_2" data-name="Layer 2">
      <g id="OBJECT">
        <g>
          <g>
            <g>
              <path d="M85.63,44A42.81,42.81,0,0,1,0,44.38c0-.14,0-.27,0-.41C0,20.32,19.17,10.18,42.82,10.18l1.74,0c17.19.37,31.78,6.25,37.94,19A33.56,33.56,0,0,1,85.63,44Z" style="fill: #23c06b"/>
              <path d="M62.46,42.42a29.42,29.42,0,1,1-58.84,0C3.62,26.18,16.79,19.21,33,19.21S62.46,26.18,62.46,42.42Z" style="fill: #23c06b"/>
              <path d="M82.5,29.18c-6.16-12.73-20.75-18.61-37.94-19l-1.74,0C19.17,10.18,0,20.32,0,44c0,.14,0,.27,0,.41A42.81,42.81,0,0,0,85.63,44,33.56,33.56,0,0,0,82.5,29.18ZM39.29,81.36a38.84,38.84,0,0,1-9.21-1.11A38.36,38.36,0,0,1,1,44.29c0-.41,0-.84,0-1.26C1,21.86,18.12,12.79,39.29,12.79c1.49,0,3,0,4.4.14C56.28,13.71,67,18,72.86,26.46h0c3,4.37,4.75,9.86,4.75,16.57A38.33,38.33,0,0,1,39.29,81.36Z" style="fill: #23c06b"/>
            </g>
            <g>
              <path d="M47.88,19.05s-8.51,2.17-16-.82h0a16,16,0,0,1-8.86-8.51A26,26,0,0,1,21,.21a27.36,27.36,0,0,1,9.83.55A21.79,21.79,0,0,1,41.9,7.08,25.84,25.84,0,0,1,47.88,19.05Z" style="fill: #5aba4e"/>
              <path d="M40.53,11.7S27.46,15,26.88,2.13C26.88,2.13,37.86.3,40.53,11.7Z" style="fill: #959695;mix-blend-mode: overlay"/>
              <path d="M39.1,5.92c.19.2.39.4.58.62L40,6.9A13.76,13.76,0,0,1,41.42,7l.48.07A.76.76,0,0,1,41.81,7a9.75,9.75,0,0,1-.94-.29l-.3-.11-.21-.08-.28-.12-.17-.07-.07,0-.09,0-.29-.14Zm0,0c.19.2.39.4.58.62L40,6.9A13.76,13.76,0,0,1,41.42,7l.48.07A.76.76,0,0,1,41.81,7a9.75,9.75,0,0,1-.94-.29l-.3-.11-.21-.08-.28-.12-.17-.07-.07,0-.09,0-.29-.14Zm0,0c.19.2.39.4.58.62L40,6.9A13.76,13.76,0,0,1,41.42,7l.48.07A.76.76,0,0,1,41.81,7a9.75,9.75,0,0,1-.94-.29l-.3-.11-.21-.08-.28-.12-.17-.07-.07,0-.09,0-.29-.14Zm0,0c.19.2.39.4.58.62L40,6.9A13.76,13.76,0,0,1,41.42,7l.48.07A.76.76,0,0,1,41.81,7a9.75,9.75,0,0,1-.94-.29l-.3-.11-.21-.08-.28-.12-.17-.07-.07,0-.09,0-.29-.14Zm0,0c.19.2.39.4.58.62L40,6.9A13.76,13.76,0,0,1,41.42,7l.48.07A.76.76,0,0,1,41.81,7a9.75,9.75,0,0,1-.94-.29l-.3-.11-.21-.08-.28-.12-.17-.07-.07,0-.09,0-.29-.14Zm4.5,9-.14,0-.27.06-.23,0-.22,0-.16,0,0,.23a1.64,1.64,0,0,0,.38.1l.39.38h.06a1.48,1.48,0,0,1,0-.21,19.07,19.07,0,0,1,0-.31v0s0,0,0-.06ZM21.08.2H21c0,.18,0,.34,0,.51V.78l0,.44c0,.07,0,.13,0,.2V1.5c0,.17,0,.33.05.49s0,.35.05.53l.06.46a1.1,1.1,0,0,0,0,.18c0,.31.09.62.14.92l0,.12c0,.14.05.29.08.44s0,.08,0,.12,0,.26.08.38.11.52.17.76c0,.07,0,.15,0,.22a.94.94,0,0,1,0,.16l.06.22c0,.13.07.26.11.38a2.29,2.29,0,0,0,.08.28c0,.11.06.22.1.34s.05.13.07.2a.93.93,0,0,0,0,.13l.18.53h0a.88.88,0,0,0,.05.15l.07.19.05.14,0,.11a.43.43,0,0,0,.05.12.78.78,0,0,0,.05.14l0,.09c.05.1.09.2.13.3h0l.06.12,0,0c0,.1.09.21.14.31l0,.06h0a.67.67,0,0,0,.06.12h0l.18.35c0,.1.1.21.16.31s.23.41.35.61l.06.1,0,0c.16.27.34.54.52.8l0,0,.28.39L25,13l.07.09c.12.15.23.3.36.45.27.33.56.66.86,1l.22.23.22.22h0l.11.1.15.15.5.43A15.41,15.41,0,0,0,30,17.32h0l.33.17.15.08.4.19.26.13.19.08.59.25.36.14.08,0,.28.1c.25.09.49.18.74.25l.17.05.12,0,.2.05.26.08.36.09.21.05.34.08.09,0,.32.07.11,0,.43.09.39.06h0l.22,0,.12,0h0l.24,0h.27l.13,0,.34,0,.3,0,.33,0h.06l.36,0,.59,0h2.79l.43,0h.13l.39,0h.68l.27,0h0l.65-.08H45l.41-.06h0l.22,0h.14l.14,0H46l.43-.07h.23l.42-.08h0l.09,0h0l.18,0,.07,0h.07l.11,0h.11l0,0h.12s0-.05,0-.08a2.86,2.86,0,0,0-.07-.28l0-.12c0-.09,0-.19-.07-.29h0a.08.08,0,0,1,0,0v0h0l0-.13c0-.06,0-.12,0-.18h0v0a.65.65,0,0,0,0-.13h0l0-.12s0,0,0,0a0,0,0,0,1,0,0l0-.08v0s0,0,0-.05h0l0-.11h0v0h0l0-.08v0h0a.06.06,0,0,0,0,0s0,0,0,0,0,0,0,0l0-.07h0a.74.74,0,0,0,0-.14l0-.07,0-.06s0,0,0,0v0h0c0-.05,0-.1-.05-.15v0s0,0,0,0,0,0,0-.06l0-.1,0-.06s0,0,0,0a0,0,0,0,0,0,0h0a1.18,1.18,0,0,0-.07-.2l0,0v0a.06.06,0,0,1,0,0,0,0,0,0,1,0,0l0-.08h0l-.06-.17h0v0s0-.08,0-.11h0a.24.24,0,0,0,0-.08h0c0-.05,0-.09,0-.13l-.11-.3a2.6,2.6,0,0,1-.1-.25.59.59,0,0,1,0-.08.14.14,0,0,0,0-.06l0,0,0-.08v0a1.42,1.42,0,0,1-.08-.18l0,0a.41.41,0,0,0,0-.08l0,0-.07-.17h0l0,0a1.6,1.6,0,0,0-.1-.23,1,1,0,0,0-.07-.15v0a.05.05,0,0,0,0,0L45.82,13v0l-.1-.21a.93.93,0,0,0-.05-.1.05.05,0,0,0,0,0,.08.08,0,0,0,0,0l-.1-.21v0l-.12-.22-.15-.3-.14-.25-.18-.32h0a.25.25,0,0,1,0-.07l-.19-.32h0l0,0s0-.1-.08-.14l-.08-.14-.21-.33v0l-.08-.11h0l0-.09h0a.44.44,0,0,1-.08-.11l-.19-.27h0l-.17-.24c-.08-.13-.17-.25-.26-.37l0,0a1.09,1.09,0,0,0-.13-.17l-.1-.14-.1-.13-.2-.25-.13-.17-.11-.12a1.47,1.47,0,0,0-.1-.13s0,0,0,0l0,0h0v0l-.2-.22,0-.06-.31-.35A.76.76,0,0,1,41.81,7l-.49-.51-.25-.24c-.23-.23-.46-.44-.7-.65L40,5.28l-.18-.14-.32-.26-.1-.08-.14-.11,0,0L39,4.47l-.44-.31h0c-.51-.35-1-.67-1.54-1L36.65,3c-.58-.33-1.16-.61-1.74-.87l-.43-.18-.18-.07-.24-.1-.07,0-.12,0-.24-.09-.35-.13L33,1.39l-.45-.15-.1,0-.55-.16L31.65,1,31.38.9,30.84.76h0L30.47.68,30.11.6,29.64.5l-.23,0-.23,0L29,.38l-.23,0-.11,0H28.5l-.22,0-.22,0-.22,0-.22,0-.22,0L27,.12l-.34,0H26.5l-.73,0-.38,0H22.33l-.23,0h-1Zm3.39,1.18a19.55,19.55,0,0,1,5.73.12l1.19.24a17,17,0,0,1,1.83.53,15.36,15.36,0,0,1,3.16,1.5h0c.17.11.35.22.53.35a14.64,14.64,0,0,1,1.89,1.52l.29.28c.19.2.39.4.58.62L40,6.9a16,16,0,0,1,1.92,2.9l.05.09a3.59,3.59,0,0,1,.17.34v0l.09.19c.06.11.11.23.17.35.16.35.31.72.45,1.09,0,.13.1.26.14.39s.16.44.23.67.17.53.24.8h0c.05.17.09.34.14.52l.08.33a.36.36,0,0,1,0,.1.19.19,0,0,1,0,.07c0,.05,0,.1,0,.15l-.1,0-.07,0-.14,0-.27.06-.23,0-.22,0-.16,0-.33,0-.38.05-.51.07-.66.06-.6,0H40c-.4,0-.83,0-1.27,0H38.5l-.67,0a18.42,18.42,0,0,1-1.93-.17l-.16,0a15,15,0,0,1-4-1.16h0c-.15-.07-.29-.13-.43-.21l-.06,0-.2-.11a9.68,9.68,0,0,1-1-.61l-.2-.13a10.29,10.29,0,0,1-1.48-1.26c-.19-.19-.38-.39-.56-.6h0A10.76,10.76,0,0,1,26.69,9.6a.83.83,0,0,1-.08-.12v0l0,0-.33-.6c-.13-.26-.26-.54-.39-.82A19.16,19.16,0,0,1,24.47,1.38ZM39.1,5.92c.19.2.39.4.58.62L40,6.9A13.76,13.76,0,0,1,41.42,7l.48.07A.76.76,0,0,1,41.81,7a9.75,9.75,0,0,1-.94-.29l-.3-.11-.21-.08-.28-.12-.17-.07-.07,0-.09,0-.29-.14Zm0,0c.19.2.39.4.58.62L40,6.9A13.76,13.76,0,0,1,41.42,7l.48.07A.76.76,0,0,1,41.81,7a9.75,9.75,0,0,1-.94-.29l-.3-.11-.21-.08-.28-.12-.17-.07-.07,0-.09,0-.29-.14Zm0,0c.19.2.39.4.58.62L40,6.9A13.76,13.76,0,0,1,41.42,7l.48.07A.76.76,0,0,1,41.81,7a9.75,9.75,0,0,1-.94-.29l-.3-.11-.21-.08-.28-.12-.17-.07-.07,0-.09,0-.29-.14Zm0,0c.19.2.39.4.58.62L40,6.9A13.76,13.76,0,0,1,41.42,7l.48.07A.76.76,0,0,1,41.81,7a9.75,9.75,0,0,1-.94-.29l-.3-.11-.21-.08-.28-.12-.17-.07-.07,0-.09,0-.29-.14Zm0,0c.19.2.39.4.58.62L40,6.9A13.76,13.76,0,0,1,41.42,7l.48.07A.76.76,0,0,1,41.81,7a9.75,9.75,0,0,1-.94-.29l-.3-.11-.21-.08-.28-.12-.17-.07-.07,0-.09,0-.29-.14Zm0,0c.19.2.39.4.58.62L40,6.9A13.76,13.76,0,0,1,41.42,7l.48.07A.76.76,0,0,1,41.81,7a9.75,9.75,0,0,1-.94-.29l-.3-.11-.21-.08-.28-.12-.17-.07-.07,0-.09,0-.29-.14Z" style="fill: #83cfad;mix-blend-mode: multiply"/>
              <path d="M41.9,7.08A13.71,13.71,0,0,0,40,6.9h-.57L38.53,7a8.38,8.38,0,0,0-5.16,2.26A6.8,6.8,0,0,0,32,11.12a8,8,0,0,0-.75,2.73,9.22,9.22,0,0,0,.18,2.92,10.32,10.32,0,0,0,.46,1.46,16,16,0,0,1-8.86-8.51,11,11,0,0,0,3.54-.26,7.91,7.91,0,0,0,2.14-.85l.1-.06a6.07,6.07,0,0,0,3.05-5,3.46,3.46,0,0,0-.22-1.15,6,6,0,0,0-.28-.63c-.17-.33-.37-.65-.55-1A21.79,21.79,0,0,1,41.9,7.08Z" style="fill: #959695;mix-blend-mode: overlay;opacity: 0.5"/>
              <g style="mix-blend-mode: screen">
                <g>
                  <path d="M35.08,5.35c-1-.53-1.64-1.28-1.43-1.67s1.19-.29,2.19.23,1.65,1.28,1.44,1.67S36.09,5.88,35.08,5.35Z" style="fill: #edeeef"/>
                  <path d="M32.46,3.72a.7.7,0,0,1,.65-1.24.71.71,0,0,1,.29,1A.69.69,0,0,1,32.46,3.72Z" style="fill: #edeeef"/>
                </g>
              </g>
              <path d="M28,4.73C29,5.25,30,5.81,31,6.4l1.17.71c.6.37,1.19.76,1.78,1.14l.28.2a3.28,3.28,0,0,1,.31.2c.73.5,1.45,1,2.17,1.54S38.28,11.36,39,12l.54.44c.63.5,1.24,1,1.85,1.58l.77.7.46.44.79.76.62.6.59.63.3.32h0l.79.84.09.1.73.85.07.08.1.12.17.2,0,.06L48,19.24l0,0-.14-.15s0,0-.05,0,0,0,0,0l-.07-.08-.23-.24-.15-.16-.09-.1-.08-.09L47,18.13l-.34-.37-.07-.07-.09-.09c-.38-.39-.78-.77-1.17-1.15l-.62-.62L44,15.25l-.36-.32-.3-.27c-.21-.2-.43-.39-.65-.58-.91-.75-1.8-1.51-2.74-2.2l-.06-.05c-1.57-1.19-3.18-2.32-4.85-3.37l0,0-.38-.24h0l-.45-.27c-.77-.47-1.54-.92-2.32-1.36l-.71-.39c-1-.55-2.08-1.07-3.14-1.55Z" style="fill: #44aa79;mix-blend-mode: multiply"/>
              <path d="M28.35,4.45c1,.49,1.95,1,2.9,1.58l.5.3c.88.52,1.75,1.08,2.6,1.64l.3.21h0l.37.25,0,0c1.42,1,2.8,2,4.13,3.07l.43.35h0l.3.25c.9.72,1.74,1.5,2.6,2.26v0l.65.62.6.58.62.6.6.63.91,1,.27.29.48.55.24.29.12.14,0,0,.07.08h0l.18.21.06.08,1.08-.45,0,0-.24-.26,0,0s0,0,0,0l0-.05-.16-.17,0,0-.09-.1h0l-.07-.08h0l-.06-.06h0L47.51,18l-.08-.09L47,17.42h0l-.56-.56-.62-.6h0l-.08-.08-.63-.61L44.4,15l0,0-.75-.67-.52-.46c-.86-.71-1.71-1.43-2.59-2.09l-.15-.11A63.26,63.26,0,0,0,35.08,8l-.33-.21-.18-.11c-1-.61-2-1.2-3.06-1.76l-.15-.08c-1-.52-2-1-3-1.46Z" style="fill: #44aa79"/>
            </g>
            <path d="M72.64,12.28l0,.06a2.83,2.83,0,0,1-3.68,1.56,1.69,1.69,0,0,1-.28-.12,19.22,19.22,0,0,0-5.49-2,12.73,12.73,0,0,0-5.63.17,13.94,13.94,0,0,0-5.17,2.69,17.6,17.6,0,0,0-2.19,2.13,16.55,16.55,0,0,0-1.8,2.43l-.05.08a1.39,1.39,0,0,1-1.91.48s0,0,0,0A1.4,1.4,0,0,1,45.86,18a16.72,16.72,0,0,1,.86-1.64c.3-.52.62-1,1-1.51A21.11,21.11,0,0,1,50,12.06,17.7,17.7,0,0,1,56.21,8a17.21,17.21,0,0,1,7.55-1.06A24.82,24.82,0,0,1,71,8.65l0,0A2.82,2.82,0,0,1,72.64,12.28Z" style="fill: #5b4217"/>
            <path d="M72.64,12.28C58.31,1.1,48.27,16.54,46.4,19.75A1.4,1.4,0,0,1,45.86,18a16.72,16.72,0,0,1,.86-1.64c.3-.52.62-1,1-1.51A21.11,21.11,0,0,1,50,12.06,17.7,17.7,0,0,1,56.21,8a17.21,17.21,0,0,1,7.55-1.06A24.82,24.82,0,0,1,71,8.65l0,0A2.82,2.82,0,0,1,72.64,12.28Z" style="fill: #8e6933"/>
          </g>
          <g>
            <path d="M60.7,56A19.76,19.76,0,0,1,53,71.7c-.43.34-.88.65-1.33.94a19.62,19.62,0,0,1-9,3.08c-.29,0-.58,0-.88,0s-.6,0-.9,0a19.71,19.71,0,0,1-3.28-.27c-.21,0-.41-.07-.62-.12a19.72,19.72,0,0,1-9.23-4.6l-.09-.07A19.77,19.77,0,0,1,21.12,56Z" style="fill: #282828"/>
            <path d="M21.12,56a19.77,19.77,0,0,0,6.57,14.73l.09.07A19.72,19.72,0,0,0,37,75.41c.21,0,.41.09.62.12a19.71,19.71,0,0,0,3.28.27c.3,0,.61,0,.9,0s.59,0,.88,0a19.62,19.62,0,0,0,9-3.08c.45-.29.9-.6,1.33-.94A19.76,19.76,0,0,0,60.7,56ZM51.29,68.36c-.31.33-.63.66-1,1A13.41,13.41,0,0,1,48.5,70.7a9.14,9.14,0,0,1-1.09.64A13.64,13.64,0,0,1,43,72.78a9,9,0,0,1-.91.1,11,11,0,0,1-1.16.05,13.77,13.77,0,0,1-3.48-.44l-.51-.14A13.71,13.71,0,0,1,32.3,70s0,0,0,0a14.18,14.18,0,0,1-2.22-2.16l-.19-.23a14,14,0,0,1-3-8.7H55A14,14,0,0,1,51.29,68.36Z"/>
            <g>
              <g style="mix-blend-mode: multiply">
                <g>
                  <path d="M43,73.49a9.79,9.79,0,0,1-.07,1.08.09.09,0,0,1,0,.05.14.14,0,0,1,0,.06.13.13,0,0,1,0,.06s0,0,0,0,0,.28-.07.42-.07.28-.1.42l0,.1c-.29,0-.58,0-.88,0s-.6,0-.9,0a19.71,19.71,0,0,1-3.28-.27c-.21,0-.41-.07-.62-.12a19.72,19.72,0,0,1-9.23-4.6l-.09-.07a7.05,7.05,0,0,1,.5-1.08,3.3,3.3,0,0,1,.18-.32,7.78,7.78,0,0,1,1.5-1.77,7.86,7.86,0,0,1,4.79-2h.44a7.85,7.85,0,0,1,5.08,1.84s0,0,0,0a10,10,0,0,1,.74.71l.08.09a7.85,7.85,0,0,1,1.76,3.31v0A8,8,0,0,1,43,72.78C43,73,43,73.25,43,73.49Z" style="fill: #c9b3a9"/>
                  <path d="M53,71.7c-.43.34-.88.65-1.33.94a19.62,19.62,0,0,1-9,3.08c-.29,0-.58,0-.88,0s-.6,0-.9,0a19.71,19.71,0,0,1-3.28-.27c0-.07,0-.14-.05-.21l-.09-.44c0-.09,0-.17-.05-.26h0a1.75,1.75,0,0,0,0-.24v0c0-.28,0-.58,0-.87a8.72,8.72,0,0,1,.05-.9s0-.07,0-.1,0-.09,0-.15A7.66,7.66,0,0,1,38.16,70h0a4.51,4.51,0,0,1,.31-.57,6.2,6.2,0,0,1,.49-.73c.16-.2.33-.41.5-.6l.08-.08s0,0,0,0h0a.57.57,0,0,1,.11-.11l.25-.25.27-.24.14-.1a7.89,7.89,0,0,1,8.94-.67c.19.11.36.22.53.34a8.36,8.36,0,0,1,1.49,1.36A7.77,7.77,0,0,1,53,71.7Z" style="fill: #c9b3a9"/>
                </g>
              </g>
              <g style="mix-blend-mode: multiply">
                <g>
                  <path d="M42.92,74.62s0,0,0,.06a.13.13,0,0,1,0,.06s0,0,0,0,0,.28-.07.42-.07.28-.1.42l0,.1c-.29,0-.58,0-.88,0s-.6,0-.9,0a19.71,19.71,0,0,1-3.28-.27c-.21,0-.41-.07-.62-.12a19.72,19.72,0,0,1-9.23-4.6l-.09-.07a7.05,7.05,0,0,1,.5-1.08,3.3,3.3,0,0,1,.18-.32,7.78,7.78,0,0,1,1.5-1.77,7.86,7.86,0,0,1,4.79-2h.44a7.85,7.85,0,0,1,5.08,1.84s0,0,0,0a10,10,0,0,1,.74.71,3.88,3.88,0,0,0-.47.32h0l-.22.18,0,0-.11-.09,0,0c-.19-.13-.37-.26-.57-.38a.27.27,0,0,0-.12-.06,5.2,5.2,0,0,0-2.53-.64h-.29a5.09,5.09,0,0,0-1.7.39h0a5.18,5.18,0,0,0-2,1.43h0c-.14.18-.28.35-.4.54l0,0a.21.21,0,0,1-.06.1s0,0,0,0a5.35,5.35,0,0,0-.64,1.58h0a14.5,14.5,0,0,0,4.75,2.53c.13,0,.26.08.39.12l.59.15a9.9,9.9,0,0,0,1.28.24,14.12,14.12,0,0,0,2.17.17c.28,0,.55,0,.83,0l.35,0h.18C42.46,74.69,42.7,74.66,42.92,74.62Z" style="fill: #c9b3a9"/>
                  <path d="M53,71.7c-.43.34-.88.65-1.33.94a19.62,19.62,0,0,1-9,3.08c-.29,0-.58,0-.88,0s-.6,0-.9,0a19.71,19.71,0,0,1-3.28-.27c0-.07,0-.14-.05-.21l-.09-.44a1.15,1.15,0,0,1,0-.26h0c0-.08,0-.16-.05-.24v0a9.9,9.9,0,0,0,1.28.24,14.12,14.12,0,0,0,2.17.17c.28,0,.55,0,.83,0l.35,0h.18c.24,0,.48,0,.7-.09h0a14.41,14.41,0,0,0,6-2.24,5.22,5.22,0,0,0-.39-1.68,5.46,5.46,0,0,0-1.86-2.34,5.35,5.35,0,0,0-5.71-.22,3.88,3.88,0,0,0-.47.32h0l-.22.18,0,0-.11-.09,0,0c-.19-.13-.37-.26-.57-.38l.08-.08s0,0,0,0h0a.57.57,0,0,1,.11-.11l.25-.25.27-.24.14-.1a7.89,7.89,0,0,1,8.94-.67c.19.11.36.22.53.34a8.36,8.36,0,0,1,1.49,1.36A7.77,7.77,0,0,1,53,71.7Z" style="fill: #c9b3a9"/>
                </g>
              </g>
              <g>
                <path d="M42.12,73.66a9.13,9.13,0,0,1-.07,1.06h0v0c0,.16,0,.31-.08.47s-.08.32-.12.46a.17.17,0,0,1,0,.1c-.29,0-.6,0-.9,0a19.71,19.71,0,0,1-3.28-.27c-.21,0-.41-.07-.62-.12a19.72,19.72,0,0,1-9.23-4.6,8.06,8.06,0,0,1,.53-1.06,7.58,7.58,0,0,1,1.75-2,7.4,7.4,0,0,1,4.18-1.58h.43A7.45,7.45,0,0,1,39.47,68l.08.09h0c.17.15.33.3.48.46l0,0,.09.1a7.44,7.44,0,0,1,1.74,3.22,5.83,5.83,0,0,1,.17,1A6.81,6.81,0,0,1,42.12,73.66Z" style="fill: #ff5545"/>
                <path d="M51.64,72.64a19.62,19.62,0,0,1-9,3.08c-.29,0-.58,0-.88,0s-.6,0-.9,0a19.71,19.71,0,0,1-3.28-.27c-.21,0-.41-.07-.62-.12h0a3.2,3.2,0,0,1-.1-.42c0-.16,0-.32-.07-.49a2.64,2.64,0,0,1,0-.28c0-.19,0-.36,0-.55a6.35,6.35,0,0,1,.08-1.07,2,2,0,0,1,0-.24,7.23,7.23,0,0,1,.71-2.1,6.66,6.66,0,0,1,.8-1.23h0l.34-.41.31-.31.26-.23.12-.11a6.55,6.55,0,0,1,.71-.53l.15-.09a7.32,7.32,0,0,1,3.92-1.12,7.47,7.47,0,0,1,4.28,1.34,7.71,7.71,0,0,1,1.79,1.77A7.45,7.45,0,0,1,51.64,72.64Z" style="fill: #ff5545"/>
              </g>
              <g style="mix-blend-mode: multiply">
                <path d="M42,74.74c0,.16,0,.31-.08.47s-.08.32-.12.46a.17.17,0,0,1,0,.1c-.29,0-.6,0-.9,0a19.71,19.71,0,0,1-3.28-.27c-.21,0-.41-.07-.62-.12a19.72,19.72,0,0,1-9.23-4.6,8.06,8.06,0,0,1,.53-1.06,7.58,7.58,0,0,1,1.75-2,7.4,7.4,0,0,1,4.18-1.58h.43A7.45,7.45,0,0,1,39.47,68l.08.09h0c.17.15.33.3.48.46l0,0,.09.1a3.85,3.85,0,0,0-.67.47l-.26-.2s0,0,0,0L39,68.72l-.19-.12a5,5,0,0,0-2.49-.66H36a4.91,4.91,0,0,0-.67.08h0a4.94,4.94,0,0,0-2.43,1.23,4.69,4.69,0,0,0-.48.52l0,0-.1.14L32,70.3a4.88,4.88,0,0,0-.62,1.53,13.73,13.73,0,0,0,4.49,2.41l.93.25.6.13h0l.59.1a13.7,13.7,0,0,0,2,.15h.79C41.27,74.83,41.66,74.79,42,74.74Z" style="fill: #ffa19c"/>
                <path d="M51.64,72.64a19.62,19.62,0,0,1-9,3.08c-.29,0-.58,0-.88,0s-.6,0-.9,0a19.71,19.71,0,0,1-3.28-.27c-.21,0-.41-.07-.62-.12h0a3.2,3.2,0,0,1-.1-.42c0-.16,0-.32-.07-.49l.6.13h0l.59.1a13.7,13.7,0,0,0,2,.15h.79c.39,0,.78-.07,1.16-.12l.18,0c.24,0,.48-.08.72-.14a13.56,13.56,0,0,0,4.72-1.95,5,5,0,0,0-.25-1.28,4.9,4.9,0,0,0-1.07-1.8,5.42,5.42,0,0,0-.8-.71,5,5,0,0,0-4.53-.6,5.31,5.31,0,0,0-.55.23h0l-.26.15h0a3.85,3.85,0,0,0-.67.47l-.26-.2s0,0,0,0L39,68.72l-.19-.12.31-.31.26-.23.12-.11a6.55,6.55,0,0,1,.71-.53l.15-.09a7.32,7.32,0,0,1,3.92-1.12,7.47,7.47,0,0,1,4.28,1.34,7.71,7.71,0,0,1,1.79,1.77A7.45,7.45,0,0,1,51.64,72.64Z" style="fill: #ffa19c"/>
              </g>
              <g style="opacity: 0.6000000000000001">
                <path d="M34,67.57c1.31.26,2.29.89,2.18,1.41s-1.25.73-2.56.47-2.28-.9-2.18-1.42S32.66,67.31,34,67.57Z" style="fill: #fff;mix-blend-mode: screen"/>
                <path d="M37.74,68.43a.91.91,0,0,1,.73,1.08.92.92,0,1,1-1.81-.36A.91.91,0,0,1,37.74,68.43Z" style="fill: #fff;mix-blend-mode: screen"/>
              </g>
            </g>
          </g>
          <g>
            <polygon points="15.94 15.95 23.53 24.27 34.69 22.73 29.13 32.52 34.05 42.66 23.01 40.4 14.89 48.2 13.63 37.01 3.69 31.7 13.95 27.04 15.94 15.95" style="fill: #ffc33e"/>
            <polygon points="18.41 24.48 21.61 27.99 26.31 27.34 23.96 31.46 26.03 35.73 21.38 34.78 17.96 38.07 17.43 33.35 13.25 31.11 17.57 29.15 18.41 24.48" style="fill: #adadad;mix-blend-mode: overlay"/>
            <path d="M34.69,22.73,23.53,24.27,15.94,16,14,27,3.69,31.7,13.63,37,14.89,48.2,23,40.4l11,2.26L29.13,32.52ZM22.27,37.84l-6,5.76-.92-8.25L8,31.43,15.6,28l1.46-8.17L22.66,26l8.22-1.14L26.78,32l3.62,7.47Z" style="fill: #ffe1a4;mix-blend-mode: multiply"/>
          </g>
          <g>
            <polygon points="66.47 15.95 58.87 24.27 47.71 22.73 53.28 32.52 48.36 42.66 59.4 40.4 67.52 48.2 68.78 37.01 78.71 31.7 68.45 27.04 66.47 15.95" style="fill: #ffc33e"/>
            <polygon points="64 24.48 60.8 27.99 56.1 27.34 58.44 31.46 56.37 35.73 61.02 34.78 64.44 38.07 64.97 33.35 69.16 31.11 64.84 29.15 64 24.48" style="fill: #adadad;mix-blend-mode: overlay"/>
            <path d="M53.28,32.52,48.36,42.66l11-2.26,8.12,7.8L68.78,37l9.93-5.31L68.45,27,66.47,16l-7.6,8.32L47.71,22.73Zm-1.28,7L55.62,32l-4.1-7.22L59.75,26l5.6-6.13L66.81,28l7.56,3.43-7.32,3.92-.93,8.25-6-5.76Z" style="fill: #ffe1a4;mix-blend-mode: multiply"/>
          </g>
        </g>
      </g>
    </g>
  </g>
</svg>
