<svg xmlns="http://www.w3.org/2000/svg" xmlns:xlink="http://www.w3.org/1999/xlink" viewBox="0 0 85.63 86.78">
  <defs>
    <filter id="luminosity-noclip" x="0" y="-8176.32" width="85.63" height="32766" filterUnits="userSpaceOnUse" color-interpolation-filters="sRGB">
      <feFlood flood-color="#fff" result="bg"/>
      <feBlend in="SourceGraphic" in2="bg"/>
    </filter>
    <mask id="mask" x="0" y="-8176.32" width="85.63" height="32766" maskUnits="userSpaceOnUse">
      <g style="filter: url(#luminosity-noclip)"/>
    </mask>
    <linearGradient id="linear-gradient" x1="42.82" y1="2.75" x2="42.82" y2="83.13" gradientUnits="userSpaceOnUse">
      <stop offset="0" stop-color="#fff"/>
      <stop offset="1"/>
    </linearGradient>
    <filter id="luminosity-noclip-2" x="0" y="10.18" width="85.63" height="76.6" filterUnits="userSpaceOnUse" color-interpolation-filters="sRGB">
      <feFlood flood-color="#fff" result="bg"/>
      <feBlend in="SourceGraphic" in2="bg"/>
    </filter>
    <mask id="mask-2" x="0" y="10.18" width="85.63" height="76.6" maskUnits="userSpaceOnUse">
      <g style="mask: url(#mask);filter: url(#luminosity-noclip-2)">
        <path d="M85.63,44A42.81,42.81,0,0,1,0,44.38c0-.14,0-.27,0-.41C0,20.32,19.17,10.18,42.82,10.18l1.74,0c17.19.37,31.78,6.25,37.94,19A33.56,33.56,0,0,1,85.63,44Z" style="mix-blend-mode: multiply;fill: url(#linear-gradient)"/>
      </g>
    </mask>
    <linearGradient id="linear-gradient-2" x1="42.82" y1="2.75" x2="42.82" y2="83.13" gradientUnits="userSpaceOnUse">
      <stop offset="0" stop-color="#ed1c24"/>
      <stop offset="1" stop-color="#ed1c24"/>
    </linearGradient>
  </defs>
  <g style="isolation: isolate">
    <g id="Layer_2" data-name="Layer 2">
      <g id="OBJECT">
        <g>
          <path d="M85.63,44A42.81,42.81,0,0,1,0,44.38c0-.14,0-.27,0-.41C0,20.32,19.17,10.18,42.82,10.18l1.74,0c17.19.37,31.78,6.25,37.94,19A33.56,33.56,0,0,1,85.63,44Z" style="fill: #b2c81b"/>
          <g style="mask: url(#mask-2)">
            <path d="M85.63,44A42.81,42.81,0,0,1,0,44.38c0-.14,0-.27,0-.41C0,20.32,19.17,10.18,42.82,10.18l1.74,0c17.19.37,31.78,6.25,37.94,19A33.56,33.56,0,0,1,85.63,44Z" style="fill: url(#linear-gradient-2)"/>
          </g>
          <path d="M62.46,42.42a29.42,29.42,0,1,1-58.84,0C3.62,26.18,16.79,19.21,33,19.21S62.46,26.18,62.46,42.42Z" style="fill: #a0a0a0;mix-blend-mode: overlay"/>
          <path d="M82.5,29.18c-6.16-12.73-20.75-18.61-37.94-19l-1.74,0C19.17,10.18,0,20.32,0,44c0,.14,0,.27,0,.41A42.81,42.81,0,0,0,85.63,44,33.56,33.56,0,0,0,82.5,29.18ZM39.29,81.36a38.84,38.84,0,0,1-9.21-1.11A38.36,38.36,0,0,1,1,44.29c0-.41,0-.84,0-1.26C1,21.86,18.12,12.79,39.29,12.79c1.49,0,3,0,4.4.14C56.28,13.71,67,18,72.86,26.46h0c3,4.37,4.75,9.86,4.75,16.57A38.33,38.33,0,0,1,39.29,81.36Z" style="fill: #cce26d;mix-blend-mode: multiply"/>
          <g>
            <path d="M47.88,19.05s-8.51,2.17-16-.82h0a16,16,0,0,1-8.86-8.51A26,26,0,0,1,21,.21a27.36,27.36,0,0,1,9.83.55A21.79,21.79,0,0,1,41.9,7.08,25.84,25.84,0,0,1,47.88,19.05Z" style="fill: #5aba4e"/>
            <path d="M40.53,11.7S27.46,15,26.88,2.13C26.88,2.13,37.86.3,40.53,11.7Z" style="fill: #959695;mix-blend-mode: overlay"/>
            <path d="M39.1,5.92c.19.2.39.4.58.62L40,6.9A13.76,13.76,0,0,1,41.42,7l.48.07A.76.76,0,0,1,41.81,7a9.75,9.75,0,0,1-.94-.29l-.3-.11-.21-.08-.28-.12-.17-.07-.07,0-.09,0-.29-.14Zm0,0c.19.2.39.4.58.62L40,6.9A13.76,13.76,0,0,1,41.42,7l.48.07A.76.76,0,0,1,41.81,7a9.75,9.75,0,0,1-.94-.29l-.3-.11-.21-.08-.28-.12-.17-.07-.07,0-.09,0-.29-.14Zm0,0c.19.2.39.4.58.62L40,6.9A13.76,13.76,0,0,1,41.42,7l.48.07A.76.76,0,0,1,41.81,7a9.75,9.75,0,0,1-.94-.29l-.3-.11-.21-.08-.28-.12-.17-.07-.07,0-.09,0-.29-.14Zm0,0c.19.2.39.4.58.62L40,6.9A13.76,13.76,0,0,1,41.42,7l.48.07A.76.76,0,0,1,41.81,7a9.75,9.75,0,0,1-.94-.29l-.3-.11-.21-.08-.28-.12-.17-.07-.07,0-.09,0-.29-.14Zm0,0c.19.2.39.4.58.62L40,6.9A13.76,13.76,0,0,1,41.42,7l.48.07A.76.76,0,0,1,41.81,7a9.75,9.75,0,0,1-.94-.29l-.3-.11-.21-.08-.28-.12-.17-.07-.07,0-.09,0-.29-.14Zm4.5,9-.14,0-.27.06-.23,0-.22,0-.16,0,0,.23a1.64,1.64,0,0,0,.38.1l.39.38h.06a1.48,1.48,0,0,1,0-.21,19.07,19.07,0,0,1,0-.31v0s0,0,0-.06ZM21.08.2H21c0,.18,0,.34,0,.51V.78l0,.44c0,.07,0,.13,0,.2V1.5c0,.17,0,.33.05.49s0,.35.05.53l.06.46a1.1,1.1,0,0,0,0,.18c0,.31.09.62.14.92l0,.12c0,.14.05.29.08.44s0,.08,0,.12,0,.26.08.38.11.52.17.76c0,.07,0,.14,0,.22a.94.94,0,0,1,0,.16l.06.22c0,.13.07.26.11.38a2.29,2.29,0,0,0,.08.28c0,.11.06.22.1.34s.05.13.07.2a.93.93,0,0,0,0,.13l.18.53h0a.88.88,0,0,0,.05.15l.07.19.05.14,0,.11a.43.43,0,0,0,.05.12.78.78,0,0,0,.05.14l0,.09c.05.1.09.2.13.3h0l.06.12,0,0c0,.1.09.21.14.31l0,.06h0a.67.67,0,0,0,.06.12h0l.18.35c0,.1.1.21.16.31s.23.41.35.61l.06.1,0,0c.16.27.34.54.52.8l0,0,.28.39L25,13l.07.09c.12.15.23.3.36.45.27.33.56.66.86,1l.22.23.22.22h0l.11.1.15.15.5.43A15.41,15.41,0,0,0,30,17.32h0l.33.17.15.08.4.19.26.13.19.08.59.25.36.14.08,0,.28.1c.25.09.49.18.74.25l.17.05.12,0,.2.05.26.08.36.09.21.05.34.08.09,0,.32.07.11,0,.43.09.39.06h0l.22,0,.12,0h0l.24,0h.27l.13,0,.34,0,.3,0,.33,0h.06l.36,0,.59,0h2.79l.43,0h.13l.39,0h.68l.27,0h0l.65-.08H45l.41-.06h0l.22,0h.14l.14,0H46l.43-.07h.23l.42-.08h0l.09,0h0l.18,0,.07,0h.07l.11,0h.11l0,0h.12s0-.05,0-.08a2.86,2.86,0,0,0-.07-.28l0-.12c0-.09,0-.19-.07-.29h0a.08.08,0,0,1,0,0v0h0l0-.13c0-.06,0-.12,0-.18h0v0a.65.65,0,0,0,0-.13h0l0-.12s0,0,0,0a0,0,0,0,1,0,0l0-.08v0s0,0,0-.05h0l0-.11h0v0h0l0-.08v0h0a.06.06,0,0,0,0,0s0,0,0,0,0,0,0,0l0-.07h0a.74.74,0,0,0,0-.14l0-.07,0-.06s0,0,0,0v0h0c0-.05,0-.1-.05-.15v0s0,0,0,0,0,0,0-.06l0-.1,0-.06s0,0,0,0a0,0,0,0,0,0,0h0a1.18,1.18,0,0,0-.07-.2l0,0v0a.06.06,0,0,1,0,0,0,0,0,0,1,0,0l0-.08h0l-.06-.17h0v0s0-.08,0-.11h0a.24.24,0,0,0,0-.08h0c0-.05,0-.09,0-.13s-.08-.2-.11-.3a2.6,2.6,0,0,1-.1-.25.59.59,0,0,1,0-.08.14.14,0,0,0,0-.06l0,0,0-.08v0a1.42,1.42,0,0,1-.08-.18l0,0a.41.41,0,0,0,0-.08l0,0-.07-.17h0l0,0a1.6,1.6,0,0,0-.1-.23,1,1,0,0,0-.07-.15v0a.05.05,0,0,0,0,0L45.82,13v0l-.1-.21a.93.93,0,0,0-.05-.1.05.05,0,0,0,0,0,.08.08,0,0,0,0,0l-.1-.21v0l-.12-.22-.15-.3-.14-.25-.18-.32h0a.25.25,0,0,1,0-.07l-.19-.32h0l0,0s0-.1-.08-.14l-.08-.14-.21-.33v0l-.08-.11h0l0-.09h0a.44.44,0,0,1-.08-.11l-.19-.27h0l-.17-.24c-.08-.13-.17-.25-.26-.37l0,0a1.09,1.09,0,0,0-.13-.17l-.1-.14-.1-.13-.2-.25-.13-.17-.11-.12a1.47,1.47,0,0,0-.1-.13s0,0,0,0l0,0h0v0l-.2-.22,0-.06-.31-.35A.76.76,0,0,1,41.81,7l-.49-.51-.25-.24c-.23-.23-.46-.44-.7-.65L40,5.28l-.18-.14-.32-.26-.1-.08-.14-.11,0,0L39,4.47l-.44-.31h0c-.51-.35-1-.67-1.54-1L36.65,3c-.58-.33-1.16-.61-1.74-.87l-.43-.18-.18-.07-.24-.1-.07,0-.12,0-.24-.09-.35-.13L33,1.39l-.45-.15-.1,0-.55-.16L31.65,1,31.38.9,30.84.76h0L30.47.68,30.11.6,29.64.5l-.23,0-.23,0L29,.38l-.23,0-.11,0H28.5l-.22,0-.22,0-.22,0-.22,0-.22,0L27,.12l-.34,0H26.5l-.73,0-.38,0H22.33l-.23,0h-1Zm3.39,1.18a19.55,19.55,0,0,1,5.73.12l1.19.24a17,17,0,0,1,1.83.53,15.36,15.36,0,0,1,3.16,1.5h0c.17.11.35.22.53.35a14.64,14.64,0,0,1,1.89,1.52l.29.28c.19.2.39.4.58.62L40,6.9a16,16,0,0,1,1.92,2.9l.05.09a3.59,3.59,0,0,1,.17.34v0l.09.19c.06.11.11.23.17.35.16.35.31.72.45,1.09,0,.13.1.26.14.39s.16.44.23.67.17.53.24.8h0c.05.17.09.34.14.52l.08.33a.36.36,0,0,1,0,.1.19.19,0,0,1,0,.07c0,.05,0,.1,0,.15l-.1,0-.07,0-.14,0-.27.06-.23,0-.22,0-.16,0-.33,0-.38.05-.51.07-.66.06-.6,0H40c-.4,0-.83,0-1.27,0H38.5l-.67,0a18.42,18.42,0,0,1-1.93-.17l-.16,0a15,15,0,0,1-4-1.16h0c-.15-.07-.29-.13-.43-.21l-.06,0-.2-.11a9.68,9.68,0,0,1-1-.61l-.2-.13a10.29,10.29,0,0,1-1.48-1.26c-.19-.19-.38-.39-.56-.6h0A10.76,10.76,0,0,1,26.69,9.6a.83.83,0,0,1-.08-.12v0l0,0-.33-.6c-.13-.26-.26-.54-.39-.82A19.16,19.16,0,0,1,24.47,1.38ZM39.1,5.92c.19.2.39.4.58.62L40,6.9A13.76,13.76,0,0,1,41.42,7l.48.07A.76.76,0,0,1,41.81,7a9.75,9.75,0,0,1-.94-.29l-.3-.11-.21-.08-.28-.12-.17-.07-.07,0-.09,0-.29-.14Zm0,0c.19.2.39.4.58.62L40,6.9A13.76,13.76,0,0,1,41.42,7l.48.07A.76.76,0,0,1,41.81,7a9.75,9.75,0,0,1-.94-.29l-.3-.11-.21-.08-.28-.12-.17-.07-.07,0-.09,0-.29-.14Zm0,0c.19.2.39.4.58.62L40,6.9A13.76,13.76,0,0,1,41.42,7l.48.07A.76.76,0,0,1,41.81,7a9.75,9.75,0,0,1-.94-.29l-.3-.11-.21-.08-.28-.12-.17-.07-.07,0-.09,0-.29-.14Zm0,0c.19.2.39.4.58.62L40,6.9A13.76,13.76,0,0,1,41.42,7l.48.07A.76.76,0,0,1,41.81,7a9.75,9.75,0,0,1-.94-.29l-.3-.11-.21-.08-.28-.12-.17-.07-.07,0-.09,0-.29-.14Zm0,0c.19.2.39.4.58.62L40,6.9A13.76,13.76,0,0,1,41.42,7l.48.07A.76.76,0,0,1,41.81,7a9.75,9.75,0,0,1-.94-.29l-.3-.11-.21-.08-.28-.12-.17-.07-.07,0-.09,0-.29-.14Zm0,0c.19.2.39.4.58.62L40,6.9A13.76,13.76,0,0,1,41.42,7l.48.07A.76.76,0,0,1,41.81,7a9.75,9.75,0,0,1-.94-.29l-.3-.11-.21-.08-.28-.12-.17-.07-.07,0-.09,0-.29-.14Z" style="fill: #83cfad;mix-blend-mode: multiply"/>
            <path d="M41.9,7.08A13.71,13.71,0,0,0,40,6.9h-.57L38.53,7a8.38,8.38,0,0,0-5.16,2.26A6.8,6.8,0,0,0,32,11.12a8,8,0,0,0-.75,2.73,9.22,9.22,0,0,0,.18,2.92,10.32,10.32,0,0,0,.46,1.46,16,16,0,0,1-8.86-8.51,11,11,0,0,0,3.54-.26,7.91,7.91,0,0,0,2.14-.85l.1-.06a6.07,6.07,0,0,0,3.05-5,3.46,3.46,0,0,0-.22-1.15,6,6,0,0,0-.28-.63c-.17-.33-.37-.65-.55-1A21.79,21.79,0,0,1,41.9,7.08Z" style="fill: #959695;mix-blend-mode: overlay;opacity: 0.5"/>
            <g style="mix-blend-mode: screen">
              <g>
                <path d="M35.08,5.35c-1-.53-1.64-1.28-1.43-1.67s1.19-.29,2.19.23,1.65,1.28,1.44,1.67S36.09,5.88,35.08,5.35Z" style="fill: #edeeef"/>
                <path d="M32.46,3.72a.7.7,0,0,1,.65-1.24.71.71,0,0,1,.29,1A.69.69,0,0,1,32.46,3.72Z" style="fill: #edeeef"/>
              </g>
            </g>
            <path d="M28,4.73C29,5.25,30,5.81,31,6.4l1.17.71c.6.37,1.19.76,1.78,1.14l.28.2a3.28,3.28,0,0,1,.31.2c.73.5,1.45,1,2.17,1.54S38.28,11.36,39,12l.54.44c.63.5,1.24,1,1.85,1.58l.77.7.46.44.79.76.62.6.59.63.3.32h0l.79.84.09.1.73.85.07.08.1.12.17.2,0,.06L48,19.24l0,0-.14-.15s0,0-.05,0,0,0,0,0l-.07-.08-.23-.24-.15-.16-.09-.1-.08-.09L47,18.13l-.34-.37-.07-.07-.09-.09c-.38-.39-.78-.77-1.17-1.15l-.62-.62L44,15.25l-.36-.32-.3-.27c-.21-.2-.43-.39-.65-.58-.91-.75-1.8-1.51-2.74-2.2l-.06-.05c-1.57-1.19-3.18-2.32-4.85-3.37l0,0-.38-.24h0l-.45-.27c-.77-.47-1.54-.92-2.32-1.36l-.71-.39c-1-.55-2.08-1.07-3.14-1.55Z" style="fill: #44aa79;mix-blend-mode: multiply"/>
            <path d="M28.35,4.45c1,.49,1.95,1,2.9,1.58l.5.3c.88.52,1.75,1.08,2.6,1.64l.3.21h0l.37.25,0,0c1.42,1,2.8,2,4.13,3.07l.43.35h0l.3.25c.9.72,1.74,1.5,2.6,2.26v0l.65.62.6.58.62.6.6.63.91,1,.27.29.48.55.24.29.12.14,0,0,.07.08h0l.18.21.06.08,1.08-.45,0,0-.24-.26,0,0s0,0,0,0l0-.05-.16-.17,0,0-.09-.1h0l-.07-.08h0l-.06-.06h0L47.51,18l-.08-.09L47,17.42h0l-.56-.56-.62-.6h0l-.08-.08-.63-.61L44.4,15l0,0-.75-.67-.52-.46c-.86-.71-1.71-1.43-2.59-2.09l-.15-.11A63.26,63.26,0,0,0,35.08,8l-.33-.21-.18-.11c-1-.61-2-1.2-3.06-1.76l-.15-.08c-1-.52-2-1-3-1.46Z" style="fill: #44aa79"/>
          </g>
          <path d="M72.64,12.28l0,.06a2.83,2.83,0,0,1-3.68,1.56,1.69,1.69,0,0,1-.28-.12,18.93,18.93,0,0,0-5.49-2,12.73,12.73,0,0,0-5.63.17,13.94,13.94,0,0,0-5.17,2.69,17.6,17.6,0,0,0-2.19,2.13,16.55,16.55,0,0,0-1.8,2.43l-.05.08a1.39,1.39,0,0,1-1.91.48s0,0,0,0A1.4,1.4,0,0,1,45.86,18a16.72,16.72,0,0,1,.86-1.64c.3-.52.62-1,1-1.51A21.11,21.11,0,0,1,50,12.06,17.7,17.7,0,0,1,56.21,8a17.21,17.21,0,0,1,7.55-1.06A24.82,24.82,0,0,1,71,8.65l0,0A2.82,2.82,0,0,1,72.64,12.28Z" style="fill: #5b4217"/>
          <path d="M72.64,12.28C58.31,1.1,48.27,16.54,46.4,19.75A1.4,1.4,0,0,1,45.86,18a16.72,16.72,0,0,1,.86-1.64c.3-.52.62-1,1-1.51A21.11,21.11,0,0,1,50,12.06,17.7,17.7,0,0,1,56.21,8a17.21,17.21,0,0,1,7.55-1.06A24.82,24.82,0,0,1,71,8.65l0,0A2.82,2.82,0,0,1,72.64,12.28Z" style="fill: #8e6933"/>
          <path d="M31.68,39.46a7.29,7.29,0,1,0-2.25,5.25A7.28,7.28,0,0,0,31.68,39.46Z" style="fill: #cce26d;mix-blend-mode: multiply"/>
          <path d="M68,39.46a7.29,7.29,0,1,0-2.25,5.25A7.27,7.27,0,0,0,68,39.46Z" style="fill: #cce26d;mix-blend-mode: multiply"/>
          <path d="M66.61,38.27a7.06,7.06,0,1,0-2.18,5.09A7.05,7.05,0,0,0,66.61,38.27Z" style="fill: #232323"/>
          <path d="M30.11,38.27a7.06,7.06,0,1,0-2.18,5.09A7.05,7.05,0,0,0,30.11,38.27Z" style="fill: #232323"/>
          <path d="M65.64,38.27a6.09,6.09,0,1,0-1.88,4.39A6.08,6.08,0,0,0,65.64,38.27Z" style="fill: #fff"/>
          <path d="M29.14,38.27a6.07,6.07,0,0,0-10.7-3.93A6,6,0,0,0,17,38.27a6.08,6.08,0,0,0,12.15,0Z" style="fill: #fff"/>
          <g>
            <path d="M51.68,62.38a10.27,10.27,0,0,1-2,6.08,7.78,7.78,0,0,1-.72.89,10.32,10.32,0,0,1-6,3.27c-.22,0-.43.07-.65.09a9.29,9.29,0,0,1-1.06.05,10.5,10.5,0,0,1-2.19-.23,3.28,3.28,0,0,1-.45-.11,10.37,10.37,0,0,1-5.92-4.17l-.09-.13a10.38,10.38,0,1,1,19-5.74Z" style="fill: #282828"/>
            <path d="M41.3,52a10.37,10.37,0,0,0-8.65,16.11l.09.13a10.37,10.37,0,0,0,5.92,4.17,3.28,3.28,0,0,0,.45.11,10.5,10.5,0,0,0,2.19.23,9.29,9.29,0,0,0,1.06-.05c.22,0,.43,0,.65-.09a10.32,10.32,0,0,0,6-3.27,7.78,7.78,0,0,0,.72-.89A10.37,10.37,0,0,0,41.3,52Zm0,3.34a7,7,0,0,1,7,7,6.91,6.91,0,0,1-1.14,3.84,5.84,5.84,0,0,1-.47.64,7.65,7.65,0,0,1-.89.91c-.2.16-.41.32-.63.47a7.37,7.37,0,0,1-2.5,1c-.23,0-.46.08-.69.1s-.47,0-.71,0a6.83,6.83,0,0,1-1.82-.24l-.27-.08-.53-.19h0a6.47,6.47,0,0,1-.88-.42,6.74,6.74,0,0,1-1.06-.75l-.15-.13c-.19-.17-.36-.35-.53-.53a7.36,7.36,0,0,1-.55-.7,3.28,3.28,0,0,1-.2-.31,7,7,0,0,1,6-10.72Z"/>
            <g>
              <g style="mix-blend-mode: multiply">
                <g>
                  <path d="M43.13,71.47a7,7,0,0,1-.05.79,0,0,0,0,1,0,0s0,0,0,0v0a0,0,0,0,1,0,0l0,.21c-.22,0-.43.07-.65.09a9.29,9.29,0,0,1-1.06.05,10.5,10.5,0,0,1-2.19-.23,3.28,3.28,0,0,1-.45-.11,10.37,10.37,0,0,1-5.92-4.17l-.09-.13a5.88,5.88,0,0,1,2.66-2.05A6.13,6.13,0,0,1,37,65.7h.33A5.68,5.68,0,0,1,41.06,67h0a5.29,5.29,0,0,1,.54.52l.06.06a5.73,5.73,0,0,1,1,1.65A6.15,6.15,0,0,1,43,70v0a5,5,0,0,1,.14.89A4.41,4.41,0,0,1,43.13,71.47Z" style="fill: #c9b3a9"/>
                  <path d="M49.71,68.46a7.78,7.78,0,0,1-.72.89,10.32,10.32,0,0,1-6,3.27c-.22,0-.43.07-.65.09a9.29,9.29,0,0,1-1.06.05,10.5,10.5,0,0,1-2.19-.23.09.09,0,0,1,0,0s0-.06,0-.09,0-.06,0-.1h0a1,1,0,0,1,0-.18h0c0-.21,0-.43,0-.64s0-.45,0-.66v-.07a.43.43,0,0,0,0-.11,5.48,5.48,0,0,1,.41-1.45c0-.08.07-.16.11-.23h0a4.1,4.1,0,0,1,.23-.4h0a4.93,4.93,0,0,1,.36-.53l.36-.44.06-.06h0l.08-.08.19-.18a1.54,1.54,0,0,1,.19-.17l.1-.08a5.74,5.74,0,0,1,6-.75,4.11,4.11,0,0,1,.51.27l.39.24a6,6,0,0,1,1.08,1A6.35,6.35,0,0,1,49.71,68.46Z" style="fill: #c9b3a9"/>
                </g>
              </g>
              <g style="mix-blend-mode: multiply">
                <g>
                  <path d="M43.06,72.29v.09a0,0,0,0,1,0,0l0,.21c-.22,0-.43.07-.65.09a9.29,9.29,0,0,1-1.06.05,10.5,10.5,0,0,1-2.19-.23,3.28,3.28,0,0,1-.45-.11,10.37,10.37,0,0,1-5.92-4.17l-.09-.13a5.88,5.88,0,0,1,2.66-2.05A6.13,6.13,0,0,1,37,65.7h.33A5.68,5.68,0,0,1,41.06,67h0a5.29,5.29,0,0,1,.54.52,2.54,2.54,0,0,0-.34.23h0l-.16.14,0,0L41,67.85l0,0-.42-.28-.08,0A3.87,3.87,0,0,0,38.61,67H38.4a3.68,3.68,0,0,0-1.24.28h0a3.71,3.71,0,0,0-.56.29,3.77,3.77,0,0,0-.89.75h0a2.71,2.71,0,0,0-.3.39l0,0,0,.08s0,0,0,0a3.75,3.75,0,0,0-.46,1.15h0a10.6,10.6,0,0,0,3.46,1.85l.29.08.44.12c.3.07.62.13.92.17a10.51,10.51,0,0,0,1.58.12c.21,0,.41,0,.61,0h.39Z" style="fill: #c9b3a9"/>
                  <path d="M49.71,68.46a7.78,7.78,0,0,1-.72.89,10.32,10.32,0,0,1-6,3.27c-.22,0-.43.07-.65.09a9.29,9.29,0,0,1-1.06.05,10.5,10.5,0,0,1-2.19-.23.09.09,0,0,1,0,0s0-.06,0-.09a.38.38,0,0,0,0-.1h0a1,1,0,0,1,0-.18h0c.3.07.62.13.92.17a10.51,10.51,0,0,0,1.58.12c.21,0,.41,0,.61,0h.39l.51-.07h0a10.52,10.52,0,0,0,4.34-1.63,3.62,3.62,0,0,0-.28-1.23,3.75,3.75,0,0,0-.93-1.36,3.47,3.47,0,0,0-.37-.3s0,0,0,0A3.91,3.91,0,0,0,43.56,67a3.8,3.8,0,0,0-2,.53,2.54,2.54,0,0,0-.34.23h0l-.16.14,0,0L41,67.85l0,0-.42-.28.06-.06h0l.08-.08.19-.18a1.54,1.54,0,0,1,.19-.17l.1-.08a5.74,5.74,0,0,1,6-.75,4.11,4.11,0,0,1,.51.27l.39.24a6,6,0,0,1,1.08,1A6.35,6.35,0,0,1,49.71,68.46Z" style="fill: #c9b3a9"/>
                </g>
              </g>
              <g>
                <path d="M42.47,71.59c0,.27,0,.52,0,.78h0l-.06.33a9.29,9.29,0,0,1-1.06.05,10.5,10.5,0,0,1-2.19-.23,3.28,3.28,0,0,1-.45-.11,10.37,10.37,0,0,1-5.92-4.17,5.56,5.56,0,0,1,2.77-1.87,5,5,0,0,1,1.22-.22H37a5.41,5.41,0,0,1,3.5,1.28.34.34,0,0,1,.06.06h0c.12.11.24.22.35.34l0,0,.06.07a5.31,5.31,0,0,1,1,1.46,5.2,5.2,0,0,1,.31.89,4.91,4.91,0,0,1,.13.75A5.52,5.52,0,0,1,42.47,71.59Z" style="fill: #ff5545"/>
                <path d="M49,69.35a10.32,10.32,0,0,1-6,3.27c-.22,0-.43.07-.65.09a9.29,9.29,0,0,1-1.06.05,10.5,10.5,0,0,1-2.19-.23,3.28,3.28,0,0,1-.45-.11l0-.22a1.49,1.49,0,0,1,0-.21c0-.13,0-.26,0-.4a5,5,0,0,1,0-.78l0-.17a5.24,5.24,0,0,1,.53-1.53h0a4.31,4.31,0,0,1,.58-.9h0l.25-.3.23-.22a1.62,1.62,0,0,1,.19-.18l.08-.07a6.41,6.41,0,0,1,.52-.39l.11-.07a5.42,5.42,0,0,1,5.55-.11,3.87,3.87,0,0,1,.43.27,5.39,5.39,0,0,1,1.31,1.3A4.4,4.4,0,0,1,49,69.35Z" style="fill: #ff5545"/>
              </g>
              <g style="mix-blend-mode: multiply">
                <path d="M42.42,72.38l-.06.33a9.29,9.29,0,0,1-1.06.05,10.5,10.5,0,0,1-2.19-.23,3.28,3.28,0,0,1-.45-.11,10.37,10.37,0,0,1-5.92-4.17,5.56,5.56,0,0,1,2.77-1.87,5,5,0,0,1,1.22-.22H37a5.41,5.41,0,0,1,3.5,1.28.34.34,0,0,1,.06.06h0c.12.11.24.22.35.34l0,0,.06.07a3.21,3.21,0,0,0-.48.34c-.06,0-.12-.1-.19-.14l0,0L40.18,68,40,67.9a3.64,3.64,0,0,0-1.82-.48H38c-.18,0-.33,0-.49.06h0a3.57,3.57,0,0,0-.78.26,3.44,3.44,0,0,0-1,.64,3.09,3.09,0,0,0-.35.38l0,0-.08.1-.17.25a3.66,3.66,0,0,0-.45,1.12A9.89,9.89,0,0,0,38,72c.23.08.45.13.68.19l.22,0,.22,0h0l.08,0h0l.33.06a10.34,10.34,0,0,0,1.49.11h.57C41.86,72.45,42.14,72.42,42.42,72.38Z" style="fill: #ffa19c"/>
                <path d="M49,69.35a10.32,10.32,0,0,1-6,3.27c-.22,0-.43.07-.65.09a9.29,9.29,0,0,1-1.06.05,10.5,10.5,0,0,1-2.19-.23,3.28,3.28,0,0,1-.45-.11l0-.22.22,0,.22,0h0l.08,0h0l.33.06a10.34,10.34,0,0,0,1.49.11h.57c.29,0,.57,0,.85-.09l.13,0,.53-.1a9.88,9.88,0,0,0,3.44-1.43,3.65,3.65,0,0,0-.18-.93,3.47,3.47,0,0,0-.78-1.31,3,3,0,0,0-.36-.35L45,68.07a3.67,3.67,0,0,0-2.09-.65,3.51,3.51,0,0,0-1.22.21l-.4.17h0l-.19.11h0a3.21,3.21,0,0,0-.48.34c-.06,0-.12-.1-.19-.14l0,0L40.18,68,40,67.9l.23-.22a1.62,1.62,0,0,1,.19-.18l.08-.07a6.41,6.41,0,0,1,.52-.39l.11-.07a5.42,5.42,0,0,1,5.55-.11,3.87,3.87,0,0,1,.43.27,5.39,5.39,0,0,1,1.31,1.3A4.4,4.4,0,0,1,49,69.35Z" style="fill: #ffa19c"/>
              </g>
              <g style="opacity: 0.6000000000000001">
                <path d="M36.53,67.15c.95.19,1.67.65,1.59,1s-.91.53-1.86.34-1.67-.66-1.6-1S35.57,67,36.53,67.15Z" style="fill: #fff;mix-blend-mode: screen"/>
                <path d="M39.29,67.77a.67.67,0,0,1,.52.8.67.67,0,0,1-1.32-.27A.68.68,0,0,1,39.29,67.77Z" style="fill: #fff;mix-blend-mode: screen"/>
              </g>
            </g>
          </g>
          <g>
            <path d="M65.92,26.57a1.52,1.52,0,0,1-.14,1.19,1.57,1.57,0,0,1-.94.75L54.66,31.36l-.13,0a1.56,1.56,0,0,1-1.66-2.31,1.5,1.5,0,0,1,.94-.74L64,25.48A1.57,1.57,0,0,1,65.92,26.57Z" style="fill: #c9b3a9;mix-blend-mode: multiply"/>
            <path d="M65,26a1.53,1.53,0,0,1-.14,1.19,1.55,1.55,0,0,1-.95.74L53.71,30.82l-.13,0a1.56,1.56,0,0,1-1.66-2.31,1.54,1.54,0,0,1,.94-.74L63,25A1.56,1.56,0,0,1,65,26Z" style="fill: #282828"/>
            <path d="M64.92,25.87a1.74,1.74,0,0,0-.1-.19l-.06-.1v0l-.09-.11a2.35,2.35,0,0,0-.33-.3l-.1,0-.09-.05-.09,0-.24-.08-.15,0h-.5L63,25,52.86,27.8l-.28.11-.09.05a1.35,1.35,0,0,0-.27.2l-.08.09,0,0-.08.1a.83.83,0,0,0-.08.12l0,.05a1.56,1.56,0,0,0-.15,1.2l.06.17,0,.09.06.1s0,0,0,.06a1.13,1.13,0,0,0,.1.13l.06.08.08.07a.12.12,0,0,0,0,0l.18.14.08,0a1.23,1.23,0,0,0,.31.14l.11,0,.1,0h0l.1,0h.15a1.24,1.24,0,0,0,.27,0l.13,0L63.89,28l.12,0,.06,0,.08,0,.16-.09h0l.12-.09.12-.1.09-.11a1.44,1.44,0,0,0,.18-.25A1.53,1.53,0,0,0,65,26,1.09,1.09,0,0,0,64.92,25.87Zm-2.39,1a.67.67,0,0,1-.41.32l-8.2,2.3a.69.69,0,0,1-.85-.48s0-.06,0-.09v-.09a.66.66,0,0,1,.08-.34.69.69,0,0,1,.42-.32l8.2-2.3a.67.67,0,0,1,.57.09.66.66,0,0,1,.27.38A.69.69,0,0,1,62.53,26.86Z"/>
          </g>
          <g>
            <path d="M17.93,26.57A1.6,1.6,0,0,0,19,28.51L29.2,31.36l.13,0A1.57,1.57,0,0,0,31,29.08a1.55,1.55,0,0,0-.95-.74L19.87,25.48A1.58,1.58,0,0,0,17.93,26.57Z" style="fill: #c9b3a9;mix-blend-mode: multiply"/>
            <path d="M18.88,26A1.53,1.53,0,0,0,19,27.23,1.5,1.5,0,0,0,20,28l10.18,2.85a.5.5,0,0,0,.13,0,1.57,1.57,0,0,0,1.66-2.31A1.59,1.59,0,0,0,31,27.8L20.82,25A1.58,1.58,0,0,0,18.88,26Z" style="fill: #282828"/>
            <path d="M18.88,26A1.57,1.57,0,0,0,19,27.23a2.2,2.2,0,0,0,.17.25l.1.11a.63.63,0,0,0,.12.1l.12.09h0l.15.09.08,0,.07,0L20,28l10.18,2.85.13,0a1.24,1.24,0,0,0,.27,0h.14l.11,0h0l.1,0,.11,0a1.3,1.3,0,0,0,.32-.14l.08,0,.17-.14.06,0a.46.46,0,0,0,.07-.07l.07-.08.09-.13,0-.06L32,30a.36.36,0,0,0,0-.09.7.7,0,0,0,.06-.17,1.6,1.6,0,0,0-.14-1.2l0-.05a.83.83,0,0,0-.08-.12l-.08-.1s0,0,0,0l-.09-.09a1.35,1.35,0,0,0-.27-.2l-.08-.05L31,27.8,20.82,25l-.13,0h-.5l-.15,0L19.8,25l-.08,0-.1.05-.09,0a1.9,1.9,0,0,0-.33.3l-.09.11,0,0-.05.1a1.74,1.74,0,0,0-.1.19Zm2.38.29a.72.72,0,0,1,.28-.38.66.66,0,0,1,.57-.09l8.2,2.3a.7.7,0,0,1,.41.32.67.67,0,0,1,.09.34.28.28,0,0,1,0,.09.29.29,0,0,1,0,.09.68.68,0,0,1-.84.48l-8.2-2.3a.72.72,0,0,1-.42-.32A.74.74,0,0,1,21.26,26.33Z"/>
          </g>
        </g>
      </g>
    </g>
  </g>
</svg>
