<svg xmlns="http://www.w3.org/2000/svg" viewBox="0 0 85.63 96.26">
  <g style="isolation: isolate">
    <g id="Layer_2" data-name="Layer 2">
      <g id="OBJECT">
        <g>
          <g>
            <g>
              <path d="M85.63,53.45A42.81,42.81,0,0,1,0,53.86c0-.14,0-.27,0-.41C0,29.8,19.17,19.66,42.82,19.66l1.74,0c17.19.37,31.78,6.25,37.94,19A33.64,33.64,0,0,1,85.63,53.45Z" style="fill: #23c06b"/>
              <path d="M62.46,51.9a29.42,29.42,0,0,1-58.84,0C3.62,35.65,16.79,28.69,33,28.69S62.46,35.65,62.46,51.9Z" style="fill: #23c06b"/>
              <path d="M82.5,38.65c-6.16-12.72-20.75-18.6-37.94-19l-1.74,0C19.17,19.66,0,29.8,0,53.45c0,.14,0,.27,0,.41a42.81,42.81,0,0,0,85.62-.41A33.64,33.64,0,0,0,82.5,38.65ZM39.29,90.84a38.84,38.84,0,0,1-9.21-1.11A38.36,38.36,0,0,1,1,53.77c0-.42,0-.84,0-1.26C1,31.34,18.12,22.27,39.29,22.27c1.49,0,3,0,4.4.14,12.59.78,23.32,5.06,29.17,13.53h0c3,4.37,4.75,9.86,4.75,16.57A38.33,38.33,0,0,1,39.29,90.84Z" style="fill: #23c06b"/>
            </g>
            <g>
              <path d="M47.88,28.53s-8.51,2.17-16-.82h0a16,16,0,0,1-8.86-8.51,26,26,0,0,1-2-9.51,27.36,27.36,0,0,1,9.83.55A21.79,21.79,0,0,1,41.9,16.56,25.84,25.84,0,0,1,47.88,28.53Z" style="fill: #5aba4e"/>
              <path d="M40.53,21.18s-13.07,3.34-13.65-9.57C26.88,11.61,37.86,9.78,40.53,21.18Z" style="fill: #959695;mix-blend-mode: overlay"/>
              <path d="M39.1,15.4c.19.2.39.4.58.62l.31.36a13.76,13.76,0,0,1,1.43.11l.48.07-.09-.09c-.29-.08-.6-.17-.94-.29l-.3-.11L40.36,16l-.28-.11-.17-.07-.07,0-.09,0-.29-.13Zm0,0c.19.2.39.4.58.62l.31.36a13.76,13.76,0,0,1,1.43.11l.48.07-.09-.09c-.29-.08-.6-.17-.94-.29l-.3-.11L40.36,16l-.28-.11-.17-.07-.07,0-.09,0-.29-.13Zm0,0c.19.2.39.4.58.62l.31.36a13.76,13.76,0,0,1,1.43.11l.48.07-.09-.09c-.29-.08-.6-.17-.94-.29l-.3-.11L40.36,16l-.28-.11-.17-.07-.07,0-.09,0-.29-.13Zm0,0c.19.2.39.4.58.62l.31.36a13.76,13.76,0,0,1,1.43.11l.48.07-.09-.09c-.29-.08-.6-.17-.94-.29l-.3-.11L40.36,16l-.28-.11-.17-.07-.07,0-.09,0-.29-.13Zm0,0c.19.2.39.4.58.62l.31.36a13.76,13.76,0,0,1,1.43.11l.48.07-.09-.09c-.29-.08-.6-.17-.94-.29l-.3-.11L40.36,16l-.28-.11-.17-.07-.07,0-.09,0-.29-.13Zm4.5,9-.14,0-.27.06-.23,0-.22,0-.16,0,0,.23A1.64,1.64,0,0,0,43,25l.39.38h.06a1.48,1.48,0,0,1,0-.21,19.07,19.07,0,0,1,0-.31v0s0,0,0-.06ZM21.08,9.68H21l0,.51v.06l0,.44c0,.07,0,.13,0,.2V11c0,.17,0,.33.05.49s0,.35.05.53l.06.46a1.1,1.1,0,0,0,0,.18c0,.31.09.62.14.91l0,.13c0,.14.05.29.08.44s0,.08,0,.12,0,.26.08.38.11.52.17.76c0,.07,0,.14,0,.21a1,1,0,0,1,0,.17l.06.22c0,.13.07.26.11.38a2.29,2.29,0,0,0,.08.28c0,.11.06.22.1.34s.05.13.07.2a.56.56,0,0,0,0,.12l.18.54h0l.06.15.07.19.05.14,0,.11a.61.61,0,0,0,.05.12.5.5,0,0,0,.05.13l0,.1c.05.1.09.2.13.3h0l.06.12a.17.17,0,0,0,0,.05c0,.1.09.2.14.31l0,.06h0a.34.34,0,0,0,.06.12h0l.18.35c0,.1.1.21.16.31s.23.41.35.61l.06.1,0,.05c.16.27.34.54.52.79l0,0,.28.39,0,.05.07.1c.12.15.23.3.36.45.27.33.56.66.86,1l.22.23c.07.07.15.14.22.22h0l.11.1.15.15.5.43A16.06,16.06,0,0,0,30,26.8h0l.33.17.15.08.4.19.26.13.19.08.59.25.36.14.08,0,.28.1.74.25.17.05.12,0,.2.05.26.08.36.09.21.05.34.08.09,0,.32.07.11,0,.43.08.39.07h0l.22,0,.12,0h0L37,29h.12l.15,0h0l.13,0,.34,0,.3,0,.33,0h.06l.36,0,.59,0h2.79l.43,0h.13l.39,0h.68l.27,0h0l.65-.07H45l.41-.06h0l.22,0h.14l.14,0H46l.43-.07h.23l.42-.08h.14l.18,0,.07,0h.07l.11,0h.28s0-.05,0-.08a2.86,2.86,0,0,0-.07-.28l0-.12c0-.1,0-.19-.07-.29h0a.09.09,0,0,1,0,0h0l0-.13c0-.06,0-.12,0-.18h0s0,0,0,0a.65.65,0,0,0,0-.13h0l0-.12s0,0,0,0a0,0,0,0,1,0,0l0-.09v0s0,0,0-.05h0l0-.11h0v0h0l0-.08v0h0s0,0,0,0,0,0,0,0,0,0,0,0l0-.07h0a.74.74,0,0,0,0-.14l0-.07,0-.06s0,0,0,0v0h0c0-.05,0-.1-.05-.15s0,0,0,0,0,0,0,0,0,0,0-.06l0-.1,0-.06s0,0,0,0a0,0,0,0,0,0,0h0a1.18,1.18,0,0,0-.07-.2l0-.05v0a.08.08,0,0,1,0,0,0,0,0,0,1,0,0l0-.08h0L46.84,25h0v0h0s0-.08,0-.11h0a.24.24,0,0,0,0-.08h0s0-.09,0-.13l-.11-.3L46.5,24l0-.08a.14.14,0,0,0,0-.06l0,0,0-.08v0a1.42,1.42,0,0,1-.08-.18l0,0s0-.05,0-.08l0,0-.07-.17h0l0,0A1.6,1.6,0,0,0,46,23a.69.69,0,0,0-.07-.15v0a.05.05,0,0,0,0,0l-.12-.26v0l-.1-.21a.93.93,0,0,0-.05-.1,437081376310.52,437081376310.52,0,0,0,0-.08l-.1-.21s0,0,0,0l-.12-.22-.15-.3-.14-.25-.18-.32h0a.25.25,0,0,1,0-.07l-.19-.32h0a0,0,0,0,1,0,0l0,0c0-.05,0-.1-.08-.14L44.49,20l-.21-.33v0a.76.76,0,0,0-.08-.11h0l0-.09h0a.44.44,0,0,1-.08-.11L43.86,19h0l-.17-.25-.26-.36s0,0,0,0a1.09,1.09,0,0,0-.13-.17l-.1-.14a1.13,1.13,0,0,0-.1-.13l-.2-.25-.13-.17a1.31,1.31,0,0,0-.11-.12,1.47,1.47,0,0,0-.1-.13s0,0,0,0l0,0h0l-.2-.22,0-.06-.31-.35-.09-.09L41.32,16l-.25-.24c-.23-.23-.46-.44-.7-.65L40,14.76l-.18-.14-.32-.26-.1-.08-.14-.11,0,0L39,14l-.44-.31h0c-.51-.35-1-.67-1.54-1l-.35-.2c-.58-.32-1.16-.6-1.74-.86l-.43-.18-.18-.07-.24-.1-.07,0-.12,0-.24-.09L33.28,11,33,10.87l-.45-.15-.1,0-.55-.16-.27-.08-.27-.07-.54-.14h0l-.37-.08-.36-.08-.47-.1-.23,0-.23,0-.23,0-.23,0-.11,0H28.5l-.22,0-.22,0-.22,0-.22,0-.22,0L27,9.6l-.34,0H26.5l-.73,0-.38,0H22.56l-.23,0-.23,0h-1Zm3.39,1.18A19.14,19.14,0,0,1,30.2,11l1.19.24a17,17,0,0,1,1.83.53,15.36,15.36,0,0,1,3.16,1.5h0c.17.11.35.22.53.35a14.64,14.64,0,0,1,1.89,1.52l.29.28c.19.2.39.4.58.62l.31.36a16,16,0,0,1,1.92,2.9l.05.09a3.59,3.59,0,0,1,.17.34s0,0,0,0l.09.19c.06.11.11.23.17.35.16.35.31.72.45,1.09,0,.13.1.26.14.39s.16.44.23.67.17.53.24.8h0c.05.17.09.34.14.52s0,.22.08.33a.36.36,0,0,1,0,.1.19.19,0,0,1,0,.07c0,.05,0,.09,0,.14l-.1,0H43.6l-.14,0-.27.06-.23,0-.22,0-.16,0-.33.05-.38,0-.51.07-.66.06-.6,0H40c-.4,0-.83,0-1.27,0H38.5l-.67,0a18.42,18.42,0,0,1-1.93-.17l-.16,0a15,15,0,0,1-4-1.16h0l-.43-.21-.06,0-.2-.11a9.68,9.68,0,0,1-1-.61l-.2-.13a10.29,10.29,0,0,1-1.48-1.26c-.19-.19-.38-.39-.56-.6h0a11.37,11.37,0,0,1-1.08-1.51.83.83,0,0,1-.08-.12v0l0,0q-.16-.29-.33-.6c-.13-.26-.26-.54-.39-.82A19.16,19.16,0,0,1,24.47,10.86ZM39.1,15.4c.19.2.39.4.58.62l.31.36a13.76,13.76,0,0,1,1.43.11l.48.07-.09-.09c-.29-.08-.6-.17-.94-.29l-.3-.11L40.36,16l-.28-.11-.17-.07-.07,0-.09,0-.29-.13Zm0,0c.19.2.39.4.58.62l.31.36a13.76,13.76,0,0,1,1.43.11l.48.07-.09-.09c-.29-.08-.6-.17-.94-.29l-.3-.11L40.36,16l-.28-.11-.17-.07-.07,0-.09,0-.29-.13Zm0,0c.19.2.39.4.58.62l.31.36a13.76,13.76,0,0,1,1.43.11l.48.07-.09-.09c-.29-.08-.6-.17-.94-.29l-.3-.11L40.36,16l-.28-.11-.17-.07-.07,0-.09,0-.29-.13Zm0,0c.19.2.39.4.58.62l.31.36a13.76,13.76,0,0,1,1.43.11l.48.07-.09-.09c-.29-.08-.6-.17-.94-.29l-.3-.11L40.36,16l-.28-.11-.17-.07-.07,0-.09,0-.29-.13Zm0,0c.19.2.39.4.58.62l.31.36a13.76,13.76,0,0,1,1.43.11l.48.07-.09-.09c-.29-.08-.6-.17-.94-.29l-.3-.11L40.36,16l-.28-.11-.17-.07-.07,0-.09,0-.29-.13Zm0,0c.19.2.39.4.58.62l.31.36a13.76,13.76,0,0,1,1.43.11l.48.07-.09-.09c-.29-.08-.6-.17-.94-.29l-.3-.11L40.36,16l-.28-.11-.17-.07-.07,0-.09,0-.29-.13Z" style="fill: #83cfad;mix-blend-mode: multiply"/>
              <path d="M41.9,16.56A13.71,13.71,0,0,0,40,16.38h-.57c-.29,0-.58,0-.88.06a8.38,8.38,0,0,0-5.16,2.26A6.8,6.8,0,0,0,32,20.6a8,8,0,0,0-.75,2.73,9.22,9.22,0,0,0,.18,2.92,10.32,10.32,0,0,0,.46,1.46,16,16,0,0,1-8.86-8.51,11.34,11.34,0,0,0,3.54-.26,7.91,7.91,0,0,0,2.14-.85l.1-.06a6.07,6.07,0,0,0,3.05-5,3.57,3.57,0,0,0-.22-1.16c-.08-.21-.18-.42-.28-.62s-.37-.65-.55-1A21.79,21.79,0,0,1,41.9,16.56Z" style="fill: #959695;mix-blend-mode: overlay;opacity: 0.5"/>
              <g style="mix-blend-mode: screen">
                <g>
                  <path d="M35.08,14.83c-1-.53-1.64-1.28-1.43-1.67s1.19-.3,2.19.23,1.65,1.28,1.44,1.67S36.09,15.35,35.08,14.83Z" style="fill: #edeeef"/>
                  <path d="M32.46,13.2A.7.7,0,0,1,33.11,12a.7.7,0,0,1,.29.95A.69.69,0,0,1,32.46,13.2Z" style="fill: #edeeef"/>
                </g>
              </g>
              <path d="M28,14.21c1,.52,2.06,1.08,3.06,1.67l1.17.71c.6.37,1.19.75,1.78,1.14l.28.2a3.28,3.28,0,0,1,.31.2c.73.5,1.45,1,2.17,1.54s1.53,1.17,2.27,1.77l.54.44c.63.51,1.24,1.05,1.85,1.59l.77.69.46.45.79.76.62.6.59.63.3.32h0l.79.84.09.1.73.85.07.08.1.12.17.2,0,.06L48,28.72l0,0-.14-.16-.05,0,0,0-.07-.08-.23-.24L47.32,28l-.09-.1-.08-.09L47,27.61l-.34-.37-.07-.07-.09-.1-1.17-1.14-.62-.62L44,24.72l-.36-.31-.3-.27c-.21-.2-.43-.39-.65-.58-.91-.75-1.8-1.51-2.74-2.21l-.06,0c-1.57-1.2-3.18-2.32-4.85-3.37l0,0a4,4,0,0,0-.38-.24h0l-.45-.27c-.77-.47-1.54-.92-2.32-1.36l-.71-.39c-1-.55-2.08-1.07-3.14-1.55Z" style="fill: #44aa79;mix-blend-mode: multiply"/>
              <path d="M28.35,13.93c1,.49,1.95,1,2.9,1.58l.5.3c.88.52,1.75,1.08,2.6,1.64l.3.21s0,0,0,0l.37.25,0,0c1.42,1,2.8,2,4.13,3.07l.43.35h0l.3.24c.9.73,1.74,1.51,2.6,2.27v0l.65.62.6.58.62.6.6.63c.3.33.61.65.91,1l.27.29.48.56.24.29.12.14,0,0,.07.08h0l.18.21.06.08,1.08-.45s0,0,0,0l-.24-.26,0,0s0,0,0,0l0-.05L47.93,28l0,0-.09-.1h0l-.07-.08h0l-.06-.06h0l-.16-.17-.08-.09L47,26.9h0l-.56-.56-.62-.6h0l-.08-.08L45.05,25l-.65-.59,0,0-.75-.67-.52-.46c-.86-.71-1.71-1.43-2.59-2.09l-.15-.11a63.26,63.26,0,0,0-5.27-3.64l-.33-.21-.18-.11c-1-.61-2-1.2-3.06-1.76l-.15-.08c-1-.52-2-1-3-1.46Z" style="fill: #44aa79"/>
            </g>
            <path d="M72.64,21.75l0,.07a2.83,2.83,0,0,1-3.68,1.56,1.69,1.69,0,0,1-.28-.12,18.93,18.93,0,0,0-5.49-2,12.59,12.59,0,0,0-5.63.17,13.94,13.94,0,0,0-5.17,2.69,17.6,17.6,0,0,0-2.19,2.13,16.55,16.55,0,0,0-1.8,2.43l-.05.08a1.39,1.39,0,0,1-1.91.48h0a1.4,1.4,0,0,1-.54-1.76,16.72,16.72,0,0,1,.86-1.64c.3-.52.62-1,1-1.52A21,21,0,0,1,50,21.54a17.7,17.7,0,0,1,6.2-4.11,17.07,17.07,0,0,1,7.55-1.06A24.51,24.51,0,0,1,71,18.13l0,0A2.81,2.81,0,0,1,72.64,21.75Z" style="fill: #5b4217"/>
            <path d="M72.64,21.75C58.31,10.58,48.27,26,46.4,29.23a1.4,1.4,0,0,1-.54-1.76,16.72,16.72,0,0,1,.86-1.64c.3-.52.62-1,1-1.52A21,21,0,0,1,50,21.54a17.7,17.7,0,0,1,6.2-4.11,17.07,17.07,0,0,1,7.55-1.06A24.51,24.51,0,0,1,71,18.13l0,0A2.81,2.81,0,0,1,72.64,21.75Z" style="fill: #8e6933"/>
          </g>
          <g>
            <path d="M51.92,71.86a10.6,10.6,0,0,1-2.68,7,10.35,10.35,0,0,1-6,3.27c-.21,0-.43.07-.64.09a9.47,9.47,0,0,1-1.07,0A10.57,10.57,0,0,1,39.35,82l-.45-.11A10.34,10.34,0,0,1,33,77.73a.6.6,0,0,1-.09-.13,10.37,10.37,0,1,1,19-5.74Z" style="fill: #282828"/>
            <path d="M41.54,61.49A10.37,10.37,0,0,0,32.9,77.6a.6.6,0,0,0,.09.13A10.34,10.34,0,0,0,38.9,81.9l.45.11a10.57,10.57,0,0,0,2.19.23,9.47,9.47,0,0,0,1.07,0c.21,0,.43,0,.64-.09A10.18,10.18,0,0,0,50,77.94a10.21,10.21,0,0,0,2-6.08A10.37,10.37,0,0,0,41.54,61.49Zm0,3.34a7,7,0,0,1,5.9,10.87,5.84,5.84,0,0,1-.47.64,6.88,6.88,0,0,1-.89.9,7.62,7.62,0,0,1-.64.48,7.28,7.28,0,0,1-2.5,1c-.22,0-.45.08-.68.1s-.47,0-.72,0a7.18,7.18,0,0,1-1.81-.24l-.28-.08-.52-.19h0a5.86,5.86,0,0,1-.87-.43A6.58,6.58,0,0,1,37,77.22l-.15-.13c-.18-.17-.36-.35-.52-.53s-.38-.46-.56-.7a3.21,3.21,0,0,1-.19-.31,7,7,0,0,1,6-10.72Z"/>
            <g>
              <g style="mix-blend-mode: multiply">
                <g>
                  <path d="M43.37,81a7.13,7.13,0,0,1,0,.79,0,0,0,0,1,0,0v0a.08.08,0,0,1,0,0v0a1.55,1.55,0,0,1,0,.21c-.21,0-.43.07-.64.09a9.47,9.47,0,0,1-1.07,0A10.57,10.57,0,0,1,39.35,82l-.45-.11A10.34,10.34,0,0,1,33,77.73a.6.6,0,0,1-.09-.13,5.87,5.87,0,0,1,.88-1,6,6,0,0,1,1.78-1.07,5.8,5.8,0,0,1,1.72-.37h.32a5.71,5.71,0,0,1,3.71,1.35h0a5.13,5.13,0,0,1,.53.51l.07.07a5.7,5.7,0,0,1,1,1.65,6.18,6.18,0,0,1,.26.76v0a5,5,0,0,1,.15.89A4.43,4.43,0,0,1,43.37,81Z" style="fill: #c9b3a9"/>
                  <path d="M50,77.94a10.18,10.18,0,0,1-6.7,4.16c-.21,0-.43.07-.64.09a9.47,9.47,0,0,1-1.07,0A10.57,10.57,0,0,1,39.35,82V82a.29.29,0,0,1,0-.09.44.44,0,0,0,0-.1h0c0-.06,0-.12,0-.18h0c0-.2,0-.42,0-.63a4.68,4.68,0,0,1,0-.66v-.07a.43.43,0,0,1,0-.11,5.48,5.48,0,0,1,.41-1.45,1.63,1.63,0,0,1,.11-.23h0a4.1,4.1,0,0,1,.22-.41h0a4.86,4.86,0,0,1,.35-.53l.37-.44.06-.06h0l.09-.08.18-.18.2-.17.1-.08a5.74,5.74,0,0,1,6-.75A5,5,0,0,1,48,76c.13.07.26.16.38.24a6,6,0,0,1,1.09,1A7.67,7.67,0,0,1,50,77.94Z" style="fill: #c9b3a9"/>
                </g>
              </g>
              <g style="mix-blend-mode: multiply">
                <g>
                  <path d="M43.31,81.77v0a.08.08,0,0,1,0,0v0a1.55,1.55,0,0,1,0,.21c-.21,0-.43.07-.64.09a9.47,9.47,0,0,1-1.07,0A10.57,10.57,0,0,1,39.35,82l-.45-.11A10.34,10.34,0,0,1,33,77.73a.6.6,0,0,1-.09-.13,5.87,5.87,0,0,1,.88-1,6,6,0,0,1,1.78-1.07,5.8,5.8,0,0,1,1.72-.37h.32a5.71,5.71,0,0,1,3.71,1.35h0a5.13,5.13,0,0,1,.53.51,4,4,0,0,0-.33.24h0l-.16.14,0,0-.08-.06s0,0,0,0a3,3,0,0,0-.41-.28l-.09,0a3.83,3.83,0,0,0-1.84-.46h-.22a3.62,3.62,0,0,0-1.23.28h0a3.81,3.81,0,0,0-.57.29,3.72,3.72,0,0,0-.88.75h0a3.68,3.68,0,0,0-.3.39s0,0,0,0a.1.1,0,0,1,0,.07.08.08,0,0,1,0,0,4,4,0,0,0-.46,1.15h0a10.79,10.79,0,0,0,3.46,1.85l.29.08.43.11a7.62,7.62,0,0,0,.93.18,10.31,10.31,0,0,0,1.58.12c.21,0,.41,0,.61,0h.38Z" style="fill: #c9b3a9"/>
                  <path d="M50,77.94a10.18,10.18,0,0,1-6.7,4.16c-.21,0-.43.07-.64.09a9.47,9.47,0,0,1-1.07,0A10.57,10.57,0,0,1,39.35,82V82a.29.29,0,0,1,0-.09.38.38,0,0,0,0-.1h0a1.13,1.13,0,0,1,0-.18h0a7.62,7.62,0,0,0,.93.18,10.31,10.31,0,0,0,1.58.12c.21,0,.41,0,.61,0h.38l.52-.07h0a10.62,10.62,0,0,0,4.35-1.63,3.57,3.57,0,0,0-.28-1.23,3.66,3.66,0,0,0-.94-1.36,3.47,3.47,0,0,0-.36-.31l-.06,0a3.88,3.88,0,0,0-2.21-.68,3.34,3.34,0,0,0-2.29.76h0l-.16.14,0,0-.08-.06s0,0,0,0a3,3,0,0,0-.41-.28l.06-.06h0l.09-.08.18-.18.2-.17.1-.08a5.74,5.74,0,0,1,6-.75A5,5,0,0,1,48,76c.13.07.26.16.38.24a6,6,0,0,1,1.09,1A7.67,7.67,0,0,1,50,77.94Z" style="fill: #c9b3a9"/>
                </g>
              </g>
              <g>
                <path d="M42.72,81.07a6.66,6.66,0,0,1,0,.78h0l-.06.33a9.47,9.47,0,0,1-1.07,0A10.57,10.57,0,0,1,39.35,82l-.45-.11A10.34,10.34,0,0,1,33,77.73a5.46,5.46,0,0,1,.93-.93,5.22,5.22,0,0,1,1.83-.94A5,5,0,0,1,37,75.64h.3a5.42,5.42,0,0,1,3.51,1.28l.06.06h0a2.83,2.83,0,0,1,.35.34s0,0,0,0l.06.07a5.55,5.55,0,0,1,1,1.46,6.2,6.2,0,0,1,.3.89,3.8,3.8,0,0,1,.13.75A5.59,5.59,0,0,1,42.72,81.07Z" style="fill: #ff5545"/>
                <path d="M49.24,78.83a10.35,10.35,0,0,1-6,3.27c-.21,0-.43.07-.64.09a9.47,9.47,0,0,1-1.07,0A10.57,10.57,0,0,1,39.35,82l-.45-.11a1.5,1.5,0,0,1,0-.22.75.75,0,0,1,0-.21c0-.13,0-.26,0-.4a5,5,0,0,1,.06-.78l0-.17a4.94,4.94,0,0,1,.52-1.53h0a4.76,4.76,0,0,1,.58-.9h0l.25-.3.22-.22L40.7,77l.09-.07a4.15,4.15,0,0,1,.52-.39l.11-.07a5.37,5.37,0,0,1,2.86-.82,5.42,5.42,0,0,1,2.69.71,3.87,3.87,0,0,1,.43.27,5.39,5.39,0,0,1,1.31,1.3A4.9,4.9,0,0,1,49.24,78.83Z" style="fill: #ff5545"/>
              </g>
              <g style="mix-blend-mode: multiply">
                <path d="M42.67,81.86l-.06.33a9.47,9.47,0,0,1-1.07,0A10.57,10.57,0,0,1,39.35,82l-.45-.11A10.34,10.34,0,0,1,33,77.73a5.46,5.46,0,0,1,.93-.93,5.22,5.22,0,0,1,1.83-.94A5,5,0,0,1,37,75.64h.3a5.42,5.42,0,0,1,3.51,1.28l.06.06h0a2.83,2.83,0,0,1,.35.34s0,0,0,0l.06.07a3.91,3.91,0,0,0-.49.34,1.33,1.33,0,0,0-.19-.14s0,0,0,0a1.08,1.08,0,0,0-.18-.11l-.13-.09a3.66,3.66,0,0,0-1.82-.48h-.21a3.86,3.86,0,0,0-.49.06h0a3.49,3.49,0,0,0-.79.26,3.39,3.39,0,0,0-1,.64,4.27,4.27,0,0,0-.36.38s0,0,0,0l-.07.1-.17.25a3.66,3.66,0,0,0-.45,1.12,10.12,10.12,0,0,0,3.27,1.75l.69.19.21,0,.22,0h.12l.32.06a10.45,10.45,0,0,0,1.49.11l.58,0A8.14,8.14,0,0,0,42.67,81.86Z" style="fill: #ffa19c"/>
                <path d="M49.24,78.83a10.35,10.35,0,0,1-6,3.27c-.21,0-.43.07-.64.09a9.47,9.47,0,0,1-1.07,0A10.57,10.57,0,0,1,39.35,82l-.45-.11a1.5,1.5,0,0,1,0-.22l.21,0,.22,0h.12l.32.06a10.45,10.45,0,0,0,1.49.11l.58,0a8.14,8.14,0,0,0,.85-.08l.12,0,.53-.1a10,10,0,0,0,3.45-1.43,4.14,4.14,0,0,0-.18-.93,3.6,3.6,0,0,0-.78-1.31,4,4,0,0,0-.37-.35,1.84,1.84,0,0,0-.22-.17,3.57,3.57,0,0,0-2.08-.65,3.51,3.51,0,0,0-1.22.21l-.4.17h0l-.19.11h0a3.91,3.91,0,0,0-.49.34,1.33,1.33,0,0,0-.19-.14s0,0,0,0a1.08,1.08,0,0,0-.18-.11l-.13-.09.22-.22L40.7,77l.09-.07a4.15,4.15,0,0,1,.52-.39l.11-.07a5.37,5.37,0,0,1,2.86-.82,5.42,5.42,0,0,1,2.69.71,3.87,3.87,0,0,1,.43.27,5.39,5.39,0,0,1,1.31,1.3A4.9,4.9,0,0,1,49.24,78.83Z" style="fill: #ffa19c"/>
              </g>
              <g style="opacity: 0.6000000000000001">
                <path d="M36.78,76.63c.95.19,1.66.65,1.59,1s-.91.53-1.87.34-1.67-.66-1.59-1S35.82,76.43,36.78,76.63Z" style="fill: #fff;mix-blend-mode: screen"/>
                <path d="M39.53,77.25a.67.67,0,0,1,.53.79.67.67,0,1,1-1.32-.26A.67.67,0,0,1,39.53,77.25Z" style="fill: #fff;mix-blend-mode: screen"/>
              </g>
            </g>
          </g>
          <g>
            <path d="M74.51,45.13a1.84,1.84,0,0,1-.54,1.3,1.8,1.8,0,0,1-1.3.54H60.15a1.82,1.82,0,0,1-1.68-1.83A1.84,1.84,0,0,1,60.3,43.3H72.67A1.83,1.83,0,0,1,74.51,45.13Z" style="fill: #c9b3a9;mix-blend-mode: multiply"/>
            <path d="M73.6,44.23a1.83,1.83,0,0,1-.53,1.3,1.87,1.87,0,0,1-1.3.54H59.25a1.83,1.83,0,0,1,.15-3.66H71.77A1.83,1.83,0,0,1,73.6,44.23Z" style="fill: #282828"/>
            <path d="M73.59,44a1,1,0,0,0,0-.25.79.79,0,0,0,0-.13v0a.77.77,0,0,0-.07-.16,1.57,1.57,0,0,0-.28-.44l-.08-.09L73,42.85l-.09-.07-.25-.16-.16-.08-.17-.06-.13,0H72.1l-.1,0H59.4a2,2,0,0,0-.35,0l-.11,0a1.49,1.49,0,0,0-.37.14l-.13.07,0,0-.12.09a.69.69,0,0,0-.13.11l-.06,0a1.81,1.81,0,0,0-.54,1.29,1.64,1.64,0,0,0,0,.22.43.43,0,0,0,0,.11.69.69,0,0,0,0,.13.19.19,0,0,1,0,.08,1.34,1.34,0,0,0,.07.18.31.31,0,0,0,0,.1l.06.11a.35.35,0,0,0,0,.08,1.49,1.49,0,0,0,.15.2.6.6,0,0,0,.08.08,1.58,1.58,0,0,0,.31.26l.11.06.11.06h0l.11.05h0l.11,0a1.64,1.64,0,0,0,.32.05H72.1l.21,0h0l.16-.06.17-.07.14-.09a2,2,0,0,0,.28-.23,1.83,1.83,0,0,0,.53-1.3A1.34,1.34,0,0,0,73.59,44Zm-3,.36a.79.79,0,0,1-.56.23h-10a.8.8,0,0,1-.8-.8.37.37,0,0,1,0-.11.3.3,0,0,1,0-.1.79.79,0,0,1,.77-.6H70a.81.81,0,0,1,.8.81A.8.8,0,0,1,70.59,44.39Z"/>
          </g>
          <g>
            <path d="M10.54,45.13a1.84,1.84,0,0,0,.54,1.3,1.81,1.81,0,0,0,1.3.54H24.9a1.83,1.83,0,0,0-.15-3.66H12.38A1.84,1.84,0,0,0,10.54,45.13Z" style="fill: #c9b3a9;mix-blend-mode: multiply"/>
            <path d="M11.45,44.23a1.8,1.8,0,0,0,.54,1.3,1.83,1.83,0,0,0,1.29.54H25.81a1.83,1.83,0,0,0-.16-3.66H13.28A1.83,1.83,0,0,0,11.45,44.23Z" style="fill: #282828"/>
            <path d="M11.45,44.23a1.8,1.8,0,0,0,.54,1.3,1.27,1.27,0,0,0,.28.23l.14.09.16.07.16.06h0l.2,0H25.81a1.67,1.67,0,0,0,.31-.05l.11,0h.05l.12-.05h0l.11-.06.11-.06a2,2,0,0,0,.32-.26l.07-.08a1.56,1.56,0,0,0,.16-.2s0-.05,0-.08l.06-.11a.31.31,0,0,0,.05-.1,1.34,1.34,0,0,0,.07-.18s0-.06,0-.08l0-.13s0-.07,0-.11a1.64,1.64,0,0,0,0-.22A1.81,1.81,0,0,0,27,42.94l-.06,0-.12-.11-.13-.09,0,0-.12-.07a1.74,1.74,0,0,0-.38-.14.35.35,0,0,0-.11,0,2,2,0,0,0-.35,0H13.05l-.1,0h-.07l-.14,0-.17.06-.16.08-.25.16-.08.07-.1.09L11.9,43a1.83,1.83,0,0,0-.28.44.77.77,0,0,0-.07.16v0l0,.13a1.84,1.84,0,0,0,0,.25A1.34,1.34,0,0,0,11.45,44.23Zm2.77-.41A.81.81,0,0,1,15,43H25a.79.79,0,0,1,.77.6.3.3,0,0,1,0,.1.37.37,0,0,1,0,.11.8.8,0,0,1-.8.8H15a.8.8,0,0,1-.81-.8Z"/>
          </g>
          <path d="M57.22,33l6-7.82c.58-.72,1.13-1.35,1.73-2.06V23H57.77V21.07H67.9l0,1.51-5.93,7.71c-.55.74-1.1,1.4-1.7,2.09v0H68v1.92H57.22Z" style="fill: #202020"/>
          <path d="M55,11.63,58,4.2c.29-.69.58-1.3.9-2v0L53.22,3.75l-.43-1.52L60.7,0,61,1.18,58.08,8.51c-.27.7-.55,1.33-.87,2v.05l6.07-1.71.42,1.5-8.42,2.37Z" style="fill: #202020"/>
          <path d="M70.9,25.12l2.5-6.27c.25-.58.5-1.1.76-1.68v0l-4.74,1.34-.36-1.28,6.67-1.89.27,1-2.48,6.19c-.22.59-.46,1.12-.73,1.69v0l5.12-1.44L78.26,24l-7.1,2Z" style="fill: #202020"/>
          <path d="M67.67,10.07,70,4.39c.22-.53.44-1,.68-1.52v0L66.33,4,66,2.88l6-1.71.24.91L70,7.69c-.2.53-.42,1-.66,1.53v0L74,7.94l.32,1.15-6.44,1.82Z" style="fill: #202020"/>
        </g>
      </g>
    </g>
  </g>
</svg>
