<svg width="165" height="31" viewBox="0 0 165 31" fill="none" xmlns="http://www.w3.org/2000/svg">
<path d="M27.52 30H34.576V18.228C34.576 12.936 31.516 9.624 26.404 9.624C23.416 9.624 21.04 11.28 19.672 13.332C18.34 10.992 15.964 9.624 12.94 9.624C10.204 9.624 8.224 10.848 7.072 12.468V9.804H0.0160001V30H7.072V19.164C7.072 16.968 8.368 15.744 10.456 15.744C12.472 15.744 13.768 16.968 13.768 19.164V30H20.824V19.164C20.824 16.968 22.12 15.744 24.172 15.744C26.188 15.744 27.52 16.968 27.52 19.164V30ZM58.4578 19.884C58.4578 13.476 53.8858 9.552 47.8738 9.552C41.8618 9.552 37.2898 13.476 37.2898 19.884C37.2898 26.328 41.8258 30.252 47.8378 30.252C53.8498 30.252 58.4578 26.328 58.4578 19.884ZM44.4898 19.884C44.4898 17.004 46.0738 15.672 47.8738 15.672C49.6738 15.672 51.2938 17.004 51.2938 19.884C51.2938 22.8 49.6378 24.132 47.8378 24.132C46.0018 24.132 44.4898 22.8 44.4898 19.884ZM81.3445 19.884C81.3445 13.476 76.7725 9.552 70.7605 9.552C64.7485 9.552 60.1765 13.476 60.1765 19.884C60.1765 26.328 64.7125 30.252 70.7245 30.252C76.7365 30.252 81.3445 26.328 81.3445 19.884ZM67.3765 19.884C67.3765 17.004 68.9605 15.672 70.7605 15.672C72.5605 15.672 74.1805 17.004 74.1805 19.884C74.1805 22.8 72.5245 24.132 70.7245 24.132C68.8885 24.132 67.3765 22.8 67.3765 19.884ZM82.5232 9.804L89.4712 30H98.2552L105.203 9.804H97.6792L93.8992 23.34L90.0472 9.804H82.5232ZM107.594 30H114.65V9.804H107.594V30ZM111.158 7.932C113.642 7.932 115.262 6.348 115.262 4.332C115.262 2.28 113.642 0.659998 111.158 0.659998C108.638 0.659998 107.018 2.28 107.018 4.332C107.018 6.348 108.638 7.932 111.158 7.932ZM127.74 15.132C129.36 15.132 130.764 16.104 130.764 17.904H124.536C124.86 16.068 126.048 15.132 127.74 15.132ZM137.532 23.016H130.008C129.612 23.844 128.856 24.6 127.488 24.6C125.904 24.6 124.644 23.664 124.5 21.324H137.856C137.928 20.784 137.964 20.208 137.964 19.668C137.964 13.404 133.752 9.552 127.776 9.552C121.728 9.552 117.516 13.476 117.516 19.884C117.516 26.328 121.8 30.252 127.776 30.252C132.816 30.252 136.596 27.156 137.532 23.016ZM147.908 21.18C147.908 18.084 149.528 17.148 152.444 17.148H154.424V9.624C151.724 9.624 149.42 11.172 147.908 13.368V9.804H140.852V30H147.908V21.18Z" fill="white"/>
<path d="M164.478 26.652C164.478 24.6 162.858 22.98 160.374 22.98C157.854 22.98 156.234 24.6 156.234 26.652C156.234 28.704 157.854 30.288 160.374 30.288C162.858 30.288 164.478 28.704 164.478 26.652Z" fill="#23C06B"/>
</svg>
