<?xml version="1.0" encoding="UTF-8"?>
<svg xmlns="http://www.w3.org/2000/svg" xmlns:xlink="http://www.w3.org/1999/xlink" width="47px" height="48px" viewBox="0 0 47 47" version="1.1">
<defs>
<filter id="alpha" filterUnits="objectBoundingBox" x="0%" y="0%" width="100%" height="100%">
  <feColorMatrix type="matrix" in="SourceGraphic" values="0 0 0 0 1 0 0 0 0 1 0 0 0 0 1 0 0 0 1 0"/>
</filter>
<mask id="mask0">
  <g filter="url(#alpha)">
<rect x="0" y="0" width="47" height="47" style="fill:rgb(0%,0%,0%);fill-opacity:0.501961;stroke:none;"/>
  </g>
</mask>
<clipPath id="clip1">
  <rect x="0" y="0" width="47" height="47"/>
</clipPath>
<g id="surface5" clip-path="url(#clip1)">
<path style=" stroke:none;fill-rule:nonzero;fill:rgb(58.431373%,58.823529%,58.431373%);fill-opacity:1;" d="M 23 3.835938 C 22.65625 3.777344 22.304688 3.746094 21.957031 3.738281 L 21.644531 3.738281 L 21.152344 3.792969 C 20.09375 3.863281 19.097656 4.296875 18.324219 5.015625 C 18.019531 5.304688 17.765625 5.648438 17.574219 6.023438 C 17.351562 6.488281 17.210938 6.988281 17.164062 7.5 C 17.109375 8.03125 17.144531 8.5625 17.261719 9.082031 C 17.328125 9.351562 17.410156 9.617188 17.515625 9.875 C 15.339844 9.035156 13.59375 7.378906 12.660156 5.265625 C 13.308594 5.320312 13.964844 5.273438 14.597656 5.125 C 15.011719 5.027344 15.40625 4.871094 15.773438 4.664062 L 15.828125 4.628906 C 16.816406 4.070312 17.449219 3.050781 17.496094 1.921875 C 17.492188 1.710938 17.453125 1.5 17.378906 1.300781 C 17.332031 1.183594 17.28125 1.070312 17.222656 0.957031 C 17.128906 0.78125 17.019531 0.605469 16.921875 0.417969 C 19.246094 0.929688 21.363281 2.121094 23 3.835938 Z M 23 3.835938 "/>
</g>
<mask id="mask1">
  <g filter="url(#alpha)">
<rect x="0" y="0" width="47" height="47" style="fill:rgb(0%,0%,0%);fill-opacity:0.301961;stroke:none;"/>
  </g>
</mask>
<clipPath id="clip2">
  <rect x="0" y="0" width="47" height="47"/>
</clipPath>
<g id="surface8" clip-path="url(#clip2)">
<path style=" stroke:none;fill-rule:nonzero;fill:rgb(74.901961%,74.901961%,74.901961%);fill-opacity:1;" d="M 11.546875 22.351562 C 11 22.285156 10.566406 22.058594 10.59375 21.84375 C 10.621094 21.625 11.085938 21.496094 11.640625 21.5625 C 12.195312 21.625 12.621094 21.847656 12.59375 22.070312 C 12.566406 22.292969 12.09375 22.410156 11.546875 22.351562 Z M 11.546875 22.351562 "/>
</g>
<mask id="mask2">
  <g filter="url(#alpha)">
<rect x="0" y="0" width="47" height="47" style="fill:rgb(0%,0%,0%);fill-opacity:0.301961;stroke:none;"/>
  </g>
</mask>
<clipPath id="clip3">
  <rect x="0" y="0" width="47" height="47"/>
</clipPath>
<g id="surface11" clip-path="url(#clip3)">
<path style=" stroke:none;fill-rule:nonzero;fill:rgb(74.901961%,74.901961%,74.901961%);fill-opacity:1;" d="M 31.464844 22.351562 C 30.914062 22.285156 30.484375 22.058594 30.511719 21.84375 C 30.539062 21.625 31.003906 21.496094 31.558594 21.5625 C 32.109375 21.625 32.539062 21.847656 32.515625 22.070312 C 32.492188 22.292969 32.015625 22.410156 31.464844 22.351562 Z M 31.464844 22.351562 "/>
</g>
</defs>
<g id="surface1">
<path style=" stroke:none;fill-rule:nonzero;fill:rgb(13.72549%,75.294118%,41.960784%);fill-opacity:1;" d="M 46.957031 23.832031 C 47.015625 36.636719 36.558594 47.066406 23.605469 47.121094 C 10.648438 47.179688 0.0976562 36.84375 0.0429688 24.035156 C 0.0429688 23.960938 0.0429688 23.890625 0.0429688 23.8125 C 0.0429688 11.003906 10.546875 5.511719 23.503906 5.511719 L 24.457031 5.511719 C 33.875 5.714844 41.867188 8.898438 45.242188 15.804688 C 46.425781 18.316406 47.011719 21.0625 46.957031 23.832031 Z M 46.957031 23.832031 "/>
<path style=" stroke:none;fill-rule:nonzero;fill:rgb(13.72549%,75.294118%,41.960784%);fill-opacity:1;" d="M 34.261719 22.976562 C 34.261719 31.773438 27.046875 38.910156 18.144531 38.910156 C 9.242188 38.910156 2.023438 31.773438 2.023438 22.976562 C 2.023438 14.179688 9.242188 10.402344 18.121094 10.402344 C 27.003906 10.402344 34.261719 14.179688 34.261719 22.976562 Z M 34.261719 22.976562 "/>
<path style=" stroke:none;fill-rule:nonzero;fill:rgb(13.72549%,75.294118%,41.960784%);fill-opacity:1;" d="M 45.242188 15.804688 C 41.867188 8.910156 33.875 5.726562 24.457031 5.511719 L 23.503906 5.511719 C 10.546875 5.511719 0.0429688 11.003906 0.0429688 23.832031 C 0.0429688 23.90625 0.0429688 23.976562 0.0429688 24.050781 C 0.105469 36.859375 10.65625 47.191406 23.613281 47.128906 C 36.566406 47.070312 47.019531 36.636719 46.957031 23.832031 C 47.011719 21.0625 46.425781 18.316406 45.242188 15.804688 Z M 21.570312 44.066406 C 19.867188 44.0625 18.175781 43.863281 16.523438 43.464844 C 7.402344 41.222656 0.898438 33.269531 0.589844 23.988281 C 0.589844 23.765625 0.589844 23.53125 0.589844 23.304688 C 0.589844 11.839844 9.96875 6.925781 21.570312 6.925781 C 22.386719 6.925781 23.210938 6.925781 23.980469 7.003906 C 30.878906 7.425781 36.75 9.75 39.960938 14.332031 C 41.605469 16.699219 42.5625 19.671875 42.5625 23.304688 C 42.5625 34.769531 33.164062 44.0625 21.570312 44.066406 Z M 21.570312 44.066406 "/>
<path style=" stroke:none;fill-rule:nonzero;fill:rgb(35.294118%,72.941176%,30.588235%);fill-opacity:1;" d="M 26.273438 10.316406 C 26.273438 10.316406 21.613281 11.492188 17.507812 9.875 C 15.335938 9.035156 13.585938 7.378906 12.65625 5.265625 C 11.960938 3.632812 11.585938 1.882812 11.546875 0.113281 C 13.347656 -0.109375 15.171875 -0.0078125 16.933594 0.410156 C 19.253906 0.929688 21.367188 2.121094 23 3.835938 C 24.648438 5.671875 25.777344 7.910156 26.273438 10.316406 Z M 26.273438 10.316406 "/>
<path style=" stroke:none;fill-rule:nonzero;fill:rgb(58.431373%,58.823529%,58.431373%);fill-opacity:1;" d="M 22.25 6.335938 C 22.25 6.335938 15.085938 8.125 14.769531 1.152344 C 14.769531 1.152344 20.785156 0.164062 22.25 6.335938 Z M 22.25 6.335938 "/>
<path style=" stroke:none;fill-rule:nonzero;fill:rgb(51.372549%,81.176471%,67.843137%);fill-opacity:1;" d="M 21.464844 3.207031 C 21.570312 3.316406 21.679688 3.421875 21.78125 3.542969 L 21.957031 3.738281 C 22.21875 3.742188 22.476562 3.761719 22.734375 3.792969 L 23 3.828125 C 22.980469 3.816406 22.964844 3.804688 22.949219 3.792969 C 22.773438 3.746094 22.601562 3.695312 22.433594 3.632812 L 22.269531 3.574219 L 22.15625 3.53125 L 22 3.464844 L 21.910156 3.429688 L 21.820312 3.429688 L 21.660156 3.351562 Z M 21.464844 3.207031 C 21.570312 3.316406 21.679688 3.421875 21.78125 3.542969 L 21.957031 3.738281 C 22.21875 3.742188 22.476562 3.761719 22.734375 3.792969 L 23 3.828125 C 22.980469 3.816406 22.964844 3.804688 22.949219 3.792969 C 22.773438 3.746094 22.601562 3.695312 22.433594 3.632812 L 22.269531 3.574219 L 22.15625 3.53125 L 22 3.464844 L 21.910156 3.429688 L 21.820312 3.429688 L 21.660156 3.351562 Z M 21.464844 3.207031 C 21.570312 3.316406 21.679688 3.421875 21.78125 3.542969 L 21.957031 3.738281 C 22.21875 3.742188 22.476562 3.761719 22.734375 3.792969 L 23 3.828125 C 22.980469 3.816406 22.964844 3.804688 22.949219 3.792969 C 22.773438 3.746094 22.601562 3.695312 22.433594 3.632812 L 22.269531 3.574219 L 22.15625 3.53125 L 22 3.464844 L 21.910156 3.429688 L 21.820312 3.429688 L 21.660156 3.351562 Z M 21.464844 3.207031 C 21.570312 3.316406 21.679688 3.421875 21.78125 3.542969 L 21.957031 3.738281 C 22.21875 3.742188 22.476562 3.761719 22.734375 3.792969 L 23 3.828125 C 22.980469 3.816406 22.964844 3.804688 22.949219 3.792969 C 22.773438 3.746094 22.601562 3.695312 22.433594 3.632812 L 22.269531 3.574219 L 22.15625 3.53125 L 22 3.464844 L 21.910156 3.429688 L 21.820312 3.429688 L 21.660156 3.351562 Z M 21.464844 3.207031 C 21.570312 3.316406 21.679688 3.421875 21.78125 3.542969 L 21.957031 3.738281 C 22.21875 3.742188 22.476562 3.761719 22.734375 3.792969 L 23 3.828125 C 22.980469 3.816406 22.964844 3.804688 22.949219 3.792969 C 22.773438 3.746094 22.601562 3.695312 22.433594 3.632812 L 22.269531 3.574219 L 22.15625 3.53125 L 22 3.464844 L 21.910156 3.429688 L 21.820312 3.429688 L 21.660156 3.351562 Z M 23.929688 8.082031 L 23.851562 8.082031 L 23.707031 8.113281 L 23.371094 8.113281 L 23.371094 8.238281 C 23.4375 8.265625 23.507812 8.28125 23.578125 8.292969 L 23.792969 8.496094 L 23.824219 8.496094 C 23.824219 8.460938 23.824219 8.421875 23.824219 8.382812 C 23.824219 8.328125 23.824219 8.273438 23.824219 8.214844 C 23.824219 8.214844 23.824219 8.214844 23.824219 8.183594 Z M 11.589844 0.109375 L 11.546875 0.109375 C 11.546875 0.207031 11.546875 0.292969 11.546875 0.382812 L 11.546875 0.660156 C 11.546875 0.699219 11.546875 0.730469 11.546875 0.769531 L 11.546875 0.8125 C 11.546875 0.90625 11.546875 0.992188 11.574219 1.078125 C 11.601562 1.164062 11.574219 1.265625 11.601562 1.363281 L 11.636719 1.613281 C 11.632812 1.644531 11.632812 1.679688 11.636719 1.710938 C 11.636719 1.878906 11.683594 2.046875 11.710938 2.210938 L 11.710938 2.273438 C 11.710938 2.351562 11.738281 2.433594 11.753906 2.511719 C 11.753906 2.535156 11.753906 2.554688 11.753906 2.578125 C 11.753906 2.648438 11.753906 2.71875 11.800781 2.785156 C 11.84375 2.847656 11.859375 3.066406 11.894531 3.195312 C 11.894531 3.234375 11.894531 3.277344 11.894531 3.316406 C 11.894531 3.34375 11.894531 3.371094 11.894531 3.402344 L 11.925781 3.519531 C 11.925781 3.589844 11.964844 3.660156 11.984375 3.726562 C 11.996094 3.777344 12.011719 3.828125 12.03125 3.878906 C 12.03125 3.9375 12.0625 3.996094 12.085938 4.0625 C 12.105469 4.128906 12.113281 4.132812 12.121094 4.171875 C 12.121094 4.195312 12.121094 4.21875 12.121094 4.242188 L 12.222656 4.527344 L 12.253906 4.609375 L 12.292969 4.710938 L 12.320312 4.789062 L 12.320312 4.847656 C 12.324219 4.871094 12.335938 4.890625 12.347656 4.914062 C 12.355469 4.9375 12.363281 4.964844 12.375 4.988281 L 12.375 5.035156 C 12.402344 5.089844 12.425781 5.144531 12.445312 5.199219 L 12.480469 5.265625 C 12.480469 5.320312 12.527344 5.378906 12.554688 5.433594 L 12.554688 5.464844 C 12.5625 5.488281 12.574219 5.511719 12.589844 5.53125 L 12.6875 5.71875 C 12.6875 5.773438 12.742188 5.832031 12.773438 5.886719 C 12.808594 5.941406 12.902344 6.109375 12.964844 6.21875 L 13 6.273438 C 13.085938 6.417969 13.1875 6.5625 13.285156 6.703125 L 13.4375 6.917969 L 13.738281 7.039062 L 13.777344 7.089844 C 13.84375 7.171875 13.902344 7.253906 13.976562 7.332031 C 14.121094 7.511719 14.28125 7.691406 14.445312 7.875 L 14.566406 8 L 14.6875 8.117188 L 14.746094 8.171875 L 14.828125 8.253906 L 15.101562 8.488281 C 15.53125 8.828125 15.992188 9.128906 16.480469 9.378906 L 16.660156 9.472656 L 16.742188 9.515625 L 16.960938 9.617188 L 17.101562 9.6875 L 17.207031 9.734375 L 17.53125 9.867188 L 17.726562 9.945312 L 17.773438 9.945312 L 17.925781 9.996094 C 18.0625 10.046875 18.195312 10.09375 18.332031 10.132812 L 18.421875 10.160156 L 18.488281 10.160156 L 18.597656 10.1875 L 18.742188 10.230469 L 18.9375 10.28125 L 19.054688 10.304688 L 19.238281 10.351562 L 19.289062 10.351562 L 19.464844 10.386719 L 19.523438 10.386719 C 19.601562 10.386719 19.683594 10.421875 19.761719 10.4375 L 19.972656 10.46875 L 24.164062 10.46875 L 24.523438 10.425781 L 24.695312 10.425781 L 24.921875 10.394531 L 25.246094 10.394531 L 25.480469 10.355469 L 25.605469 10.355469 L 25.835938 10.3125 L 26.273438 10.3125 C 26.273438 10.3125 26.273438 10.285156 26.273438 10.269531 C 26.265625 10.21875 26.253906 10.167969 26.238281 10.117188 L 26.238281 10.050781 C 26.238281 10.003906 26.238281 9.949219 26.199219 9.894531 L 26.199219 9.824219 C 26.199219 9.792969 26.199219 9.757812 26.199219 9.726562 C 26.199219 9.703125 26.199219 9.679688 26.199219 9.65625 L 26.199219 9.546875 C 26.199219 9.546875 26.199219 9.546875 26.199219 9.519531 L 26.199219 9.378906 C 26.199219 9.355469 26.199219 9.328125 26.199219 9.304688 L 26.199219 9.234375 C 26.199219 9.207031 26.199219 9.179688 26.171875 9.152344 C 26.171875 9.152344 26.171875 9.152344 26.171875 9.121094 L 26.171875 9.035156 C 26.160156 8.996094 26.148438 8.960938 26.132812 8.925781 L 26.132812 8.882812 L 26.101562 8.789062 C 26.101562 8.789062 26.101562 8.746094 26.101562 8.730469 C 26.101562 8.714844 26.101562 8.703125 26.101562 8.6875 C 26.101562 8.660156 26.101562 8.636719 26.101562 8.617188 L 26.039062 8.453125 C 26.019531 8.410156 26 8.363281 25.984375 8.320312 C 25.984375 8.304688 25.984375 8.289062 25.984375 8.277344 C 25.988281 8.265625 25.988281 8.253906 25.984375 8.242188 L 25.984375 8.199219 C 25.96875 8.167969 25.953125 8.136719 25.941406 8.101562 C 25.941406 8.089844 25.941406 8.074219 25.941406 8.058594 L 25.902344 7.96875 C 25.886719 7.925781 25.871094 7.882812 25.847656 7.84375 C 25.835938 7.8125 25.824219 7.785156 25.808594 7.761719 L 25.144531 7.039062 L 25.089844 6.925781 C 25.082031 6.910156 25.074219 6.890625 25.0625 6.871094 L 25.007812 6.757812 L 24.945312 6.640625 L 24.863281 6.476562 L 24.785156 6.34375 L 24.6875 6.167969 L 24.660156 6.132812 L 24.558594 5.957031 C 24.558594 5.957031 24.558594 5.902344 24.515625 5.882812 L 24.472656 5.804688 L 24.359375 5.628906 L 24.3125 5.566406 L 24.3125 5.519531 C 24.296875 5.5 24.28125 5.480469 24.269531 5.460938 L 24.164062 5.3125 L 24.074219 5.183594 L 23.929688 4.984375 C 23.910156 4.949219 23.886719 4.917969 23.859375 4.890625 L 23.804688 4.816406 L 23.75 4.746094 L 23.640625 4.609375 L 23.570312 4.515625 L 23.507812 4.453125 C 23.492188 4.425781 23.472656 4.402344 23.453125 4.382812 L 23.34375 4.261719 L 23.34375 4.230469 L 23.175781 4.039062 C 23.066406 3.992188 22.984375 3.902344 22.949219 3.792969 L 22.679688 3.515625 L 22.542969 3.386719 C 22.417969 3.261719 22.292969 3.148438 22.160156 3.03125 L 21.957031 2.859375 L 21.859375 2.785156 L 21.683594 2.644531 L 21.628906 2.601562 L 21.550781 2.539062 L 21.410156 2.421875 L 21.167969 2.253906 C 20.890625 2.0625 20.621094 1.890625 20.324219 1.710938 L 20.121094 1.625 C 19.804688 1.445312 19.488281 1.292969 19.167969 1.152344 L 18.933594 1.054688 L 18.835938 1.019531 L 18.703125 0.964844 L 18.597656 0.964844 L 18.46875 0.914062 L 18.277344 0.84375 L 18.121094 0.753906 L 17.875 0.671875 L 17.820312 0.671875 L 17.519531 0.585938 L 17.382812 0.542969 L 17.234375 0.488281 L 16.9375 0.410156 L 16.734375 0.367188 L 16.539062 0.324219 L 16.28125 0.269531 L 16.03125 0.269531 L 15.929688 0.207031 L 15.054688 0.207031 L 14.835938 0.0664062 L 11.601562 0.0664062 Z M 13.449219 0.746094 C 14.492188 0.617188 15.550781 0.636719 16.589844 0.8125 L 17.242188 0.941406 C 17.578125 1.019531 17.914062 1.117188 18.242188 1.230469 C 18.847656 1.433594 19.429688 1.707031 19.972656 2.042969 C 20.066406 2.101562 20.167969 2.160156 20.265625 2.230469 C 20.632812 2.476562 20.980469 2.753906 21.300781 3.054688 L 21.460938 3.207031 C 21.5625 3.316406 21.671875 3.421875 21.777344 3.542969 L 21.957031 3.738281 C 22.363281 4.222656 22.71875 4.746094 23.007812 5.308594 L 23.035156 5.355469 C 23.070312 5.417969 23.101562 5.476562 23.128906 5.539062 L 23.179688 5.644531 C 23.210938 5.703125 23.238281 5.769531 23.273438 5.832031 C 23.359375 6.023438 23.441406 6.222656 23.519531 6.421875 C 23.519531 6.492188 23.574219 6.5625 23.597656 6.632812 C 23.617188 6.703125 23.683594 6.871094 23.722656 6.996094 C 23.761719 7.121094 23.816406 7.285156 23.851562 7.429688 C 23.878906 7.523438 23.902344 7.613281 23.929688 7.710938 L 23.972656 7.890625 C 23.976562 7.910156 23.976562 7.925781 23.972656 7.945312 C 23.976562 7.957031 23.976562 7.96875 23.972656 7.984375 C 23.972656 8.011719 23.972656 8.039062 23.972656 8.0625 L 23.804688 8.0625 L 23.65625 8.097656 L 23.140625 8.097656 L 22.933594 8.125 L 22.652344 8.160156 L 22.292969 8.195312 L 21.957031 8.195312 C 21.738281 8.195312 21.503906 8.195312 21.261719 8.195312 L 20.769531 8.195312 C 20.414062 8.183594 20.0625 8.152344 19.710938 8.101562 L 19.625 8.101562 C 18.867188 7.996094 18.128906 7.785156 17.433594 7.472656 C 17.351562 7.4375 17.273438 7.402344 17.195312 7.359375 L 17.164062 7.359375 L 17.054688 7.300781 C 16.863281 7.203125 16.683594 7.089844 16.507812 6.96875 L 16.398438 6.898438 C 16.105469 6.699219 15.832031 6.46875 15.585938 6.21875 C 15.480469 6.113281 15.378906 6.007812 15.277344 5.894531 C 15.054688 5.679688 14.851562 5.445312 14.664062 5.199219 C 14.648438 5.179688 14.632812 5.15625 14.621094 5.132812 L 14.441406 4.808594 C 14.371094 4.667969 14.296875 4.515625 14.226562 4.367188 C 13.75 3.214844 13.488281 1.988281 13.449219 0.746094 Z M 21.464844 3.207031 C 21.570312 3.316406 21.679688 3.421875 21.78125 3.542969 L 21.957031 3.738281 C 22.21875 3.742188 22.476562 3.761719 22.734375 3.792969 L 23 3.828125 C 22.980469 3.816406 22.964844 3.804688 22.949219 3.792969 C 22.773438 3.746094 22.601562 3.695312 22.433594 3.632812 L 22.269531 3.574219 L 22.15625 3.53125 L 22 3.464844 L 21.910156 3.429688 L 21.820312 3.429688 L 21.660156 3.351562 Z M 21.464844 3.207031 C 21.570312 3.316406 21.679688 3.421875 21.78125 3.542969 L 21.957031 3.738281 C 22.21875 3.742188 22.476562 3.761719 22.734375 3.792969 L 23 3.828125 C 22.980469 3.816406 22.964844 3.804688 22.949219 3.792969 C 22.773438 3.746094 22.601562 3.695312 22.433594 3.632812 L 22.269531 3.574219 L 22.15625 3.53125 L 22 3.464844 L 21.910156 3.429688 L 21.820312 3.429688 L 21.660156 3.351562 Z M 21.464844 3.207031 C 21.570312 3.316406 21.679688 3.421875 21.78125 3.542969 L 21.957031 3.738281 C 22.21875 3.742188 22.476562 3.761719 22.734375 3.792969 L 23 3.828125 C 22.980469 3.816406 22.964844 3.804688 22.949219 3.792969 C 22.773438 3.746094 22.601562 3.695312 22.433594 3.632812 L 22.269531 3.574219 L 22.15625 3.53125 L 22 3.464844 L 21.910156 3.429688 L 21.820312 3.429688 L 21.660156 3.351562 Z M 21.464844 3.207031 C 21.570312 3.316406 21.679688 3.421875 21.78125 3.542969 L 21.957031 3.738281 C 22.21875 3.742188 22.476562 3.761719 22.734375 3.792969 L 23 3.828125 C 22.980469 3.816406 22.964844 3.804688 22.949219 3.792969 C 22.773438 3.746094 22.601562 3.695312 22.433594 3.632812 L 22.269531 3.574219 L 22.15625 3.53125 L 22 3.464844 L 21.910156 3.429688 L 21.820312 3.429688 L 21.660156 3.351562 Z M 21.464844 3.207031 C 21.570312 3.316406 21.679688 3.421875 21.78125 3.542969 L 21.957031 3.738281 C 22.21875 3.742188 22.476562 3.761719 22.734375 3.792969 L 23 3.828125 C 22.980469 3.816406 22.964844 3.804688 22.949219 3.792969 C 22.773438 3.746094 22.601562 3.695312 22.433594 3.632812 L 22.269531 3.574219 L 22.15625 3.53125 L 22 3.464844 L 21.910156 3.429688 L 21.820312 3.429688 L 21.660156 3.351562 Z M 21.464844 3.207031 C 21.570312 3.316406 21.679688 3.421875 21.78125 3.542969 L 21.957031 3.738281 C 22.21875 3.742188 22.476562 3.761719 22.734375 3.792969 L 23 3.828125 C 22.980469 3.816406 22.964844 3.804688 22.949219 3.792969 C 22.773438 3.746094 22.601562 3.695312 22.433594 3.632812 L 22.269531 3.574219 L 22.15625 3.53125 L 22 3.464844 L 21.910156 3.429688 L 21.820312 3.429688 L 21.660156 3.351562 Z M 21.464844 3.207031 "/>
<use xlink:href="#surface5" mask="url(#mask0)"/>
<path style=" stroke:none;fill-rule:nonzero;fill:rgb(92.941176%,93.333333%,93.72549%);fill-opacity:1;" d="M 19.261719 2.898438 C 18.714844 2.609375 18.363281 2.203125 18.480469 1.992188 C 18.59375 1.78125 19.128906 1.835938 19.679688 2.117188 C 20.226562 2.398438 20.582031 2.8125 20.46875 3.023438 C 20.351562 3.234375 19.816406 3.183594 19.261719 2.898438 Z M 19.261719 2.898438 "/>
<path style=" stroke:none;fill-rule:nonzero;fill:rgb(92.941176%,93.333333%,93.72549%);fill-opacity:1;" d="M 17.828125 2.015625 C 17.640625 1.917969 17.566406 1.6875 17.664062 1.503906 C 17.761719 1.316406 17.996094 1.246094 18.183594 1.34375 C 18.28125 1.390625 18.351562 1.476562 18.382812 1.578125 C 18.410156 1.683594 18.398438 1.792969 18.339844 1.886719 C 18.234375 2.058594 18.003906 2.117188 17.828125 2.015625 Z M 17.828125 2.015625 "/>
<path style=" stroke:none;fill-rule:nonzero;fill:rgb(26.666667%,66.666667%,47.45098%);fill-opacity:1;" d="M 15.382812 2.5625 C 15.929688 2.84375 16.480469 3.148438 17.027344 3.464844 L 17.667969 3.851562 C 17.996094 4.050781 18.320312 4.261719 18.644531 4.46875 L 18.796875 4.578125 C 18.855469 4.609375 18.910156 4.644531 18.964844 4.683594 C 19.367188 4.957031 19.761719 5.226562 20.15625 5.519531 C 20.550781 5.8125 21.015625 6.152344 21.410156 6.5 L 21.707031 6.738281 C 22.050781 7.007812 22.386719 7.277344 22.71875 7.59375 L 23.140625 7.972656 L 23.394531 8.210938 L 23.824219 8.621094 L 24.164062 8.945312 L 24.488281 9.289062 L 24.652344 9.460938 L 25.085938 9.917969 L 25.136719 9.972656 L 25.535156 10.429688 L 25.574219 10.472656 L 25.628906 10.539062 L 25.722656 10.648438 L 25.722656 10.679688 L 26.339844 10.421875 L 26.265625 10.339844 C 26.265625 10.339844 26.265625 10.339844 26.238281 10.339844 C 26.210938 10.339844 26.238281 10.339844 26.238281 10.339844 L 26.199219 10.296875 L 26.074219 10.164062 L 25.988281 10.078125 L 25.941406 10.023438 L 25.898438 9.976562 L 25.792969 9.820312 L 25.605469 9.617188 L 25.566406 9.582031 L 25.519531 9.53125 C 25.3125 9.320312 25.089844 9.113281 24.878906 8.910156 L 24.539062 8.574219 L 24.148438 8.257812 L 23.953125 8.085938 L 23.789062 7.941406 C 23.671875 7.832031 23.550781 7.730469 23.429688 7.625 C 22.933594 7.21875 22.445312 6.808594 21.929688 6.433594 L 21.898438 6.40625 C 21.039062 5.761719 20.15625 5.152344 19.238281 4.582031 L 19.027344 4.453125 L 18.78125 4.304688 C 18.359375 4.050781 17.9375 3.808594 17.507812 3.570312 L 17.121094 3.359375 C 16.570312 3.058594 15.980469 2.777344 15.398438 2.519531 Z M 15.382812 2.5625 "/>
<path style=" stroke:none;fill-rule:nonzero;fill:rgb(26.666667%,66.666667%,47.45098%);fill-opacity:1;" d="M 15.574219 2.410156 C 16.121094 2.675781 16.644531 2.953125 17.164062 3.265625 L 17.4375 3.429688 C 17.917969 3.710938 18.394531 4.011719 18.863281 4.316406 L 19.027344 4.429688 L 19.230469 4.566406 C 20.007812 5.105469 20.761719 5.648438 21.492188 6.226562 L 21.726562 6.417969 L 21.890625 6.554688 C 22.386719 6.941406 22.84375 7.367188 23.316406 7.777344 L 23.671875 8.113281 L 24 8.425781 L 24.339844 8.753906 L 24.667969 9.09375 L 25.167969 9.636719 L 25.316406 9.792969 L 25.578125 10.089844 L 25.777344 10.324219 L 25.816406 10.367188 L 25.914062 10.480469 L 25.945312 10.523438 L 26.539062 10.28125 L 26.40625 10.140625 L 26.40625 10.113281 L 26.320312 10.019531 L 26.269531 9.964844 L 26.230469 9.921875 L 26.199219 9.890625 L 26.074219 9.75 L 26.027344 9.699219 L 25.792969 9.433594 L 25.484375 9.132812 L 25.144531 8.804688 L 25.101562 8.761719 L 24.757812 8.433594 L 24.367188 8.125 L 23.957031 7.761719 L 23.671875 7.511719 C 23.203125 7.128906 22.734375 6.738281 22.253906 6.378906 L 22.171875 6.320312 C 21.238281 5.609375 20.265625 4.945312 19.261719 4.332031 L 19.082031 4.21875 L 18.984375 4.160156 C 18.433594 3.828125 17.886719 3.507812 17.304688 3.207031 L 17.222656 3.164062 C 16.675781 2.882812 16.128906 2.621094 15.582031 2.371094 Z M 15.574219 2.410156 "/>
<path style=" stroke:none;fill-rule:nonzero;fill:rgb(35.686275%,25.882353%,9.019608%);fill-opacity:1;" d="M 39.839844 6.652344 L 39.839844 6.683594 C 39.519531 7.464844 38.617188 7.84375 37.824219 7.527344 C 37.773438 7.511719 37.71875 7.488281 37.671875 7.464844 C 36.730469 6.949219 35.714844 6.585938 34.664062 6.378906 C 33.640625 6.183594 32.585938 6.214844 31.578125 6.472656 C 30.542969 6.753906 29.574219 7.25 28.746094 7.929688 C 28.3125 8.277344 27.910156 8.664062 27.546875 9.082031 C 27.175781 9.492188 26.847656 9.929688 26.558594 10.398438 L 26.53125 10.441406 C 26.429688 10.613281 26.261719 10.738281 26.0625 10.785156 C 25.867188 10.835938 25.660156 10.804688 25.484375 10.703125 C 25.152344 10.507812 25.015625 10.101562 25.167969 9.75 C 25.308594 9.445312 25.464844 9.148438 25.640625 8.859375 C 25.804688 8.578125 25.980469 8.320312 26.1875 8.042969 C 26.558594 7.503906 26.976562 7 27.4375 6.53125 C 28.402344 5.570312 29.558594 4.820312 30.839844 4.332031 C 32.15625 3.839844 33.570312 3.640625 34.976562 3.757812 C 36.335938 3.867188 37.675781 4.179688 38.941406 4.683594 C 39.738281 4.984375 40.140625 5.863281 39.839844 6.652344 Z M 39.839844 6.652344 "/>
<path style=" stroke:none;fill-rule:nonzero;fill:rgb(55.686275%,41.176471%,20%);fill-opacity:1;" d="M 39.839844 6.652344 C 31.988281 0.597656 26.488281 8.957031 25.464844 10.695312 C 25.140625 10.496094 25.015625 10.09375 25.167969 9.75 C 25.308594 9.445312 25.464844 9.148438 25.640625 8.859375 C 25.804688 8.578125 25.980469 8.320312 26.1875 8.042969 C 26.558594 7.503906 26.976562 7 27.4375 6.53125 C 28.402344 5.570312 29.558594 4.820312 30.839844 4.332031 C 32.15625 3.839844 33.570312 3.640625 34.976562 3.757812 C 36.335938 3.867188 37.675781 4.179688 38.941406 4.683594 C 39.738281 4.984375 40.140625 5.863281 39.839844 6.652344 Z M 39.839844 6.652344 "/>
<path style=" stroke:none;fill-rule:nonzero;fill:rgb(100%,100%,100%);fill-opacity:1;" d="M 17.535156 21.371094 C 17.539062 19.722656 16.503906 18.25 14.9375 17.675781 C 13.375 17.105469 11.617188 17.558594 10.535156 18.808594 C 9.390625 20.132812 9.261719 22.042969 10.222656 23.503906 C 11.179688 24.964844 12.992188 25.628906 14.683594 25.136719 C 16.371094 24.644531 17.53125 23.113281 17.535156 21.371094 Z M 17.535156 21.371094 "/>
<path style=" stroke:none;fill-rule:nonzero;fill:rgb(15.686275%,15.686275%,15.686275%);fill-opacity:1;" d="M 16.226562 20.726562 C 16.226562 22.546875 14.734375 24.019531 12.894531 24.019531 C 11.054688 24.019531 9.5625 22.546875 9.5625 20.726562 C 9.5625 18.910156 11.054688 17.433594 12.894531 17.433594 C 14.734375 17.433594 16.226562 18.910156 16.226562 20.726562 Z M 16.226562 20.726562 "/>
<path style=" stroke:none;fill-rule:nonzero;fill:rgb(78.823529%,78.823529%,78.823529%);fill-opacity:1;" d="M 13.625 20.375 C 13.625 21.097656 13.183594 21.746094 12.511719 22.023438 C 11.835938 22.296875 11.058594 22.144531 10.546875 21.632812 C 10.03125 21.121094 9.878906 20.355469 10.15625 19.6875 C 10.4375 19.023438 11.097656 18.589844 11.828125 18.59375 C 12.820312 18.597656 13.625 19.394531 13.625 20.375 Z M 13.625 20.375 "/>
<path style=" stroke:none;fill-rule:nonzero;fill:rgb(0%,0%,0%);fill-opacity:1;" d="M 12.894531 17.433594 C 11.054688 17.433594 9.5625 18.910156 9.5625 20.726562 C 9.5625 22.546875 11.054688 24.019531 12.894531 24.019531 C 14.734375 24.019531 16.226562 22.546875 16.226562 20.726562 C 16.226562 18.910156 14.734375 17.433594 12.894531 17.433594 Z M 12.183594 22.746094 C 10.867188 22.746094 9.800781 21.691406 9.800781 20.390625 C 9.800781 19.089844 10.867188 18.035156 12.183594 18.035156 C 13.5 18.035156 14.566406 19.089844 14.566406 20.390625 C 14.566406 21.691406 13.5 22.746094 12.183594 22.746094 Z M 12.183594 22.746094 "/>
<path style=" stroke:none;fill-rule:nonzero;fill:rgb(100%,100%,100%);fill-opacity:1;" d="M 12.671875 20.023438 C 12.671875 20.558594 12.230469 20.992188 11.691406 20.992188 C 11.148438 20.992188 10.710938 20.558594 10.710938 20.023438 C 10.710938 19.488281 11.148438 19.054688 11.691406 19.054688 C 12.230469 19.054688 12.671875 19.488281 12.671875 20.023438 Z M 12.671875 20.023438 "/>
<path style=" stroke:none;fill-rule:nonzero;fill:rgb(100%,100%,100%);fill-opacity:1;" d="M 14.726562 22.675781 C 14.726562 22.992188 14.46875 23.246094 14.148438 23.246094 C 13.832031 23.246094 13.574219 22.992188 13.574219 22.675781 C 13.574219 22.363281 13.832031 22.109375 14.148438 22.109375 C 14.46875 22.109375 14.726562 22.363281 14.726562 22.675781 Z M 14.726562 22.675781 "/>
<use xlink:href="#surface8" mask="url(#mask1)"/>
<path style=" stroke:none;fill-rule:nonzero;fill:rgb(100%,100%,100%);fill-opacity:1;" d="M 37.445312 21.371094 C 37.457031 19.496094 36.128906 17.871094 34.273438 17.488281 C 32.414062 17.101562 30.539062 18.0625 29.785156 19.785156 C 29.035156 21.507812 29.609375 23.515625 31.164062 24.589844 C 32.722656 25.664062 34.828125 25.507812 36.203125 24.214844 C 36.992188 23.472656 37.441406 22.449219 37.445312 21.371094 Z M 37.445312 21.371094 "/>
<path style=" stroke:none;fill-rule:nonzero;fill:rgb(15.686275%,15.686275%,15.686275%);fill-opacity:1;" d="M 36.144531 20.726562 C 36.144531 22.546875 34.652344 24.019531 32.8125 24.019531 C 30.972656 24.019531 29.480469 22.546875 29.480469 20.726562 C 29.480469 18.910156 30.972656 17.433594 32.8125 17.433594 C 34.652344 17.433594 36.144531 18.910156 36.144531 20.726562 Z M 36.144531 20.726562 "/>
<path style=" stroke:none;fill-rule:nonzero;fill:rgb(78.823529%,78.823529%,78.823529%);fill-opacity:1;" d="M 33.539062 20.375 C 33.539062 21.359375 32.734375 22.15625 31.738281 22.15625 C 30.742188 22.15625 29.933594 21.359375 29.933594 20.375 C 29.933594 19.390625 30.742188 18.59375 31.738281 18.59375 C 32.734375 18.59375 33.539062 19.390625 33.539062 20.375 Z M 33.539062 20.375 "/>
<path style=" stroke:none;fill-rule:nonzero;fill:rgb(0%,0%,0%);fill-opacity:1;" d="M 32.8125 17.433594 C 30.972656 17.433594 29.480469 18.910156 29.480469 20.726562 C 29.480469 22.546875 30.972656 24.019531 32.8125 24.019531 C 34.652344 24.019531 36.144531 22.546875 36.144531 20.726562 C 36.144531 18.910156 34.652344 17.433594 32.8125 17.433594 Z M 32.09375 22.746094 C 30.777344 22.746094 29.710938 21.691406 29.710938 20.390625 C 29.710938 19.089844 30.777344 18.035156 32.09375 18.035156 C 33.410156 18.035156 34.476562 19.089844 34.476562 20.390625 C 34.476562 21.691406 33.410156 22.746094 32.09375 22.746094 Z M 32.09375 22.746094 "/>
<path style=" stroke:none;fill-rule:nonzero;fill:rgb(100%,100%,100%);fill-opacity:1;" d="M 32.585938 20.023438 C 32.585938 20.558594 32.148438 20.992188 31.605469 20.992188 C 31.066406 20.992188 30.625 20.558594 30.625 20.023438 C 30.625 19.488281 31.066406 19.054688 31.605469 19.054688 C 32.148438 19.054688 32.585938 19.488281 32.585938 20.023438 Z M 32.585938 20.023438 "/>
<path style=" stroke:none;fill-rule:nonzero;fill:rgb(100%,100%,100%);fill-opacity:1;" d="M 34.636719 22.675781 C 34.636719 22.992188 34.378906 23.246094 34.0625 23.246094 C 33.742188 23.246094 33.484375 22.992188 33.484375 22.675781 C 33.484375 22.363281 33.742188 22.109375 34.0625 22.109375 C 34.378906 22.109375 34.636719 22.363281 34.636719 22.675781 Z M 34.636719 22.675781 "/>
<use xlink:href="#surface11" mask="url(#mask2)"/>
</g>
</svg>
