<svg xmlns="http://www.w3.org/2000/svg" viewBox="0 0 85.63 86.78">
  <g style="isolation: isolate">
    <g id="Layer_2" data-name="Layer 2">
      <g id="OBJECT">
        <g>
          <g>
            <g>
              <path d="M85.63,44A42.81,42.81,0,0,1,0,44.38c0-.14,0-.27,0-.41C0,20.32,19.17,10.18,42.82,10.18l1.74,0c17.19.37,31.78,6.25,37.94,19A33.56,33.56,0,0,1,85.63,44Z" style="fill: #23c06b"/>
              <path d="M62.46,42.42a29.42,29.42,0,1,1-58.84,0C3.62,26.18,16.79,19.21,33,19.21S62.46,26.18,62.46,42.42Z" style="fill: #23c06b"/>
              <path d="M82.5,29.18c-6.16-12.73-20.75-18.61-37.94-19l-1.74,0C19.17,10.18,0,20.32,0,44c0,.14,0,.27,0,.41A42.81,42.81,0,0,0,85.63,44,33.56,33.56,0,0,0,82.5,29.18ZM39.29,81.36a38.84,38.84,0,0,1-9.21-1.11A38.35,38.35,0,0,1,1,44.29c0-.41,0-.84,0-1.26C1,21.86,18.12,12.79,39.29,12.79c1.49,0,3,0,4.4.14C56.28,13.71,67,18,72.86,26.46h0c3,4.37,4.75,9.86,4.75,16.57A38.33,38.33,0,0,1,39.29,81.36Z" style="fill: #23c06b"/>
            </g>
            <g>
              <path d="M47.88,19.05s-8.51,2.17-16-.82h0a16,16,0,0,1-8.86-8.51A26,26,0,0,1,21,.21a27.36,27.36,0,0,1,9.83.55A21.79,21.79,0,0,1,41.9,7.08,25.84,25.84,0,0,1,47.88,19.05Z" style="fill: #5aba4e"/>
              <path d="M40.53,11.7S27.46,15,26.88,2.13C26.88,2.13,37.86.3,40.53,11.7Z" style="fill: #959695;mix-blend-mode: overlay"/>
              <path d="M39.1,5.92c.19.2.39.4.58.62L40,6.9A13.76,13.76,0,0,1,41.42,7l.48.07A.76.76,0,0,1,41.81,7a9.75,9.75,0,0,1-.94-.29l-.3-.11-.21-.08-.28-.12-.17-.07-.07,0-.09,0-.29-.14Zm0,0c.19.2.39.4.58.62L40,6.9A13.76,13.76,0,0,1,41.42,7l.48.07A.76.76,0,0,1,41.81,7a9.75,9.75,0,0,1-.94-.29l-.3-.11-.21-.08-.28-.12-.17-.07-.07,0-.09,0-.29-.14Zm0,0c.19.2.39.4.58.62L40,6.9A13.76,13.76,0,0,1,41.42,7l.48.07A.76.76,0,0,1,41.81,7a9.75,9.75,0,0,1-.94-.29l-.3-.11-.21-.08-.28-.12-.17-.07-.07,0-.09,0-.29-.14Zm0,0c.19.2.39.4.58.62L40,6.9A13.76,13.76,0,0,1,41.42,7l.48.07A.76.76,0,0,1,41.81,7a9.75,9.75,0,0,1-.94-.29l-.3-.11-.21-.08-.28-.12-.17-.07-.07,0-.09,0-.29-.14Zm0,0c.19.2.39.4.58.62L40,6.9A13.76,13.76,0,0,1,41.42,7l.48.07A.76.76,0,0,1,41.81,7a9.75,9.75,0,0,1-.94-.29l-.3-.11-.21-.08-.28-.12-.17-.07-.07,0-.09,0-.29-.14Zm4.5,9-.14,0-.27.06-.23,0-.22,0-.16,0,0,.23a1.64,1.64,0,0,0,.38.1l.39.38h.06a1.48,1.48,0,0,1,0-.21,19.07,19.07,0,0,1,0-.31v0s0,0,0-.06ZM21.08.2H21c0,.18,0,.34,0,.51V.78l0,.44,0,.2V1.5c0,.17,0,.33.05.49s0,.35.05.53l.06.46a1.1,1.1,0,0,0,0,.18c0,.31.09.62.14.92l0,.12c0,.14.05.29.08.44a.5.5,0,0,0,0,.12c0,.13,0,.26.08.38s.11.52.17.76c0,.07,0,.15,0,.22a.94.94,0,0,1,0,.16l.06.22c0,.13.07.26.11.38a2.29,2.29,0,0,0,.08.28c0,.11.06.22.1.34s.05.13.07.2a.93.93,0,0,0,0,.13l.18.53h0l.06.15.07.19.05.14,0,.11a.43.43,0,0,0,.05.12.78.78,0,0,0,.05.14l0,.09c.05.1.09.2.13.3h0l.06.12,0,0c0,.1.09.21.14.31l0,.06h0a.34.34,0,0,0,.06.12h0l.18.35c0,.1.1.21.16.31s.23.41.35.61l.06.1,0,0c.16.27.34.54.52.8l0,0,.28.39L25,13l.07.09c.12.15.23.3.36.45.27.33.56.66.86,1l.22.23.22.22h0l.11.1.15.15.5.43A15.41,15.41,0,0,0,30,17.32h0l.33.17.15.08.4.19.26.13.19.08.59.25.36.14.08,0,.28.1c.25.09.49.18.74.25l.17.05.12,0,.2.05.26.08.36.09.21.05.34.08.09,0,.32.07.11,0c.14,0,.29.06.43.09l.39.06h0l.22,0,.12,0h0l.24,0h.27l.13,0,.34,0,.3,0,.33,0h.06l.36,0,.59,0h2.79l.43,0h.13l.39,0h.68l.27,0h0l.65-.08H45l.41-.06h0l.22,0h.14l.14,0H46l.43-.07h.23l.42-.08h0l.09,0h0l.18,0,.07,0h.07l.11,0h.28s0-.05,0-.08a2.86,2.86,0,0,0-.07-.28l0-.12c0-.09,0-.19-.07-.29h0a.08.08,0,0,1,0,0v0h0l0-.13c0-.06,0-.12,0-.18h0v0a.65.65,0,0,0,0-.13h0l0-.12s0,0,0,0a0,0,0,0,1,0,0l0-.08v0s0,0,0-.05h0l0-.11h0v0h0l0-.08v0h0a.06.06,0,0,0,0,0s0,0,0,0,0,0,0,0l0-.07h0a.74.74,0,0,0,0-.14l0-.07,0-.06s0,0,0,0v0h0c0-.05,0-.1-.05-.15v0s0,0,0,0,0,0,0-.06l0-.1,0-.06s0,0,0,0a0,0,0,0,0,0,0h0a1.18,1.18,0,0,0-.07-.2l0,0v0a.06.06,0,0,1,0,0,0,0,0,0,1,0,0l0-.08h0l-.06-.17h0v0s0-.08,0-.11h0a.24.24,0,0,0,0-.08h0c0-.05,0-.09,0-.13l-.11-.3a2.6,2.6,0,0,1-.1-.25.59.59,0,0,1,0-.08.14.14,0,0,0,0-.06l0,0,0-.08v0a1.42,1.42,0,0,1-.08-.18l0,0a.41.41,0,0,0,0-.08l0,0-.07-.17h0l0,0a1.6,1.6,0,0,0-.1-.23,1,1,0,0,0-.07-.15v0a.05.05,0,0,0,0,0L45.82,13v0l-.1-.21a.93.93,0,0,0-.05-.1.05.05,0,0,0,0,0,.08.08,0,0,0,0,0l-.1-.21v0l-.12-.22-.15-.3-.14-.25-.18-.32h0l-.05-.07-.18-.32h0l0,0s0-.1-.08-.14l-.08-.14-.21-.33v0l-.08-.11h0l0-.09h0a.44.44,0,0,1-.08-.11l-.19-.27h0l-.17-.24-.26-.37,0,0a1.09,1.09,0,0,0-.13-.17l-.1-.14-.1-.13-.2-.25-.13-.17-.11-.12a1.47,1.47,0,0,0-.1-.13s0,0,0,0l0,0h0v0l-.2-.22,0-.06-.31-.35A.76.76,0,0,1,41.81,7l-.49-.51-.25-.24c-.23-.23-.46-.44-.7-.65L40,5.28l-.18-.14-.32-.26-.1-.08-.14-.11,0,0L39,4.47l-.44-.31h0c-.51-.35-1-.67-1.54-1L36.65,3c-.58-.33-1.16-.61-1.74-.87l-.43-.18-.18-.07-.24-.1-.07,0-.12,0-.24-.09-.35-.13L33,1.39l-.45-.15-.1,0-.55-.16L31.65,1,31.38.9,30.84.76h0L30.47.68,30.11.6,29.64.5l-.23,0-.23,0L29,.38l-.23,0-.11,0H28.5l-.22,0-.22,0-.22,0-.22,0-.22,0L27,.12l-.34,0H26.5l-.73,0-.38,0H22.33l-.23,0h-1Zm3.39,1.18a19.55,19.55,0,0,1,5.73.12l1.19.24a17,17,0,0,1,1.83.53,15.36,15.36,0,0,1,3.16,1.5h0c.17.11.35.22.53.35a14.64,14.64,0,0,1,1.89,1.52l.29.28c.19.2.39.4.58.62L40,6.9a16,16,0,0,1,1.92,2.9l.05.09a3.59,3.59,0,0,1,.17.34v0l.09.19c.06.11.11.23.17.35.16.35.31.72.45,1.09,0,.13.1.26.14.39s.16.44.23.67.17.53.24.8h0c.05.17.09.34.14.52l.08.33a.36.36,0,0,1,0,.1.19.19,0,0,1,0,.07c0,.05,0,.1,0,.15l-.1,0-.07,0-.14,0-.27.06-.23,0-.22,0-.16,0-.33,0-.38.05-.51.07-.66.06-.6,0H40c-.4,0-.83,0-1.27,0H38.5l-.67,0a18.42,18.42,0,0,1-1.93-.17l-.16,0a15,15,0,0,1-4-1.16h0c-.15-.07-.29-.13-.43-.21l-.06,0-.2-.11a9.68,9.68,0,0,1-1-.61l-.2-.13a10.29,10.29,0,0,1-1.48-1.26c-.19-.19-.38-.39-.56-.6h0A10.76,10.76,0,0,1,26.69,9.6a.83.83,0,0,1-.08-.12v0l0,0-.33-.6c-.13-.26-.26-.54-.39-.82A19.16,19.16,0,0,1,24.47,1.38ZM39.1,5.92c.19.2.39.4.58.62L40,6.9A13.76,13.76,0,0,1,41.42,7l.48.07A.76.76,0,0,1,41.81,7a9.75,9.75,0,0,1-.94-.29l-.3-.11-.21-.08-.28-.12-.17-.07-.07,0-.09,0-.29-.14Zm0,0c.19.2.39.4.58.62L40,6.9A13.76,13.76,0,0,1,41.42,7l.48.07A.76.76,0,0,1,41.81,7a9.75,9.75,0,0,1-.94-.29l-.3-.11-.21-.08-.28-.12-.17-.07-.07,0-.09,0-.29-.14Zm0,0c.19.2.39.4.58.62L40,6.9A13.76,13.76,0,0,1,41.42,7l.48.07A.76.76,0,0,1,41.81,7a9.75,9.75,0,0,1-.94-.29l-.3-.11-.21-.08-.28-.12-.17-.07-.07,0-.09,0-.29-.14Zm0,0c.19.2.39.4.58.62L40,6.9A13.76,13.76,0,0,1,41.42,7l.48.07A.76.76,0,0,1,41.81,7a9.75,9.75,0,0,1-.94-.29l-.3-.11-.21-.08-.28-.12-.17-.07-.07,0-.09,0-.29-.14Zm0,0c.19.2.39.4.58.62L40,6.9A13.76,13.76,0,0,1,41.42,7l.48.07A.76.76,0,0,1,41.81,7a9.75,9.75,0,0,1-.94-.29l-.3-.11-.21-.08-.28-.12-.17-.07-.07,0-.09,0-.29-.14Zm0,0c.19.2.39.4.58.62L40,6.9A13.76,13.76,0,0,1,41.42,7l.48.07A.76.76,0,0,1,41.81,7a9.75,9.75,0,0,1-.94-.29l-.3-.11-.21-.08-.28-.12-.17-.07-.07,0-.09,0-.29-.14Z" style="fill: #83cfad;mix-blend-mode: multiply"/>
              <path d="M41.9,7.08A13.71,13.71,0,0,0,40,6.9h-.57L38.53,7a8.38,8.38,0,0,0-5.16,2.26A6.8,6.8,0,0,0,32,11.12a8,8,0,0,0-.75,2.73,9.22,9.22,0,0,0,.18,2.92,10.32,10.32,0,0,0,.46,1.46,16,16,0,0,1-8.86-8.51,11,11,0,0,0,3.54-.26,7.91,7.91,0,0,0,2.14-.85l.1-.06a6.07,6.07,0,0,0,3.05-5,3.57,3.57,0,0,0-.22-1.16c-.08-.21-.18-.42-.28-.62s-.37-.65-.55-1A21.79,21.79,0,0,1,41.9,7.08Z" style="fill: #959695;mix-blend-mode: overlay;opacity: 0.5"/>
              <g style="mix-blend-mode: screen">
                <g>
                  <path d="M35.08,5.35c-1-.53-1.64-1.28-1.43-1.67s1.19-.29,2.19.23,1.65,1.28,1.44,1.67S36.09,5.88,35.08,5.35Z" style="fill: #edeeef"/>
                  <path d="M32.46,3.72a.7.7,0,0,1,.65-1.24.71.71,0,0,1,.29,1A.69.69,0,0,1,32.46,3.72Z" style="fill: #edeeef"/>
                </g>
              </g>
              <path d="M28,4.73C29,5.25,30,5.81,31,6.4l1.17.71c.6.37,1.19.76,1.78,1.14l.28.2a3.28,3.28,0,0,1,.31.2c.73.5,1.45,1,2.17,1.54S38.28,11.36,39,12l.54.44c.63.5,1.24,1,1.85,1.58l.77.7.46.44.79.76.62.6.59.63.3.32h0l.79.84.09.1.73.85.07.08.1.12.17.2,0,.06L48,19.24l0,0-.14-.15s0,0-.05,0,0,0,0,0l-.07-.08-.23-.24-.15-.16-.09-.1-.08-.09L47,18.13l-.34-.37-.07-.07-.09-.09c-.38-.39-.78-.77-1.17-1.15l-.62-.62L44,15.25l-.36-.32-.3-.27c-.21-.2-.43-.39-.65-.58-.91-.75-1.8-1.51-2.74-2.2l-.06-.05c-1.57-1.19-3.18-2.32-4.85-3.37l0,0-.39-.24h0l-.45-.27c-.77-.47-1.54-.92-2.32-1.36l-.71-.39c-1-.55-2.08-1.07-3.14-1.55Z" style="fill: #44aa79;mix-blend-mode: multiply"/>
              <path d="M28.35,4.45c1,.49,1.95,1,2.9,1.58l.5.3c.88.52,1.75,1.08,2.6,1.64l.3.21h0l.37.25,0,0c1.42,1,2.8,2,4.13,3.07l.43.35h0l.3.25c.9.72,1.74,1.5,2.6,2.26v0l.65.62.6.58.62.6.6.63.91,1,.27.29.48.55.24.29.12.14,0,0,.07.08h0l.18.21.06.08,1.08-.45,0,0-.24-.26,0,0s0,0,0,0l0-.05-.16-.17,0,0-.09-.1h0l-.07-.08h0l-.06-.06h0L47.51,18l-.08-.09L47,17.42h0l-.56-.56-.62-.6h0l-.08-.08-.63-.61L44.4,15l0,0-.75-.67-.52-.46c-.86-.71-1.71-1.43-2.59-2.09l-.15-.11A63.26,63.26,0,0,0,35.08,8l-.33-.21-.18-.11c-1-.61-2-1.2-3.06-1.76l-.15-.08c-1-.52-2-1-3-1.46Z" style="fill: #44aa79"/>
            </g>
            <path d="M72.64,12.28l0,.06a2.83,2.83,0,0,1-3.68,1.56,1.69,1.69,0,0,1-.28-.12,18.93,18.93,0,0,0-5.49-2,12.73,12.73,0,0,0-5.63.17,13.94,13.94,0,0,0-5.17,2.69,17.6,17.6,0,0,0-2.19,2.13,16.55,16.55,0,0,0-1.8,2.43l-.05.08a1.39,1.39,0,0,1-1.91.48s0,0,0,0A1.4,1.4,0,0,1,45.86,18a16.72,16.72,0,0,1,.86-1.64c.3-.52.62-1,1-1.51A21.11,21.11,0,0,1,50,12.06,17.7,17.7,0,0,1,56.21,8a17.21,17.21,0,0,1,7.55-1.06A24.82,24.82,0,0,1,71,8.65l0,0A2.82,2.82,0,0,1,72.64,12.28Z" style="fill: #5b4217"/>
            <path d="M72.64,12.28C58.31,1.1,48.27,16.54,46.4,19.75A1.4,1.4,0,0,1,45.86,18a16.72,16.72,0,0,1,.86-1.64c.3-.52.62-1,1-1.51A21.11,21.11,0,0,1,50,12.06,17.7,17.7,0,0,1,56.21,8a17.21,17.21,0,0,1,7.55-1.06A24.82,24.82,0,0,1,71,8.65l0,0A2.82,2.82,0,0,1,72.64,12.28Z" style="fill: #8e6933"/>
          </g>
          <g>
            <path d="M31.93,39.46a7.26,7.26,0,0,0-12.78-4.73,7.26,7.26,0,1,0,12.78,4.73Z" style="fill: #fff"/>
            <g>
              <path d="M29.54,38.27a6.08,6.08,0,1,1-6.08-6.08A6.08,6.08,0,0,1,29.54,38.27Z" style="fill: #282828"/>
              <g style="mix-blend-mode: overlay">
                <circle cx="21.51" cy="37.62" r="3.29" style="fill: #c9c9c9"/>
              </g>
              <g style="mix-blend-mode: multiply">
                <path d="M23.46,32.19a6.08,6.08,0,1,0,6.08,6.08A6.08,6.08,0,0,0,23.46,32.19ZM22.16,42a4.35,4.35,0,1,1,4.35-4.35A4.35,4.35,0,0,1,22.16,42Z"/>
              </g>
              <path d="M23.05,37a1.79,1.79,0,1,1-1.79-1.79A1.79,1.79,0,0,1,23.05,37Z" style="fill: #fff"/>
              <circle cx="25.75" cy="41.87" r="1.05" style="fill: #fff"/>
              <g style="mix-blend-mode: screen;opacity: 0.30000000000000004">
                <path d="M21,41.27c-1-.12-1.79-.54-1.74-.94s.9-.64,1.91-.52,1.79.53,1.74.94S22,41.38,21,41.27Z" style="fill: #bfbfbf"/>
              </g>
            </g>
          </g>
          <g>
            <path d="M68.27,39.46A7.29,7.29,0,1,0,66,44.71,7.28,7.28,0,0,0,68.27,39.46Z" style="fill: #fff"/>
            <g>
              <path d="M65.89,38.27a6.08,6.08,0,1,1-6.08-6.08A6.08,6.08,0,0,1,65.89,38.27Z" style="fill: #282828"/>
              <g style="mix-blend-mode: overlay">
                <circle cx="57.85" cy="37.62" r="3.29" style="fill: #c9c9c9"/>
              </g>
              <g style="mix-blend-mode: multiply">
                <path d="M59.81,32.19a6.08,6.08,0,1,0,6.08,6.08A6.08,6.08,0,0,0,59.81,32.19ZM58.5,42a4.35,4.35,0,1,1,4.35-4.35A4.35,4.35,0,0,1,58.5,42Z"/>
              </g>
              <path d="M59.39,37a1.79,1.79,0,1,1-1.78-1.79A1.78,1.78,0,0,1,59.39,37Z" style="fill: #fff"/>
              <circle cx="62.09" cy="41.87" r="1.05" style="fill: #fff"/>
              <g style="mix-blend-mode: screen;opacity: 0.30000000000000004">
                <path d="M57.35,41.27c-1-.12-1.79-.54-1.74-.94s.9-.64,1.91-.52,1.79.53,1.75.94S58.36,41.38,57.35,41.27Z" style="fill: #bfbfbf"/>
              </g>
            </g>
          </g>
          <g>
            <path d="M69.86,20.07a1.57,1.57,0,0,1-1.57,1.57l-10.57,0h-.13a1.57,1.57,0,0,1-1-2.67,1.54,1.54,0,0,1,1.11-.46l10.57,0A1.57,1.57,0,0,1,69.86,20.07Z" style="fill: #c9b3a9;mix-blend-mode: multiply"/>
            <path d="M69.09,19.3a1.6,1.6,0,0,1-.46,1.11,1.58,1.58,0,0,1-1.11.46L57,20.89h-.13a1.57,1.57,0,0,1-1.44-1.56A1.57,1.57,0,0,1,57,17.75l10.57,0A1.57,1.57,0,0,1,69.09,19.3Z" style="fill: #282828"/>
            <path d="M69.08,19.12a1.6,1.6,0,0,0,0-.21.43.43,0,0,0,0-.11v0l-.06-.14a1.47,1.47,0,0,0-.24-.37l-.07-.08-.08-.07-.07-.06a1.64,1.64,0,0,0-.22-.14l-.13-.07L68,17.8l-.12,0h-.34L57,17.75a1.39,1.39,0,0,0-.3,0l-.1,0a1.75,1.75,0,0,0-.32.12l-.1.06,0,0-.11.08-.11.09,0,0a1.52,1.52,0,0,0-.46,1.11,1.09,1.09,0,0,0,0,.18.3.3,0,0,0,0,.1.43.43,0,0,0,0,.11.25.25,0,0,0,0,.07.47.47,0,0,0,.06.15.36.36,0,0,0,0,.09.41.41,0,0,0,.05.09.16.16,0,0,0,0,.07,1.09,1.09,0,0,0,.13.17l.06.07a1.44,1.44,0,0,0,.27.22l.1.05.09,0h0l.1,0,0,0,.1,0a1.28,1.28,0,0,0,.27.05H57l10.57,0h.2l.09,0,.17,0h0l.14-.06.14-.06.12-.07a1.6,1.6,0,0,0,.7-1.31C69.09,19.24,69.08,19.18,69.08,19.12Zm-2.56.31a.68.68,0,0,1-.49.2l-8.52,0a.69.69,0,0,1-.68-.69v-.09s0-.06,0-.09a.81.81,0,0,1,.17-.3.69.69,0,0,1,.49-.21H66a.66.66,0,0,1,.52.24.71.71,0,0,1,.17.45A.68.68,0,0,1,66.52,19.43Z"/>
          </g>
          <g>
            <path d="M55.18,61.85A3,3,0,0,1,54.3,64a3,3,0,0,1-2.13.89l-20.34,0h-.25a3,3,0,0,1-2.77-3,3,3,0,0,1,3-3l20.34,0A3,3,0,0,1,55.18,61.85Z" style="fill: #c9b3a9;mix-blend-mode: multiply"/>
            <path d="M53.69,60.37a3,3,0,0,1-3,3l-20.33,0h-.26a3,3,0,0,1,.25-6l20.33,0A3,3,0,0,1,53.69,60.37Z" style="fill: #282828"/>
            <path d="M53.67,60a2,2,0,0,0-.08-.41,1.46,1.46,0,0,0-.05-.2l0,0c0-.09-.07-.18-.11-.27A3.09,3.09,0,0,0,53,58.4l-.14-.16-.15-.14L52.52,58a3.54,3.54,0,0,0-.41-.26l-.26-.13-.28-.1-.23-.06-.13,0-.16,0-.13,0h-.25l-20.33,0a3.68,3.68,0,0,0-.58,0l-.18.05a2.48,2.48,0,0,0-.61.23,1.32,1.32,0,0,0-.2.12l-.06,0a1.49,1.49,0,0,0-.2.15l-.21.18a.34.34,0,0,0-.09.08,3,3,0,0,0-.89,2.13,2.07,2.07,0,0,0,0,.35.58.58,0,0,0,0,.19.78.78,0,0,0,0,.21.65.65,0,0,0,0,.13,1.82,1.82,0,0,0,.11.3.65.65,0,0,0,.08.17,1.62,1.62,0,0,0,.1.18.75.75,0,0,0,.07.12,2.78,2.78,0,0,0,.26.34l.12.12a2.71,2.71,0,0,0,.52.43l.18.1.18.1h0l.19.08.08,0,.18,0a2.27,2.27,0,0,0,.52.09h.26l20.33,0h.25l.13,0,.17,0,.33-.08h0l.27-.1a1.69,1.69,0,0,0,.27-.13l.23-.14a2.82,2.82,0,0,0,.46-.38,3,3,0,0,0,.88-2.13A2,2,0,0,0,53.67,60Zm-4.93.6a1.27,1.27,0,0,1-.93.38L31.43,61a1.32,1.32,0,0,1-1.32-1.32.91.91,0,0,1,0-.17.85.85,0,0,1,0-.17,1.28,1.28,0,0,1,.33-.59,1.32,1.32,0,0,1,.94-.39l16.38,0a1.31,1.31,0,0,1,1,.47,1.32,1.32,0,0,1-.08,1.79Z"/>
          </g>
          <g>
            <path d="M15.19,27.05a1.49,1.49,0,0,0,.45,1.11,1.58,1.58,0,0,0,1.1.48l10.57.11h.13a1.57,1.57,0,0,0-.09-3.14L16.78,25.5A1.57,1.57,0,0,0,15.19,27.05Z" style="fill: #c9b3a9;mix-blend-mode: multiply"/>
            <path d="M16,26.29a1.51,1.51,0,0,0,.45,1.11,1.53,1.53,0,0,0,1.1.47L28.09,28h.13a1.58,1.58,0,0,0,1.46-1.55,1.57,1.57,0,0,0-1.55-1.59l-10.57-.11A1.57,1.57,0,0,0,16,26.29Z" style="fill: #282828"/>
            <path d="M16,26.29a1.55,1.55,0,0,0,.45,1.11,1.43,1.43,0,0,0,.23.2l.12.07.14.07.14.06h0l.17,0,.09,0h.2L28.09,28h.13a1.08,1.08,0,0,0,.27,0,.19.19,0,0,0,.1,0h0l.1,0h0l.09,0,.1-.06a1.44,1.44,0,0,0,.27-.22l.06-.06a1.24,1.24,0,0,0,.14-.18l0-.06a.41.41,0,0,0,.05-.09.36.36,0,0,0,0-.09.44.44,0,0,0,.06-.16.14.14,0,0,0,0-.06l0-.11s0-.07,0-.1a1.1,1.1,0,0,0,0-.18,1.56,1.56,0,0,0-.45-1.11l-.05,0-.11-.09-.1-.08,0,0-.1-.06a1.75,1.75,0,0,0-.32-.12l-.1,0a1.39,1.39,0,0,0-.3,0l-10.57-.11h-.34l-.12,0-.15.05-.14.07-.21.13-.07.06a.6.6,0,0,0-.08.08l-.08.08a1.74,1.74,0,0,0-.24.36l-.06.14v0a.49.49,0,0,0,0,.11,1.55,1.55,0,0,0,0,.21A1.09,1.09,0,0,0,16,26.29ZM18.34,26a.75.75,0,0,1,.17-.44.7.7,0,0,1,.53-.24l8.51.09a.69.69,0,0,1,.49.21.67.67,0,0,1,.17.31s0,.05,0,.09v.09a.69.69,0,0,1-.69.68L19,26.65a.68.68,0,0,1-.48-.2A.72.72,0,0,1,18.34,26Z"/>
          </g>
        </g>
      </g>
    </g>
  </g>
</svg>
